<svg xmlns="http://www.w3.org/2000/svg" xmlns:xlink="http://www.w3.org/1999/xlink" width="500" zoomAndPan="magnify" viewBox="0 0 375 374.999991" height="500" preserveAspectRatio="xMidYMid meet" version="1.0"><defs><g/><clipPath id="id1"><path d="M 122 37.5 L 253 37.5 L 253 99 L 122 99 Z M 122 37.5 " clip-rule="nonzero"/></clipPath><clipPath id="id2"><path d="M 0 78 L 375 78 L 375 319.5 L 0 319.5 Z M 0 78 " clip-rule="nonzero"/></clipPath><clipPath id="id3"><path d="M 0 275 L 375 275 L 375 319.5 L 0 319.5 Z M 0 275 " clip-rule="nonzero"/></clipPath><clipPath id="id4"><path d="M 112 124 L 264 124 L 264 277 L 112 277 Z M 112 124 " clip-rule="nonzero"/></clipPath><clipPath id="id5"><path d="M 96.566406 143.003906 L 245.023438 109.226562 L 278.800781 257.683594 L 130.34375 291.460938 Z M 96.566406 143.003906 " clip-rule="nonzero"/></clipPath><clipPath id="id6"><path d="M 96.566406 143.003906 L 245.023438 109.226562 L 278.800781 257.683594 L 130.34375 291.460938 Z M 96.566406 143.003906 " clip-rule="nonzero"/></clipPath></defs><g clip-path="url(#id1)"><path fill="#393536" d="M 252.171875 95.175781 L 236.472656 39.652344 C 236.117188 38.40625 234.980469 37.546875 233.6875 37.546875 L 141.195312 37.546875 C 139.902344 37.546875 138.765625 38.40625 138.414062 39.652344 L 122.710938 95.175781 C 122.46875 96.046875 122.644531 96.984375 123.191406 97.707031 C 123.738281 98.429688 124.59375 98.851562 125.496094 98.851562 L 144.863281 98.851562 C 146.289062 96.632812 148.09375 94.667969 150.207031 93.070312 L 129.320312 93.070312 L 143.382812 43.328125 L 231.5 43.328125 L 245.5625 93.070312 L 217.644531 93.070312 C 222.023438 94.707031 226.289062 96.621094 230.378906 98.851562 L 249.386719 98.851562 C 250.292969 98.851562 251.144531 98.429688 251.691406 97.707031 C 252.238281 96.984375 252.414062 96.046875 252.171875 95.175781 " fill-opacity="1" fill-rule="nonzero"/></g><path fill="#393536" d="M 153.894531 71.800781 L 220.992188 71.800781 L 215.398438 53.824219 L 159.488281 53.824219 Z M 224.917969 77.582031 L 149.964844 77.582031 C 149.046875 77.582031 148.179688 77.144531 147.636719 76.40625 C 147.089844 75.664062 146.929688 74.707031 147.203125 73.832031 L 154.597656 50.074219 C 154.972656 48.863281 156.09375 48.042969 157.359375 48.042969 L 217.527344 48.042969 C 218.789062 48.042969 219.910156 48.863281 220.285156 50.074219 L 227.679688 73.832031 C 227.953125 74.707031 227.792969 75.664062 227.246094 76.40625 C 226.703125 77.144531 225.835938 77.582031 224.917969 77.582031 " fill-opacity="1" fill-rule="nonzero"/><path fill="#393536" d="M 19.886719 81.929688 C 20.003906 73.421875 26.804688 66.535156 35.15625 66.535156 L 61.21875 66.535156 C 69.582031 66.535156 76.382812 73.421875 76.5 81.929688 L 82.285156 81.929688 C 82.167969 70.234375 72.765625 60.753906 61.21875 60.753906 L 35.15625 60.753906 C 23.613281 60.753906 14.21875 70.234375 14.101562 81.929688 L 19.886719 81.929688 " fill-opacity="1" fill-rule="nonzero"/><g clip-path="url(#id2)"><path fill="#393536" d="M 372.023438 78.429688 L 244.621094 78.429688 L 244.621094 84.210938 L 369.128906 84.210938 L 369.128906 313.785156 L 5.757812 313.785156 L 5.757812 84.210938 L 128.921875 84.210938 L 128.921875 78.429688 L 2.863281 78.429688 C 1.265625 78.429688 -0.0273438 79.722656 -0.0273438 81.320312 L -0.0273438 316.675781 C -0.0273438 318.277344 1.265625 319.566406 2.863281 319.566406 L 372.023438 319.566406 C 373.617188 319.566406 374.914062 318.277344 374.914062 316.675781 L 374.914062 81.320312 C 374.914062 79.722656 373.617188 78.429688 372.023438 78.429688 " fill-opacity="1" fill-rule="nonzero"/></g><path fill="#393536" d="M 5.757812 84.210938 L 131.042969 84.210938 L 131.042969 78.429688 L 2.863281 78.429688 C 1.265625 78.429688 -0.0273438 79.722656 -0.0273438 81.320312 L -0.0273438 119.996094 C -0.0273438 121.589844 1.265625 122.886719 2.863281 122.886719 L 110.03125 122.886719 C 111.855469 120.554688 114.117188 118.585938 116.6875 117.105469 L 5.757812 117.105469 L 5.757812 84.210938 " fill-opacity="1" fill-rule="nonzero"/><path fill="#393536" d="M 372.023438 78.429688 L 243.847656 78.429688 L 243.847656 84.210938 L 369.128906 84.210938 L 369.128906 117.105469 L 263.828125 117.105469 C 265.105469 118.945312 266.167969 120.890625 266.992188 122.886719 L 372.023438 122.886719 C 373.617188 122.886719 374.914062 121.589844 374.914062 119.996094 L 374.914062 81.320312 C 374.914062 79.722656 373.617188 78.429688 372.023438 78.429688 " fill-opacity="1" fill-rule="nonzero"/><g clip-path="url(#id3)"><path fill="#393536" d="M 372.023438 275.113281 L 266.242188 275.113281 C 264.804688 276.816406 263.265625 278.425781 261.644531 279.949219 C 261.378906 280.261719 261.128906 280.585938 260.863281 280.894531 L 369.128906 280.894531 L 369.128906 313.785156 L 5.757812 313.785156 L 5.757812 280.894531 L 113.667969 280.894531 C 111.902344 279.070312 110.257812 277.144531 108.761719 275.113281 L 2.863281 275.113281 C 1.265625 275.113281 -0.0273438 276.410156 -0.0273438 278.003906 L -0.0273438 316.675781 C -0.0273438 318.277344 1.265625 319.566406 2.863281 319.566406 L 372.023438 319.566406 C 373.617188 319.566406 374.914062 318.277344 374.914062 316.675781 L 374.914062 278.003906 C 374.914062 276.410156 373.617188 275.113281 372.023438 275.113281 " fill-opacity="1" fill-rule="nonzero"/></g><path fill="#393536" d="M 187.445312 91.949219 C 129.464844 91.949219 82.300781 139.972656 82.300781 199 C 82.300781 258.03125 129.464844 306.050781 187.445312 306.050781 C 245.417969 306.050781 292.585938 258.03125 292.585938 199 C 292.585938 139.972656 245.417969 91.949219 187.445312 91.949219 Z M 187.445312 311.832031 C 126.273438 311.832031 76.515625 261.214844 76.515625 199 C 76.515625 136.78125 126.273438 86.167969 187.445312 86.167969 C 248.609375 86.167969 298.371094 136.78125 298.371094 199 C 298.371094 261.214844 248.609375 311.832031 187.445312 311.832031 " fill-opacity="1" fill-rule="nonzero"/><path fill="#393536" d="M 187.445312 117.363281 C 143.234375 117.363281 107.273438 153.984375 107.273438 199 C 107.273438 244.015625 143.234375 280.640625 187.445312 280.640625 C 231.648438 280.640625 267.613281 244.015625 267.613281 199 C 267.613281 153.984375 231.648438 117.363281 187.445312 117.363281 Z M 187.445312 286.421875 C 140.046875 286.421875 101.488281 247.207031 101.488281 199 C 101.488281 150.796875 140.046875 111.582031 187.445312 111.582031 C 234.839844 111.582031 273.398438 150.796875 273.398438 199 C 273.398438 247.207031 234.839844 286.421875 187.445312 286.421875 " fill-opacity="1" fill-rule="nonzero"/><path fill="#393536" d="M 29.460938 133.9375 C 24.175781 133.9375 19.871094 138.335938 19.871094 143.75 L 19.871094 254.246094 C 19.871094 259.660156 24.175781 264.066406 29.460938 264.066406 C 34.753906 264.066406 39.050781 259.660156 39.050781 254.246094 L 39.050781 143.75 C 39.050781 138.335938 34.753906 133.9375 29.460938 133.9375 Z M 29.460938 269.847656 C 20.984375 269.847656 14.085938 262.851562 14.085938 254.246094 L 14.085938 143.75 C 14.085938 135.152344 20.984375 128.15625 29.460938 128.15625 C 37.941406 128.15625 44.835938 135.152344 44.835938 143.75 L 44.835938 254.246094 C 44.835938 262.851562 37.941406 269.847656 29.460938 269.847656 " fill-opacity="1" fill-rule="nonzero"/><g clip-path="url(#id4)"><g clip-path="url(#id5)"><g clip-path="url(#id6)"><path fill="#393536" d="M 174.210938 141.128906 C 206.914062 133.6875 239.457031 154.167969 246.898438 186.871094 C 254.339844 219.574219 233.859375 252.121094 201.15625 259.5625 C 168.453125 267.003906 135.910156 246.523438 128.46875 213.820312 C 121.027344 181.113281 141.507812 148.570312 174.210938 141.128906 Z M 201.917969 262.910156 C 186.644531 266.382812 170.671875 264.167969 156.941406 256.667969 C 146.585938 251.011719 138.007812 242.652344 132.136719 232.496094 L 128.390625 234.664062 C 134.660156 245.503906 143.816406 254.425781 154.867188 260.464844 C 169.523438 268.46875 186.574219 270.835938 202.878906 267.128906 Z M 254.617188 214.957031 C 256.773438 205.09375 256.726562 195.066406 254.46875 185.148438 L 250.25 186.109375 C 252.363281 195.402344 252.410156 204.796875 250.390625 214.03125 C 246.449219 232.023438 234.980469 247.472656 218.925781 256.40625 L 221.035156 260.1875 C 238.167969 250.648438 250.410156 234.164062 254.617188 214.957031 Z M 229.675781 146.238281 C 215.15625 134.980469 197.167969 130.0625 179.023438 132.398438 C 176.839844 132.679688 174.640625 133.070312 172.488281 133.558594 L 173.449219 137.78125 C 175.46875 137.320312 177.53125 136.953125 179.574219 136.691406 C 196.570312 134.503906 213.421875 139.109375 227.023438 149.65625 Z M 135.886719 162.476562 L 132.390625 159.921875 C 120.691406 175.941406 116.503906 196.214844 120.898438 215.539062 L 125.121094 214.582031 C 121 196.472656 124.925781 177.484375 135.886719 162.476562 Z M 261.914062 183.457031 C 260.234375 176.078125 257.492188 169.035156 253.773438 162.527344 C 249.066406 154.296875 242.921875 147.09375 235.507812 141.113281 C 217.238281 126.382812 193.652344 120.917969 170.792969 126.117188 L 171.753906 130.335938 C 193.3125 125.433594 215.558594 130.589844 232.789062 144.484375 C 239.785156 150.125 245.578125 156.917969 250.015625 164.675781 C 253.523438 170.8125 256.109375 177.453125 257.691406 184.417969 C 259.398438 191.917969 259.898438 199.566406 259.179688 207.152344 L 263.488281 207.5625 C 264.25 199.515625 263.722656 191.40625 261.914062 183.457031 Z M 127.796875 160.742188 C 134.164062 151.109375 142.839844 143.078125 152.886719 137.523438 L 150.792969 133.734375 C 140.136719 139.628906 130.9375 148.144531 124.1875 158.359375 C 117.589844 168.335938 113.386719 179.859375 112.03125 191.6875 L 116.332031 192.179688 C 117.609375 181.027344 121.574219 170.15625 127.796875 160.742188 Z M 219.382812 269.570312 C 231.152344 264.195312 241.433594 255.804688 249.113281 245.308594 L 245.621094 242.753906 C 238.378906 252.652344 228.683594 260.566406 217.585938 265.632812 C 213.125 267.667969 208.425781 269.257812 203.613281 270.351562 C 191.65625 273.070312 179.164062 272.691406 167.480469 269.253906 C 155.074219 265.605469 143.863281 258.667969 135.054688 249.199219 C 126.488281 239.992188 120.480469 228.605469 117.675781 216.273438 L 113.457031 217.234375 C 116.429688 230.308594 122.800781 242.378906 131.882812 252.144531 C 141.21875 262.183594 153.105469 269.535156 166.257812 273.40625 C 178.648438 277.050781 191.898438 277.457031 204.570312 274.570312 C 209.671875 273.410156 214.652344 271.730469 219.382812 269.570312 Z M 219.382812 269.570312 " fill-opacity="1" fill-rule="nonzero"/></g></g></g><g fill="#ffffff" fill-opacity="1"><g transform="translate(134.569297, 208.024663)"><g><path d="M 8.40625 -8.75 C 8.925781 -8.550781 9.332031 -8.238281 9.625 -7.8125 C 9.925781 -7.394531 10.09375 -6.878906 10.125 -6.265625 C 10.164062 -5.671875 10.066406 -5.085938 9.828125 -4.515625 C 9.597656 -3.953125 9.242188 -3.410156 8.765625 -2.890625 C 8.335938 -2.421875 7.84375 -2.023438 7.28125 -1.703125 C 6.71875 -1.390625 6.109375 -1.15625 5.453125 -1 C 4.816406 -0.851562 4.207031 -0.804688 3.625 -0.859375 C 3.039062 -0.921875 2.503906 -1.082031 2.015625 -1.34375 C 1.316406 -1.695312 0.804688 -2.234375 0.484375 -2.953125 L 2.921875 -4.71875 C 2.941406 -4.59375 2.992188 -4.445312 3.078125 -4.28125 C 3.171875 -4.113281 3.316406 -3.960938 3.515625 -3.828125 C 3.710938 -3.703125 3.953125 -3.609375 4.234375 -3.546875 C 4.523438 -3.484375 4.878906 -3.503906 5.296875 -3.609375 C 5.972656 -3.753906 6.46875 -4.015625 6.78125 -4.390625 C 7.101562 -4.773438 7.257812 -5.132812 7.25 -5.46875 C 7.226562 -5.664062 7.144531 -5.835938 7 -5.984375 C 6.863281 -6.128906 6.671875 -6.21875 6.421875 -6.25 C 5.921875 -6.320312 5.398438 -6.351562 4.859375 -6.34375 C 4.328125 -6.34375 3.800781 -6.375 3.28125 -6.4375 C 2.769531 -6.5 2.296875 -6.628906 1.859375 -6.828125 C 1.429688 -7.023438 1.066406 -7.359375 0.765625 -7.828125 C 0.628906 -8.046875 0.523438 -8.269531 0.453125 -8.5 C 0.378906 -8.738281 0.335938 -8.992188 0.328125 -9.265625 C 0.285156 -9.847656 0.375 -10.445312 0.59375 -11.0625 C 0.820312 -11.675781 1.164062 -12.226562 1.625 -12.71875 C 2.050781 -13.164062 2.523438 -13.546875 3.046875 -13.859375 C 3.566406 -14.179688 4.128906 -14.414062 4.734375 -14.5625 C 5.335938 -14.695312 5.921875 -14.734375 6.484375 -14.671875 C 7.054688 -14.609375 7.578125 -14.453125 8.046875 -14.203125 C 8.503906 -13.953125 8.867188 -13.640625 9.140625 -13.265625 L 7.203125 -11.375 C 6.929688 -11.664062 6.601562 -11.875 6.21875 -12 C 5.832031 -12.132812 5.40625 -12.148438 4.9375 -12.046875 C 4.300781 -11.898438 3.816406 -11.632812 3.484375 -11.25 C 3.148438 -10.875 3 -10.453125 3.03125 -9.984375 C 3.039062 -9.765625 3.148438 -9.585938 3.359375 -9.453125 C 3.566406 -9.328125 3.832031 -9.234375 4.15625 -9.171875 C 4.488281 -9.109375 4.851562 -9.066406 5.25 -9.046875 C 5.644531 -9.023438 6.039062 -9.007812 6.4375 -9 C 6.832031 -9 7.195312 -8.976562 7.53125 -8.9375 C 7.875 -8.90625 8.164062 -8.84375 8.40625 -8.75 Z M 8.40625 -8.75 "/></g></g></g><g fill="#ffffff" fill-opacity="1"><g transform="translate(145.542286, 205.528022)"><g><path d="M 5.90625 -14.8125 C 6.75 -15.007812 7.566406 -15.015625 8.359375 -14.828125 C 9.148438 -14.648438 9.84375 -14.316406 10.4375 -13.828125 C 11.039062 -13.335938 11.535156 -12.722656 11.921875 -11.984375 C 12.316406 -11.242188 12.539062 -10.414062 12.59375 -9.5 C 12.644531 -8.582031 12.535156 -7.675781 12.265625 -6.78125 C 11.992188 -5.882812 11.59375 -5.0625 11.0625 -4.3125 C 10.539062 -3.570312 9.910156 -2.929688 9.171875 -2.390625 C 8.441406 -1.859375 7.648438 -1.492188 6.796875 -1.296875 C 5.941406 -1.109375 5.125 -1.109375 4.34375 -1.296875 C 3.5625 -1.492188 2.867188 -1.835938 2.265625 -2.328125 C 1.671875 -2.816406 1.179688 -3.429688 0.796875 -4.171875 C 0.421875 -4.921875 0.203125 -5.753906 0.140625 -6.671875 C 0.0859375 -7.585938 0.191406 -8.488281 0.453125 -9.375 C 0.722656 -10.269531 1.117188 -11.085938 1.640625 -11.828125 C 2.160156 -12.566406 2.785156 -13.203125 3.515625 -13.734375 C 4.242188 -14.265625 5.039062 -14.625 5.90625 -14.8125 Z M 6.609375 -4.078125 C 7.097656 -4.191406 7.550781 -4.398438 7.96875 -4.703125 C 8.382812 -5.015625 8.738281 -5.390625 9.03125 -5.828125 C 9.332031 -6.265625 9.5625 -6.742188 9.71875 -7.265625 C 9.875 -7.785156 9.925781 -8.328125 9.875 -8.890625 C 9.851562 -9.429688 9.734375 -9.925781 9.515625 -10.375 C 9.304688 -10.820312 9.023438 -11.1875 8.671875 -11.46875 C 8.328125 -11.757812 7.929688 -11.960938 7.484375 -12.078125 C 7.046875 -12.191406 6.582031 -12.191406 6.09375 -12.078125 C 5.601562 -11.972656 5.15625 -11.765625 4.75 -11.453125 C 4.34375 -11.148438 3.988281 -10.78125 3.6875 -10.34375 C 3.394531 -9.90625 3.171875 -9.421875 3.015625 -8.890625 C 2.867188 -8.359375 2.8125 -7.820312 2.84375 -7.28125 C 2.875 -6.71875 2.992188 -6.21875 3.203125 -5.78125 C 3.421875 -5.34375 3.703125 -4.976562 4.046875 -4.6875 C 4.390625 -4.40625 4.78125 -4.207031 5.21875 -4.09375 C 5.65625 -3.976562 6.117188 -3.972656 6.609375 -4.078125 Z M 6.609375 -4.078125 "/></g></g></g><g fill="#ffffff" fill-opacity="1"><g transform="translate(159.169457, 202.427484)"><g><path d="M 11.015625 -15.78125 L 13.5625 -16.359375 L 14.4375 -3.28125 L 11.765625 -2.671875 L 11.1875 -11.296875 L 8.453125 -6.25 L 6.296875 -5.75 L 2.96875 -9.328125 L 3.546875 -0.8125 L 0.84375 -0.1875 L -0.046875 -13.265625 L 2.515625 -13.859375 L 7.203125 -8.796875 Z M 11.015625 -15.78125 "/></g></g></g><g fill="#ffffff" fill-opacity="1"><g transform="translate(174.453262, 198.950019)"><g><path d="M -0.03125 -13.265625 L 7.859375 -15.0625 L 8.03125 -12.53125 L 2.859375 -11.34375 L 3.015625 -8.984375 L 7.578125 -10.015625 L 7.734375 -7.484375 L 3.1875 -6.4375 L 3.390625 -3.328125 L 8.578125 -4.515625 L 8.75 -1.984375 L 0.859375 -0.1875 Z M -0.03125 -13.265625 "/></g></g></g><g fill="#ffffff" fill-opacity="1"><g transform="translate(184.054623, 196.765459)"><g><path d="M -0.46875 -13.171875 L 8.671875 -15.25 L 8.84375 -12.703125 L 5.609375 -11.96875 L 6.328125 -1.4375 L 3.625 -0.828125 L 2.921875 -11.359375 L -0.296875 -10.625 Z M -0.46875 -13.171875 "/></g></g></g><g fill="#ffffff" fill-opacity="1"><g transform="translate(194.012254, 194.499838)"><g><path d="M 8.421875 -15.203125 L 11.140625 -15.8125 L 12.015625 -2.734375 L 9.3125 -2.125 L 8.9375 -7.75 L 3.15625 -6.4375 L 3.515625 -0.796875 L 0.84375 -0.1875 L -0.046875 -13.265625 L 2.640625 -13.875 L 2.96875 -8.96875 L 8.765625 -10.296875 Z M 8.421875 -15.203125 "/></g></g></g><g fill="#ffffff" fill-opacity="1"><g transform="translate(206.873454, 191.573578)"><g><path d="M 4.546875 -14.3125 L 4.703125 -11.953125 L 3.765625 -11.734375 L 4.328125 -3.359375 L 5.28125 -3.5625 L 5.4375 -1.234375 L 0.84375 -0.1875 L 0.671875 -2.515625 L 1.625 -2.734375 L 1.046875 -11.125 L 0.109375 -10.90625 L -0.046875 -13.265625 Z M 4.546875 -14.3125 "/></g></g></g><g fill="#ffffff" fill-opacity="1"><g transform="translate(213.125919, 190.150979)"><g><path d="M 8.59375 -15.234375 L 11.28125 -15.84375 L 12.15625 -2.765625 L 9.59375 -2.1875 L 2.953125 -9.34375 L 3.515625 -0.796875 L 0.84375 -0.1875 L -0.046875 -13.265625 L 2.484375 -13.84375 L 9.15625 -6.640625 Z M 8.59375 -15.234375 "/></g></g></g><g fill="#ffffff" fill-opacity="1"><g transform="translate(226.129623, 187.192297)"><g><path d="M 6.59375 -9.015625 L 11.359375 -10.09375 L 11.671875 -5.296875 C 11.023438 -4.203125 10.28125 -3.3125 9.4375 -2.625 C 8.601562 -1.945312 7.710938 -1.503906 6.765625 -1.296875 C 5.910156 -1.097656 5.09375 -1.097656 4.3125 -1.296875 C 3.539062 -1.492188 2.847656 -1.832031 2.234375 -2.3125 C 1.628906 -2.800781 1.140625 -3.414062 0.765625 -4.15625 C 0.398438 -4.90625 0.179688 -5.742188 0.109375 -6.671875 C 0.0546875 -7.585938 0.160156 -8.488281 0.421875 -9.375 C 0.679688 -10.257812 1.070312 -11.070312 1.59375 -11.8125 C 2.125 -12.5625 2.753906 -13.195312 3.484375 -13.71875 C 4.210938 -14.25 5.003906 -14.613281 5.859375 -14.8125 C 6.671875 -15 7.445312 -15.019531 8.1875 -14.875 C 8.925781 -14.726562 9.660156 -14.367188 10.390625 -13.796875 L 8.9375 -11.46875 C 8.414062 -11.84375 7.929688 -12.0625 7.484375 -12.125 C 7.035156 -12.1875 6.566406 -12.160156 6.078125 -12.046875 C 5.578125 -11.929688 5.117188 -11.722656 4.703125 -11.421875 C 4.285156 -11.117188 3.929688 -10.753906 3.640625 -10.328125 C 3.347656 -9.898438 3.125 -9.414062 2.96875 -8.875 C 2.8125 -8.34375 2.75 -7.804688 2.78125 -7.265625 C 2.820312 -6.710938 2.945312 -6.210938 3.15625 -5.765625 C 3.375 -5.328125 3.65625 -4.960938 4 -4.671875 C 4.34375 -4.390625 4.738281 -4.191406 5.1875 -4.078125 C 5.632812 -3.960938 6.101562 -3.960938 6.59375 -4.078125 C 7.03125 -4.179688 7.460938 -4.363281 7.890625 -4.625 C 8.316406 -4.894531 8.738281 -5.269531 9.15625 -5.75 L 9.0625 -7.171875 L 6.75 -6.640625 Z M 6.59375 -9.015625 "/></g></g></g><g fill="#ffffff" fill-opacity="1"><g transform="translate(170.209758, 219.940486)"><g><path d="M 5.40625 -14.515625 C 5.90625 -14.628906 6.378906 -14.628906 6.828125 -14.515625 C 7.285156 -14.410156 7.6875 -14.222656 8.03125 -13.953125 C 8.382812 -13.679688 8.664062 -13.328125 8.875 -12.890625 C 9.09375 -12.460938 9.226562 -11.972656 9.28125 -11.421875 C 9.3125 -10.898438 9.25 -10.378906 9.09375 -9.859375 C 8.9375 -9.335938 8.707031 -8.863281 8.40625 -8.4375 C 8.101562 -8.007812 7.738281 -7.640625 7.3125 -7.328125 C 6.882812 -7.023438 6.421875 -6.816406 5.921875 -6.703125 L 3.171875 -6.078125 L 3.515625 -0.796875 L 0.84375 -0.1875 L -0.046875 -13.265625 Z M 5.40625 -9.1875 C 5.582031 -9.226562 5.742188 -9.300781 5.890625 -9.40625 C 6.046875 -9.507812 6.175781 -9.632812 6.28125 -9.78125 C 6.382812 -9.9375 6.460938 -10.101562 6.515625 -10.28125 C 6.578125 -10.46875 6.601562 -10.644531 6.59375 -10.8125 C 6.5625 -11.1875 6.410156 -11.476562 6.140625 -11.6875 C 5.867188 -11.894531 5.5625 -11.960938 5.21875 -11.890625 L 2.828125 -11.34375 L 3 -8.640625 Z M 5.40625 -9.1875 "/></g></g></g><g fill="#ffffff" fill-opacity="1"><g transform="translate(180.327711, 217.638387)"><g><path d="M 3.375 -3.328125 L 8.546875 -4.5 L 8.734375 -1.984375 L 0.84375 -0.1875 L -0.046875 -13.265625 L 2.671875 -13.890625 Z M 3.375 -3.328125 "/></g></g></g><g fill="#ffffff" fill-opacity="1"><g transform="translate(189.234357, 215.611892)"><g><path d="M 7.625 -7.09375 C 7.613281 -7.25 7.59375 -7.484375 7.5625 -7.796875 C 7.539062 -8.109375 7.519531 -8.460938 7.5 -8.859375 C 7.476562 -9.253906 7.453125 -9.675781 7.421875 -10.125 C 7.398438 -10.582031 7.375 -11.039062 7.34375 -11.5 C 7.257812 -12.53125 7.179688 -13.660156 7.109375 -14.890625 L 9.78125 -15.5 C 9.875 -14.125 9.960938 -12.859375 10.046875 -11.703125 C 10.078125 -11.210938 10.101562 -10.722656 10.125 -10.234375 C 10.15625 -9.753906 10.1875 -9.300781 10.21875 -8.875 C 10.25 -8.457031 10.269531 -8.09375 10.28125 -7.78125 C 10.300781 -7.476562 10.320312 -7.269531 10.34375 -7.15625 C 10.394531 -6.5 10.304688 -5.835938 10.078125 -5.171875 C 9.859375 -4.515625 9.539062 -3.90625 9.125 -3.34375 C 8.707031 -2.789062 8.203125 -2.304688 7.609375 -1.890625 C 7.015625 -1.484375 6.378906 -1.203125 5.703125 -1.046875 C 5.015625 -0.890625 4.363281 -0.878906 3.75 -1.015625 C 3.132812 -1.148438 2.585938 -1.394531 2.109375 -1.75 C 1.628906 -2.101562 1.238281 -2.550781 0.9375 -3.09375 C 0.644531 -3.632812 0.476562 -4.234375 0.4375 -4.890625 C 0.425781 -5.023438 0.40625 -5.25 0.375 -5.5625 C 0.351562 -5.882812 0.328125 -6.253906 0.296875 -6.671875 C 0.273438 -7.085938 0.25 -7.535156 0.21875 -8.015625 C 0.195312 -8.503906 0.164062 -8.992188 0.125 -9.484375 C 0.0507812 -10.628906 -0.03125 -11.882812 -0.125 -13.25 L 2.5625 -13.859375 C 2.65625 -12.578125 2.726562 -11.410156 2.78125 -10.359375 C 2.8125 -9.898438 2.84375 -9.441406 2.875 -8.984375 C 2.90625 -8.535156 2.9375 -8.113281 2.96875 -7.71875 C 3 -7.332031 3.019531 -6.988281 3.03125 -6.6875 C 3.039062 -6.394531 3.054688 -6.1875 3.078125 -6.0625 C 3.097656 -5.6875 3.175781 -5.347656 3.3125 -5.046875 C 3.445312 -4.742188 3.625 -4.488281 3.84375 -4.28125 C 4.070312 -4.082031 4.328125 -3.941406 4.609375 -3.859375 C 4.898438 -3.773438 5.203125 -3.769531 5.515625 -3.84375 C 5.828125 -3.90625 6.117188 -4.039062 6.390625 -4.25 C 6.660156 -4.457031 6.890625 -4.710938 7.078125 -5.015625 C 7.265625 -5.316406 7.40625 -5.644531 7.5 -6 C 7.601562 -6.351562 7.644531 -6.71875 7.625 -7.09375 Z M 7.625 -7.09375 "/></g></g></g><g fill="#ffffff" fill-opacity="1"><g transform="translate(200.634864, 213.017979)"><g><path d="M 8.40625 -8.75 C 8.925781 -8.550781 9.332031 -8.238281 9.625 -7.8125 C 9.925781 -7.394531 10.09375 -6.878906 10.125 -6.265625 C 10.164062 -5.671875 10.066406 -5.085938 9.828125 -4.515625 C 9.597656 -3.953125 9.242188 -3.410156 8.765625 -2.890625 C 8.335938 -2.421875 7.84375 -2.023438 7.28125 -1.703125 C 6.71875 -1.390625 6.109375 -1.15625 5.453125 -1 C 4.816406 -0.851562 4.207031 -0.804688 3.625 -0.859375 C 3.039062 -0.921875 2.503906 -1.082031 2.015625 -1.34375 C 1.316406 -1.695312 0.804688 -2.234375 0.484375 -2.953125 L 2.921875 -4.71875 C 2.941406 -4.59375 2.992188 -4.445312 3.078125 -4.28125 C 3.171875 -4.113281 3.316406 -3.960938 3.515625 -3.828125 C 3.710938 -3.703125 3.953125 -3.609375 4.234375 -3.546875 C 4.523438 -3.484375 4.878906 -3.503906 5.296875 -3.609375 C 5.972656 -3.753906 6.46875 -4.015625 6.78125 -4.390625 C 7.101562 -4.773438 7.257812 -5.132812 7.25 -5.46875 C 7.226562 -5.664062 7.144531 -5.835938 7 -5.984375 C 6.863281 -6.128906 6.671875 -6.21875 6.421875 -6.25 C 5.921875 -6.320312 5.398438 -6.351562 4.859375 -6.34375 C 4.328125 -6.34375 3.800781 -6.375 3.28125 -6.4375 C 2.769531 -6.5 2.296875 -6.628906 1.859375 -6.828125 C 1.429688 -7.023438 1.066406 -7.359375 0.765625 -7.828125 C 0.628906 -8.046875 0.523438 -8.269531 0.453125 -8.5 C 0.378906 -8.738281 0.335938 -8.992188 0.328125 -9.265625 C 0.285156 -9.847656 0.375 -10.445312 0.59375 -11.0625 C 0.820312 -11.675781 1.164062 -12.226562 1.625 -12.71875 C 2.050781 -13.164062 2.523438 -13.546875 3.046875 -13.859375 C 3.566406 -14.179688 4.128906 -14.414062 4.734375 -14.5625 C 5.335938 -14.695312 5.921875 -14.734375 6.484375 -14.671875 C 7.054688 -14.609375 7.578125 -14.453125 8.046875 -14.203125 C 8.503906 -13.953125 8.867188 -13.640625 9.140625 -13.265625 L 7.203125 -11.375 C 6.929688 -11.664062 6.601562 -11.875 6.21875 -12 C 5.832031 -12.132812 5.40625 -12.148438 4.9375 -12.046875 C 4.300781 -11.898438 3.816406 -11.632812 3.484375 -11.25 C 3.148438 -10.875 3 -10.453125 3.03125 -9.984375 C 3.039062 -9.765625 3.148438 -9.585938 3.359375 -9.453125 C 3.566406 -9.328125 3.832031 -9.234375 4.15625 -9.171875 C 4.488281 -9.109375 4.851562 -9.066406 5.25 -9.046875 C 5.644531 -9.023438 6.039062 -9.007812 6.4375 -9 C 6.832031 -9 7.195312 -8.976562 7.53125 -8.9375 C 7.875 -8.90625 8.164062 -8.84375 8.40625 -8.75 Z M 8.40625 -8.75 "/></g></g></g><g fill="#000000" fill-opacity="1"><g transform="translate(261.467404, 101.258417)"><g><path d="M 5.589844 -9.457031 L 5.160156 -9.457031 L 5.160156 1.289062 L 5.589844 1.289062 Z M 5.589844 -9.457031 "/></g></g></g><g fill="#000000" fill-opacity="1"><g transform="translate(272.041624, 101.258417)"><g><path d="M 5.566406 -1.761719 C 5.019531 -1.289062 4.6875 -1.140625 4.351562 -1.140625 C 3.816406 -1.140625 3.535156 -1.527344 3.535156 -2.300781 C 3.535156 -3.136719 3.835938 -3.824219 4.214844 -4.34375 C 4.589844 -4.859375 5.039062 -5.0625 5.40625 -5.0625 C 5.664062 -5.0625 5.898438 -4.953125 6.117188 -4.664062 Z M 7.0625 -5.394531 L 6.867188 -5.546875 L 6.234375 -5.222656 C 5.988281 -5.460938 5.75 -5.546875 5.460938 -5.546875 C 4.847656 -5.546875 4.222656 -5.191406 3.707031 -4.558594 C 3.171875 -3.921875 2.742188 -3.042969 2.742188 -2.0625 C 2.742188 -0.96875 3.34375 -0.515625 4 -0.515625 C 4.601562 -0.515625 5.136719 -0.902344 5.621094 -1.460938 C 5.71875 -0.925781 6.125 -0.515625 6.824219 -0.515625 C 7.855469 -0.515625 9.414062 -1.515625 9.414062 -3.835938 C 9.414062 -6.0625 7.996094 -7.628906 5.597656 -7.628906 C 2.65625 -7.628906 0.417969 -5.320312 0.417969 -2.398438 C 0.417969 0.410156 2.320312 1.828125 4.675781 1.828125 C 5.417969 1.828125 6.234375 1.664062 6.933594 1.320312 L 6.8125 1.03125 C 6.246094 1.289062 5.652344 1.441406 4.867188 1.441406 C 2.804688 1.441406 1 0.128906 1 -2.492188 C 1 -4.976562 2.859375 -7.234375 5.546875 -7.234375 C 7.425781 -7.234375 8.867188 -5.964844 8.867188 -3.945312 C 8.867188 -1.890625 7.835938 -0.976562 7.007812 -0.976562 C 6.46875 -0.976562 6.246094 -1.3125 6.375 -1.957031 Z M 7.0625 -5.394531 "/></g></g></g><g fill="#000000" fill-opacity="1"><g transform="translate(281.702411, 101.258417)"><g><path d="M 0.472656 -4.601562 L 0.582031 -4.246094 L 10.007812 -4.246094 C 10.179688 -4.246094 10.308594 -4.289062 10.339844 -4.417969 C 9.824219 -4.902344 8.984375 -5.597656 8.984375 -5.597656 L 8.242188 -4.601562 Z M 0.472656 -4.601562 "/></g></g></g><g fill="#000000" fill-opacity="1"><g transform="translate(292.276631, 101.258417)"><g><path d="M 7.382812 -5.835938 C 7.371094 -2.171875 7.371094 -0.527344 4.601562 0.65625 L 4.71875 0.859375 C 8.039062 -0.183594 8.019531 -2 8.105469 -5.332031 C 8.351562 -5.332031 8.46875 -5.425781 8.511719 -5.566406 Z M 7.898438 -1.675781 C 8.511719 -1.074219 9.285156 -0.0742188 9.5 0.730469 C 10.394531 1.320312 10.960938 -0.625 8.007812 -1.761719 Z M 3.246094 -4.953125 L 3.246094 -6.363281 L 4.160156 -6.363281 L 4.160156 -4.953125 Z M 1.601562 -6.363281 L 2.546875 -6.363281 L 2.546875 -4.953125 L 1.601562 -4.953125 Z M 2.546875 -8.070312 L 2.546875 -6.675781 L 1.601562 -6.675781 L 1.601562 -8.070312 Z M 4.160156 -8.070312 L 4.160156 -6.675781 L 3.246094 -6.675781 L 3.246094 -8.070312 Z M 8.867188 -8.285156 L 5.351562 -8.285156 L 5.375 -8.148438 L 4.472656 -8.835938 L 4.050781 -8.382812 L 1.730469 -8.382812 L 0.847656 -8.757812 L 0.847656 -4.179688 L 0.96875 -4.179688 C 1.34375 -4.179688 1.601562 -4.363281 1.601562 -4.429688 L 1.601562 -4.644531 L 2.527344 -4.644531 L 2.527344 -3.566406 L 0.367188 -3.566406 L 0.441406 -3.257812 L 2.105469 -3.257812 C 1.742188 -2.011719 1.128906 -0.796875 0.257812 0.109375 L 0.375 0.257812 C 1.289062 -0.410156 2.019531 -1.214844 2.527344 -2.160156 L 2.527344 0.859375 L 2.65625 0.859375 C 3.042969 0.859375 3.289062 0.667969 3.300781 0.613281 L 3.300781 -2.742188 C 3.730469 -2.171875 4.171875 -1.429688 4.277344 -0.828125 C 5.09375 -0.195312 5.761719 -1.890625 3.300781 -3.042969 L 3.300781 -3.257812 L 5.253906 -3.257812 C 5.394531 -3.257812 5.503906 -3.308594 5.535156 -3.429688 C 5.203125 -3.761719 4.644531 -4.214844 4.644531 -4.214844 L 4.160156 -3.566406 L 3.300781 -3.566406 L 3.300781 -4.644531 L 4.160156 -4.644531 L 4.160156 -4.308594 L 4.277344 -4.308594 C 4.535156 -4.308594 4.910156 -4.480469 4.921875 -4.558594 L 4.921875 -7.921875 C 5.148438 -7.964844 5.308594 -8.0625 5.382812 -8.148438 L 5.425781 -7.976562 L 7.308594 -7.976562 C 7.277344 -7.5 7.222656 -6.890625 7.167969 -6.492188 L 6.535156 -6.492188 L 5.683594 -6.855469 L 5.683594 -1.71875 L 5.8125 -1.71875 C 6.148438 -1.71875 6.480469 -1.902344 6.480469 -1.988281 L 6.480469 -6.167969 L 8.964844 -6.167969 L 8.964844 -1.828125 L 9.09375 -1.828125 C 9.351562 -1.828125 9.738281 -2.011719 9.746094 -2.074219 L 9.746094 -6.074219 C 9.929688 -6.105469 10.082031 -6.179688 10.144531 -6.253906 L 9.273438 -6.910156 L 8.867188 -6.492188 L 7.492188 -6.492188 C 7.75 -6.890625 8.050781 -7.46875 8.285156 -7.976562 L 10.144531 -7.976562 C 10.296875 -7.976562 10.402344 -8.027344 10.4375 -8.148438 C 10.050781 -8.5 9.414062 -8.984375 9.414062 -8.984375 Z M 8.867188 -8.285156 "/></g></g></g><g fill="#000000" fill-opacity="1"><g transform="translate(302.850851, 101.258417)"><g><path d="M 3.203125 -7.652344 L 3.203125 -6.78125 L 3.332031 -6.78125 C 3.695312 -6.78125 4.03125 -6.890625 4.03125 -6.964844 L 4.03125 -7.652344 L 6.632812 -7.652344 L 6.632812 -6.824219 L 6.769531 -6.824219 C 7.179688 -6.824219 7.46875 -6.953125 7.46875 -7.019531 L 7.46875 -7.652344 L 10.027344 -7.652344 C 10.167969 -7.652344 10.273438 -7.707031 10.296875 -7.824219 C 9.953125 -8.15625 9.339844 -8.628906 9.339844 -8.628906 L 8.800781 -7.964844 L 7.46875 -7.964844 L 7.46875 -8.664062 C 7.75 -8.707031 7.835938 -8.800781 7.855469 -8.953125 L 6.632812 -9.070312 L 6.632812 -7.964844 L 4.03125 -7.964844 L 4.03125 -8.664062 C 4.300781 -8.707031 4.394531 -8.800781 4.417969 -8.953125 L 3.203125 -9.070312 L 3.203125 -7.964844 L 0.429688 -7.964844 L 0.503906 -7.652344 Z M 9.46875 -3.117188 L 9.039062 -2.675781 L 7.886719 -2.675781 C 7.910156 -2.945312 7.933594 -3.214844 7.941406 -3.480469 C 8.15625 -3.515625 8.253906 -3.609375 8.277344 -3.75 L 7.394531 -3.824219 C 7.738281 -3.859375 8.007812 -3.933594 8.199219 -4.0625 C 8.609375 -4.320312 8.835938 -4.953125 8.953125 -5.867188 C 9.15625 -5.890625 9.285156 -5.933594 9.351562 -6.019531 L 8.492188 -6.726562 L 8.039062 -6.277344 L 5.546875 -6.277344 C 5.609375 -6.492188 5.652344 -6.71875 5.683594 -6.941406 C 5.910156 -6.953125 6.039062 -7.027344 6.074219 -7.199219 L 4.804688 -7.363281 C 4.792969 -6.984375 4.738281 -6.621094 4.644531 -6.277344 L 1.535156 -6.277344 L 1.632812 -5.964844 L 4.535156 -5.964844 C 4.117188 -4.933594 3.117188 -4.117188 0.914062 -3.601562 L 0.976562 -3.4375 C 1.527344 -3.523438 2.019531 -3.632812 2.449219 -3.761719 C 2.441406 -3.394531 2.441406 -3.03125 2.40625 -2.675781 L 0.613281 -2.675781 L 0.710938 -2.363281 L 2.375 -2.363281 C 2.226562 -1.234375 1.792969 -0.160156 0.367188 0.730469 L 0.496094 0.890625 C 2.472656 0.0234375 3 -1.171875 3.179688 -2.363281 L 4.351562 -2.363281 C 4.277344 -1 4.128906 -0.3125 3.921875 -0.140625 C 3.847656 -0.0742188 3.78125 -0.0546875 3.632812 -0.0546875 C 3.449219 -0.0546875 3.007812 -0.0976562 2.742188 -0.109375 L 2.730469 0.0664062 C 3.007812 0.117188 3.234375 0.183594 3.34375 0.300781 C 3.460938 0.417969 3.480469 0.589844 3.480469 0.804688 C 3.867188 0.804688 4.203125 0.730469 4.460938 0.527344 C 4.847656 0.226562 5.050781 -0.546875 5.148438 -2.269531 C 5.351562 -2.289062 5.480469 -2.34375 5.554688 -2.429688 L 4.707031 -3.117188 L 4.265625 -2.675781 L 3.214844 -2.675781 C 3.246094 -2.933594 3.265625 -3.191406 3.277344 -3.4375 C 3.503906 -3.472656 3.601562 -3.578125 3.621094 -3.71875 L 2.601562 -3.804688 C 4.257812 -4.308594 5.050781 -5.050781 5.425781 -5.964844 L 8.105469 -5.964844 C 8.007812 -5.332031 7.867188 -4.847656 7.695312 -4.738281 C 7.609375 -4.6875 7.511719 -4.664062 7.308594 -4.664062 C 7.082031 -4.664062 6.179688 -4.730469 5.683594 -4.773438 L 5.675781 -4.601562 C 6.136719 -4.535156 6.621094 -4.4375 6.804688 -4.308594 C 6.976562 -4.179688 7.019531 -4.019531 7.019531 -3.804688 L 7.09375 -3.804688 C 7.09375 -3.417969 7.082031 -3.042969 7.050781 -2.675781 L 5.492188 -2.675781 L 5.589844 -2.363281 L 7.019531 -2.363281 C 6.878906 -1.203125 6.425781 -0.160156 4.890625 0.699219 L 5.03125 0.859375 C 7.125 0.0234375 7.671875 -1.128906 7.84375 -2.363281 L 9.125 -2.363281 C 9.058594 -1.03125 8.929688 -0.324219 8.75 -0.152344 C 8.671875 -0.0859375 8.585938 -0.0664062 8.425781 -0.0664062 C 8.242188 -0.0664062 7.75 -0.109375 7.457031 -0.128906 L 7.449219 0.0429688 C 7.75 0.109375 8.019531 0.195312 8.136719 0.3125 C 8.253906 0.429688 8.285156 0.632812 8.285156 0.859375 C 8.683594 0.859375 9.027344 0.761719 9.265625 0.558594 C 9.671875 0.257812 9.855469 -0.570312 9.929688 -2.269531 C 10.144531 -2.289062 10.265625 -2.34375 10.339844 -2.429688 Z M 9.46875 -3.117188 "/></g></g></g><g fill="#000000" fill-opacity="1"><g transform="translate(313.425071, 101.258417)"><g><path d="M 2.988281 -6.222656 L 4.417969 -6.222656 C 4.566406 -6.222656 4.664062 -6.277344 4.695312 -6.394531 C 4.363281 -6.738281 3.792969 -7.210938 3.792969 -7.210938 L 3.300781 -6.546875 L 2.988281 -6.546875 L 2.988281 -8.597656 C 3.265625 -8.640625 3.351562 -8.738281 3.386719 -8.898438 L 2.148438 -9.039062 L 2.148438 -6.546875 L 0.484375 -6.546875 L 0.570312 -6.222656 L 2.019531 -6.222656 C 1.71875 -4.609375 1.183594 -2.988281 0.332031 -1.773438 L 0.472656 -1.644531 C 1.171875 -2.332031 1.71875 -3.117188 2.148438 -4 L 2.148438 0.847656 L 2.320312 0.847656 C 2.644531 0.847656 2.988281 0.667969 2.988281 0.558594 L 2.988281 -4.621094 C 3.308594 -4.160156 3.652344 -3.523438 3.738281 -3.03125 C 4.480469 -2.40625 5.246094 -3.890625 2.988281 -4.847656 Z M 8.457031 -4.492188 C 8.167969 -3.535156 7.714844 -2.675781 7.105469 -1.914062 C 6.425781 -2.578125 5.890625 -3.429688 5.554688 -4.492188 Z M 8.972656 -5.332031 L 8.425781 -4.804688 L 7.480469 -4.804688 L 7.480469 -6.75 L 10.101562 -6.75 C 10.242188 -6.75 10.351562 -6.804688 10.371094 -6.921875 C 9.996094 -7.277344 9.359375 -7.792969 9.359375 -7.792969 L 8.800781 -7.0625 L 7.480469 -7.0625 L 7.480469 -8.578125 C 7.75 -8.621094 7.855469 -8.726562 7.878906 -8.878906 L 6.640625 -9.007812 L 6.640625 -7.0625 L 4.265625 -7.0625 L 4.351562 -6.75 L 6.640625 -6.75 L 6.640625 -4.804688 L 4.394531 -4.804688 L 4.492188 -4.492188 L 5.289062 -4.492188 C 5.589844 -3.265625 6.0625 -2.246094 6.675781 -1.417969 C 5.8125 -0.527344 4.6875 0.203125 3.289062 0.710938 L 3.375 0.871094 C 4.933594 0.472656 6.148438 -0.128906 7.082031 -0.902344 C 7.8125 -0.0976562 8.714844 0.496094 9.769531 0.871094 C 9.832031 0.460938 10.09375 0.152344 10.5 0 L 10.511719 -0.128906 C 9.445312 -0.375 8.480469 -0.796875 7.652344 -1.429688 C 8.457031 -2.257812 9.027344 -3.246094 9.425781 -4.34375 C 9.683594 -4.363281 9.800781 -4.394531 9.886719 -4.492188 Z M 8.972656 -5.332031 "/></g></g></g><g fill="#000000" fill-opacity="1"><g transform="translate(323.999291, 101.258417)"><g><path d="M 2.921875 -7.179688 L 2.921875 -2.828125 L 1.589844 -2.828125 L 1.589844 -7.179688 Z M 2.921875 -2.527344 L 2.921875 -1.535156 L 3.042969 -1.535156 C 3.34375 -1.535156 3.730469 -1.742188 3.738281 -1.816406 L 3.738281 -7.027344 C 3.957031 -7.070312 4.117188 -7.167969 4.191406 -7.253906 L 3.257812 -7.984375 L 2.816406 -7.5 L 1.644531 -7.5 L 0.773438 -7.886719 L 0.773438 -0.945312 L 0.902344 -0.945312 C 1.269531 -0.945312 1.589844 -1.148438 1.589844 -1.246094 L 1.589844 -2.527344 Z M 10.101562 -4.160156 C 10.242188 -4.160156 10.359375 -4.214844 10.394531 -4.332031 C 9.996094 -4.707031 9.339844 -5.234375 9.339844 -5.234375 L 8.769531 -4.472656 L 7.253906 -4.472656 L 7.253906 -6.425781 L 9.738281 -6.425781 C 9.886719 -6.425781 9.996094 -6.480469 10.027344 -6.597656 C 9.628906 -6.964844 8.984375 -7.492188 8.984375 -7.492188 L 8.40625 -6.75 L 7.253906 -6.75 L 7.253906 -8.492188 C 7.535156 -8.535156 7.609375 -8.640625 7.640625 -8.792969 L 6.375 -8.921875 L 6.375 -6.75 L 4.136719 -6.75 L 4.222656 -6.425781 L 6.375 -6.425781 L 6.375 -4.472656 L 3.910156 -4.472656 L 4 -4.160156 L 5.988281 -4.160156 C 5.339844 -2.460938 4.117188 -0.890625 2.386719 0.128906 L 2.492188 0.28125 C 4.214844 -0.472656 5.511719 -1.535156 6.375 -2.878906 L 6.375 0.847656 L 6.554688 0.847656 C 6.890625 0.847656 7.253906 0.65625 7.253906 0.558594 L 7.253906 -4.03125 C 7.769531 -2.234375 8.628906 -0.804688 9.746094 0.0742188 C 9.875 -0.355469 10.167969 -0.613281 10.5 -0.667969 L 10.523438 -0.785156 C 9.308594 -1.40625 8.105469 -2.675781 7.449219 -4.160156 Z M 10.101562 -4.160156 "/></g></g></g><g fill="#000000" fill-opacity="1"><g transform="translate(334.573511, 101.258417)"><g><path d="M 1.183594 -8.800781 C 1.707031 -8.449219 2.363281 -7.8125 2.601562 -7.277344 C 3.546875 -6.78125 4.03125 -8.628906 1.269531 -8.886719 Z M 0.34375 -6.40625 C 0.839844 -6.082031 1.441406 -5.480469 1.644531 -4.988281 C 2.570312 -4.503906 3.03125 -6.289062 0.429688 -6.492188 Z M 3.804688 -7.4375 C 1.6875 -2.828125 1.6875 -2.828125 1.472656 -2.429688 C 1.355469 -2.214844 1.3125 -2.203125 1.171875 -2.203125 L 0.699219 -2.203125 L 0.699219 -1.976562 C 0.925781 -1.957031 1.085938 -1.921875 1.234375 -1.816406 C 1.484375 -1.65625 1.546875 -0.773438 1.375 0.34375 C 1.417969 0.699219 1.578125 0.882812 1.792969 0.882812 C 2.214844 0.882812 2.460938 0.582031 2.484375 0.0976562 C 2.527344 -0.804688 2.171875 -1.257812 2.160156 -1.761719 C 2.160156 -2.042969 2.234375 -2.40625 2.34375 -2.75 C 2.515625 -3.320312 3.480469 -5.964844 3.988281 -7.394531 Z M 9.457031 -5.460938 L 8.972656 -4.964844 L 5.308594 -4.964844 C 6.417969 -5.75 8.027344 -6.996094 8.84375 -7.683594 C 9.136719 -7.671875 9.394531 -7.714844 9.488281 -7.84375 L 8.566406 -8.726562 L 8.09375 -8.253906 L 4.191406 -8.253906 L 4.289062 -7.941406 L 7.867188 -7.941406 C 6.984375 -7.179688 5.503906 -6.074219 4.472656 -5.351562 C 4.214844 -5.320312 3.921875 -5.253906 3.75 -5.191406 L 4.492188 -4.332031 L 4.976562 -4.652344 L 5.75 -4.652344 C 5.203125 -3.257812 4.265625 -1.988281 2.921875 -1.085938 L 3.03125 -0.925781 C 4.773438 -1.804688 5.996094 -3.050781 6.652344 -4.652344 L 7.457031 -4.652344 C 6.976562 -2.492188 5.847656 -0.773438 3.707031 0.367188 L 3.804688 0.527344 C 6.4375 -0.582031 7.8125 -2.289062 8.394531 -4.652344 L 9.070312 -4.652344 C 8.910156 -2.160156 8.578125 -0.601562 8.191406 -0.28125 C 8.0625 -0.171875 7.964844 -0.140625 7.769531 -0.140625 C 7.535156 -0.140625 6.867188 -0.203125 6.460938 -0.238281 L 6.449219 -0.0546875 C 6.835938 0.0117188 7.210938 0.128906 7.351562 0.269531 C 7.492188 0.375 7.535156 0.613281 7.535156 0.859375 C 8.027344 0.859375 8.457031 0.742188 8.792969 0.441406 C 9.359375 -0.0742188 9.746094 -1.664062 9.910156 -4.523438 C 10.136719 -4.558594 10.285156 -4.609375 10.359375 -4.695312 Z M 9.457031 -5.460938 "/></g></g></g><g fill="#000000" fill-opacity="1"><g transform="translate(345.147731, 101.258417)"><g><path d="M 6.578125 -6.921875 L 6.578125 -5.824219 L 4.09375 -5.824219 L 4.09375 -6.921875 Z M 4.09375 -5.503906 L 6.578125 -5.503906 L 6.578125 -5.191406 L 6.695312 -5.191406 C 6.953125 -5.191406 7.308594 -5.363281 7.320312 -5.425781 L 7.320312 -6.804688 C 7.511719 -6.847656 7.671875 -6.933594 7.726562 -7.007812 L 6.878906 -7.640625 L 6.480469 -7.234375 L 4.148438 -7.234375 L 3.351562 -7.578125 L 3.351562 -5.125 L 3.472656 -5.125 C 3.761719 -5.125 4.09375 -5.277344 4.09375 -5.339844 Z M 3.6875 -4.34375 L 6.941406 -4.34375 L 6.941406 -1.964844 L 7.0625 -1.964844 C 7.320312 -1.964844 7.707031 -2.140625 7.714844 -2.214844 L 7.714844 -4.257812 C 7.878906 -4.289062 8.019531 -4.363281 8.070312 -4.429688 L 7.242188 -5.050781 L 6.855469 -4.652344 L 3.738281 -4.652344 L 2.933594 -5.019531 L 2.933594 -1.707031 L 3.050781 -1.707031 C 3.351562 -1.707031 3.6875 -1.871094 3.6875 -1.933594 Z M 4.921875 -3.902344 C 4.890625 -2.515625 4.867188 -1.460938 2.472656 -0.6875 L 2.578125 -0.515625 C 5.503906 -1.191406 5.621094 -2.269531 5.707031 -3.535156 C 5.921875 -3.566406 6.007812 -3.664062 6.03125 -3.78125 Z M 5.4375 -1.890625 C 6.425781 -1.535156 7.09375 -1.085938 7.4375 -0.65625 C 8.105469 -0.0546875 9.265625 -1.601562 5.492188 -2.0625 Z M 1.988281 -0.238281 L 1.988281 -8.105469 L 8.671875 -8.105469 L 8.671875 -0.238281 Z M 9.027344 -8.929688 L 8.566406 -8.414062 L 2.074219 -8.414062 L 1.148438 -8.835938 L 1.148438 0.882812 L 1.300781 0.882812 C 1.664062 0.882812 1.988281 0.65625 1.988281 0.546875 L 1.988281 0.0742188 L 8.671875 0.0742188 L 8.671875 0.796875 L 8.800781 0.796875 C 9.101562 0.796875 9.523438 0.570312 9.53125 0.484375 L 9.53125 -7.941406 C 9.746094 -7.996094 9.921875 -8.070312 9.996094 -8.167969 Z M 9.027344 -8.929688 "/></g></g></g><g fill="#000000" fill-opacity="1"><g transform="translate(355.721951, 101.258417)"><g><path d="M 5.589844 -9.457031 L 5.160156 -9.457031 L 5.160156 1.289062 L 5.589844 1.289062 Z M 5.589844 -9.457031 "/></g></g></g><g fill="#393536" fill-opacity="1"><g transform="translate(261.149798, 101.010279)"><g><path d="M 5.589844 -9.457031 L 5.160156 -9.457031 L 5.160156 1.289062 L 5.589844 1.289062 Z M 5.589844 -9.457031 "/></g></g></g><g fill="#393536" fill-opacity="1"><g transform="translate(271.724018, 101.010279)"><g><path d="M 5.566406 -1.761719 C 5.019531 -1.289062 4.6875 -1.140625 4.351562 -1.140625 C 3.816406 -1.140625 3.535156 -1.527344 3.535156 -2.300781 C 3.535156 -3.136719 3.835938 -3.824219 4.214844 -4.34375 C 4.589844 -4.859375 5.039062 -5.0625 5.40625 -5.0625 C 5.664062 -5.0625 5.898438 -4.953125 6.117188 -4.664062 Z M 7.0625 -5.394531 L 6.867188 -5.546875 L 6.234375 -5.222656 C 5.988281 -5.460938 5.75 -5.546875 5.460938 -5.546875 C 4.847656 -5.546875 4.222656 -5.191406 3.707031 -4.558594 C 3.171875 -3.921875 2.742188 -3.042969 2.742188 -2.0625 C 2.742188 -0.96875 3.34375 -0.515625 4 -0.515625 C 4.601562 -0.515625 5.136719 -0.902344 5.621094 -1.460938 C 5.71875 -0.925781 6.125 -0.515625 6.824219 -0.515625 C 7.855469 -0.515625 9.414062 -1.515625 9.414062 -3.835938 C 9.414062 -6.0625 7.996094 -7.628906 5.597656 -7.628906 C 2.65625 -7.628906 0.417969 -5.320312 0.417969 -2.398438 C 0.417969 0.410156 2.320312 1.828125 4.675781 1.828125 C 5.417969 1.828125 6.234375 1.664062 6.933594 1.320312 L 6.8125 1.03125 C 6.246094 1.289062 5.652344 1.441406 4.867188 1.441406 C 2.804688 1.441406 1 0.128906 1 -2.492188 C 1 -4.976562 2.859375 -7.234375 5.546875 -7.234375 C 7.425781 -7.234375 8.867188 -5.964844 8.867188 -3.945312 C 8.867188 -1.890625 7.835938 -0.976562 7.007812 -0.976562 C 6.46875 -0.976562 6.246094 -1.3125 6.375 -1.957031 Z M 7.0625 -5.394531 "/></g></g></g><g fill="#393536" fill-opacity="1"><g transform="translate(281.384805, 101.010279)"><g><path d="M 0.472656 -4.601562 L 0.582031 -4.246094 L 10.007812 -4.246094 C 10.179688 -4.246094 10.308594 -4.289062 10.339844 -4.417969 C 9.824219 -4.902344 8.984375 -5.597656 8.984375 -5.597656 L 8.242188 -4.601562 Z M 0.472656 -4.601562 "/></g></g></g><g fill="#393536" fill-opacity="1"><g transform="translate(291.959025, 101.010279)"><g><path d="M 7.382812 -5.835938 C 7.371094 -2.171875 7.371094 -0.527344 4.601562 0.65625 L 4.71875 0.859375 C 8.039062 -0.183594 8.019531 -2 8.105469 -5.332031 C 8.351562 -5.332031 8.46875 -5.425781 8.511719 -5.566406 Z M 7.898438 -1.675781 C 8.511719 -1.074219 9.285156 -0.0742188 9.5 0.730469 C 10.394531 1.320312 10.960938 -0.625 8.007812 -1.761719 Z M 3.246094 -4.953125 L 3.246094 -6.363281 L 4.160156 -6.363281 L 4.160156 -4.953125 Z M 1.601562 -6.363281 L 2.546875 -6.363281 L 2.546875 -4.953125 L 1.601562 -4.953125 Z M 2.546875 -8.070312 L 2.546875 -6.675781 L 1.601562 -6.675781 L 1.601562 -8.070312 Z M 4.160156 -8.070312 L 4.160156 -6.675781 L 3.246094 -6.675781 L 3.246094 -8.070312 Z M 8.867188 -8.285156 L 5.351562 -8.285156 L 5.375 -8.148438 L 4.472656 -8.835938 L 4.050781 -8.382812 L 1.730469 -8.382812 L 0.847656 -8.757812 L 0.847656 -4.179688 L 0.96875 -4.179688 C 1.34375 -4.179688 1.601562 -4.363281 1.601562 -4.429688 L 1.601562 -4.644531 L 2.527344 -4.644531 L 2.527344 -3.566406 L 0.367188 -3.566406 L 0.441406 -3.257812 L 2.105469 -3.257812 C 1.742188 -2.011719 1.128906 -0.796875 0.257812 0.109375 L 0.375 0.257812 C 1.289062 -0.410156 2.019531 -1.214844 2.527344 -2.160156 L 2.527344 0.859375 L 2.65625 0.859375 C 3.042969 0.859375 3.289062 0.667969 3.300781 0.613281 L 3.300781 -2.742188 C 3.730469 -2.171875 4.171875 -1.429688 4.277344 -0.828125 C 5.09375 -0.195312 5.761719 -1.890625 3.300781 -3.042969 L 3.300781 -3.257812 L 5.253906 -3.257812 C 5.394531 -3.257812 5.503906 -3.308594 5.535156 -3.429688 C 5.203125 -3.761719 4.644531 -4.214844 4.644531 -4.214844 L 4.160156 -3.566406 L 3.300781 -3.566406 L 3.300781 -4.644531 L 4.160156 -4.644531 L 4.160156 -4.308594 L 4.277344 -4.308594 C 4.535156 -4.308594 4.910156 -4.480469 4.921875 -4.558594 L 4.921875 -7.921875 C 5.148438 -7.964844 5.308594 -8.0625 5.382812 -8.148438 L 5.425781 -7.976562 L 7.308594 -7.976562 C 7.277344 -7.5 7.222656 -6.890625 7.167969 -6.492188 L 6.535156 -6.492188 L 5.683594 -6.855469 L 5.683594 -1.71875 L 5.8125 -1.71875 C 6.148438 -1.71875 6.480469 -1.902344 6.480469 -1.988281 L 6.480469 -6.167969 L 8.964844 -6.167969 L 8.964844 -1.828125 L 9.09375 -1.828125 C 9.351562 -1.828125 9.738281 -2.011719 9.746094 -2.074219 L 9.746094 -6.074219 C 9.929688 -6.105469 10.082031 -6.179688 10.144531 -6.253906 L 9.273438 -6.910156 L 8.867188 -6.492188 L 7.492188 -6.492188 C 7.75 -6.890625 8.050781 -7.46875 8.285156 -7.976562 L 10.144531 -7.976562 C 10.296875 -7.976562 10.402344 -8.027344 10.4375 -8.148438 C 10.050781 -8.5 9.414062 -8.984375 9.414062 -8.984375 Z M 8.867188 -8.285156 "/></g></g></g><g fill="#393536" fill-opacity="1"><g transform="translate(302.533245, 101.010279)"><g><path d="M 3.203125 -7.652344 L 3.203125 -6.78125 L 3.332031 -6.78125 C 3.695312 -6.78125 4.03125 -6.890625 4.03125 -6.964844 L 4.03125 -7.652344 L 6.632812 -7.652344 L 6.632812 -6.824219 L 6.769531 -6.824219 C 7.179688 -6.824219 7.46875 -6.953125 7.46875 -7.019531 L 7.46875 -7.652344 L 10.027344 -7.652344 C 10.167969 -7.652344 10.273438 -7.707031 10.296875 -7.824219 C 9.953125 -8.15625 9.339844 -8.628906 9.339844 -8.628906 L 8.800781 -7.964844 L 7.46875 -7.964844 L 7.46875 -8.664062 C 7.75 -8.707031 7.835938 -8.800781 7.855469 -8.953125 L 6.632812 -9.070312 L 6.632812 -7.964844 L 4.03125 -7.964844 L 4.03125 -8.664062 C 4.300781 -8.707031 4.394531 -8.800781 4.417969 -8.953125 L 3.203125 -9.070312 L 3.203125 -7.964844 L 0.429688 -7.964844 L 0.503906 -7.652344 Z M 9.46875 -3.117188 L 9.039062 -2.675781 L 7.886719 -2.675781 C 7.910156 -2.945312 7.933594 -3.214844 7.941406 -3.480469 C 8.15625 -3.515625 8.253906 -3.609375 8.277344 -3.75 L 7.394531 -3.824219 C 7.738281 -3.859375 8.007812 -3.933594 8.199219 -4.0625 C 8.609375 -4.320312 8.835938 -4.953125 8.953125 -5.867188 C 9.15625 -5.890625 9.285156 -5.933594 9.351562 -6.019531 L 8.492188 -6.726562 L 8.039062 -6.277344 L 5.546875 -6.277344 C 5.609375 -6.492188 5.652344 -6.71875 5.683594 -6.941406 C 5.910156 -6.953125 6.039062 -7.027344 6.074219 -7.199219 L 4.804688 -7.363281 C 4.792969 -6.984375 4.738281 -6.621094 4.644531 -6.277344 L 1.535156 -6.277344 L 1.632812 -5.964844 L 4.535156 -5.964844 C 4.117188 -4.933594 3.117188 -4.117188 0.914062 -3.601562 L 0.976562 -3.4375 C 1.527344 -3.523438 2.019531 -3.632812 2.449219 -3.761719 C 2.441406 -3.394531 2.441406 -3.03125 2.40625 -2.675781 L 0.613281 -2.675781 L 0.710938 -2.363281 L 2.375 -2.363281 C 2.226562 -1.234375 1.792969 -0.160156 0.367188 0.730469 L 0.496094 0.890625 C 2.472656 0.0234375 3 -1.171875 3.179688 -2.363281 L 4.351562 -2.363281 C 4.277344 -1 4.128906 -0.3125 3.921875 -0.140625 C 3.847656 -0.0742188 3.78125 -0.0546875 3.632812 -0.0546875 C 3.449219 -0.0546875 3.007812 -0.0976562 2.742188 -0.109375 L 2.730469 0.0664062 C 3.007812 0.117188 3.234375 0.183594 3.34375 0.300781 C 3.460938 0.417969 3.480469 0.589844 3.480469 0.804688 C 3.867188 0.804688 4.203125 0.730469 4.460938 0.527344 C 4.847656 0.226562 5.050781 -0.546875 5.148438 -2.269531 C 5.351562 -2.289062 5.480469 -2.34375 5.554688 -2.429688 L 4.707031 -3.117188 L 4.265625 -2.675781 L 3.214844 -2.675781 C 3.246094 -2.933594 3.265625 -3.191406 3.277344 -3.4375 C 3.503906 -3.472656 3.601562 -3.578125 3.621094 -3.71875 L 2.601562 -3.804688 C 4.257812 -4.308594 5.050781 -5.050781 5.425781 -5.964844 L 8.105469 -5.964844 C 8.007812 -5.332031 7.867188 -4.847656 7.695312 -4.738281 C 7.609375 -4.6875 7.511719 -4.664062 7.308594 -4.664062 C 7.082031 -4.664062 6.179688 -4.730469 5.683594 -4.773438 L 5.675781 -4.601562 C 6.136719 -4.535156 6.621094 -4.4375 6.804688 -4.308594 C 6.976562 -4.179688 7.019531 -4.019531 7.019531 -3.804688 L 7.09375 -3.804688 C 7.09375 -3.417969 7.082031 -3.042969 7.050781 -2.675781 L 5.492188 -2.675781 L 5.589844 -2.363281 L 7.019531 -2.363281 C 6.878906 -1.203125 6.425781 -0.160156 4.890625 0.699219 L 5.03125 0.859375 C 7.125 0.0234375 7.671875 -1.128906 7.84375 -2.363281 L 9.125 -2.363281 C 9.058594 -1.03125 8.929688 -0.324219 8.75 -0.152344 C 8.671875 -0.0859375 8.585938 -0.0664062 8.425781 -0.0664062 C 8.242188 -0.0664062 7.75 -0.109375 7.457031 -0.128906 L 7.449219 0.0429688 C 7.75 0.109375 8.019531 0.195312 8.136719 0.3125 C 8.253906 0.429688 8.285156 0.632812 8.285156 0.859375 C 8.683594 0.859375 9.027344 0.761719 9.265625 0.558594 C 9.671875 0.257812 9.855469 -0.570312 9.929688 -2.269531 C 10.144531 -2.289062 10.265625 -2.34375 10.339844 -2.429688 Z M 9.46875 -3.117188 "/></g></g></g><g fill="#393536" fill-opacity="1"><g transform="translate(313.107465, 101.010279)"><g><path d="M 2.988281 -6.222656 L 4.417969 -6.222656 C 4.566406 -6.222656 4.664062 -6.277344 4.695312 -6.394531 C 4.363281 -6.738281 3.792969 -7.210938 3.792969 -7.210938 L 3.300781 -6.546875 L 2.988281 -6.546875 L 2.988281 -8.597656 C 3.265625 -8.640625 3.351562 -8.738281 3.386719 -8.898438 L 2.148438 -9.039062 L 2.148438 -6.546875 L 0.484375 -6.546875 L 0.570312 -6.222656 L 2.019531 -6.222656 C 1.71875 -4.609375 1.183594 -2.988281 0.332031 -1.773438 L 0.472656 -1.644531 C 1.171875 -2.332031 1.71875 -3.117188 2.148438 -4 L 2.148438 0.847656 L 2.320312 0.847656 C 2.644531 0.847656 2.988281 0.667969 2.988281 0.558594 L 2.988281 -4.621094 C 3.308594 -4.160156 3.652344 -3.523438 3.738281 -3.03125 C 4.480469 -2.40625 5.246094 -3.890625 2.988281 -4.847656 Z M 8.457031 -4.492188 C 8.167969 -3.535156 7.714844 -2.675781 7.105469 -1.914062 C 6.425781 -2.578125 5.890625 -3.429688 5.554688 -4.492188 Z M 8.972656 -5.332031 L 8.425781 -4.804688 L 7.480469 -4.804688 L 7.480469 -6.75 L 10.101562 -6.75 C 10.242188 -6.75 10.351562 -6.804688 10.371094 -6.921875 C 9.996094 -7.277344 9.359375 -7.792969 9.359375 -7.792969 L 8.800781 -7.0625 L 7.480469 -7.0625 L 7.480469 -8.578125 C 7.75 -8.621094 7.855469 -8.726562 7.878906 -8.878906 L 6.640625 -9.007812 L 6.640625 -7.0625 L 4.265625 -7.0625 L 4.351562 -6.75 L 6.640625 -6.75 L 6.640625 -4.804688 L 4.394531 -4.804688 L 4.492188 -4.492188 L 5.289062 -4.492188 C 5.589844 -3.265625 6.0625 -2.246094 6.675781 -1.417969 C 5.8125 -0.527344 4.6875 0.203125 3.289062 0.710938 L 3.375 0.871094 C 4.933594 0.472656 6.148438 -0.128906 7.082031 -0.902344 C 7.8125 -0.0976562 8.714844 0.496094 9.769531 0.871094 C 9.832031 0.460938 10.09375 0.152344 10.5 0 L 10.511719 -0.128906 C 9.445312 -0.375 8.480469 -0.796875 7.652344 -1.429688 C 8.457031 -2.257812 9.027344 -3.246094 9.425781 -4.34375 C 9.683594 -4.363281 9.800781 -4.394531 9.886719 -4.492188 Z M 8.972656 -5.332031 "/></g></g></g><g fill="#393536" fill-opacity="1"><g transform="translate(323.681685, 101.010279)"><g><path d="M 2.921875 -7.179688 L 2.921875 -2.828125 L 1.589844 -2.828125 L 1.589844 -7.179688 Z M 2.921875 -2.527344 L 2.921875 -1.535156 L 3.042969 -1.535156 C 3.34375 -1.535156 3.730469 -1.742188 3.738281 -1.816406 L 3.738281 -7.027344 C 3.957031 -7.070312 4.117188 -7.167969 4.191406 -7.253906 L 3.257812 -7.984375 L 2.816406 -7.5 L 1.644531 -7.5 L 0.773438 -7.886719 L 0.773438 -0.945312 L 0.902344 -0.945312 C 1.269531 -0.945312 1.589844 -1.148438 1.589844 -1.246094 L 1.589844 -2.527344 Z M 10.101562 -4.160156 C 10.242188 -4.160156 10.359375 -4.214844 10.394531 -4.332031 C 9.996094 -4.707031 9.339844 -5.234375 9.339844 -5.234375 L 8.769531 -4.472656 L 7.253906 -4.472656 L 7.253906 -6.425781 L 9.738281 -6.425781 C 9.886719 -6.425781 9.996094 -6.480469 10.027344 -6.597656 C 9.628906 -6.964844 8.984375 -7.492188 8.984375 -7.492188 L 8.40625 -6.75 L 7.253906 -6.75 L 7.253906 -8.492188 C 7.535156 -8.535156 7.609375 -8.640625 7.640625 -8.792969 L 6.375 -8.921875 L 6.375 -6.75 L 4.136719 -6.75 L 4.222656 -6.425781 L 6.375 -6.425781 L 6.375 -4.472656 L 3.910156 -4.472656 L 4 -4.160156 L 5.988281 -4.160156 C 5.339844 -2.460938 4.117188 -0.890625 2.386719 0.128906 L 2.492188 0.28125 C 4.214844 -0.472656 5.511719 -1.535156 6.375 -2.878906 L 6.375 0.847656 L 6.554688 0.847656 C 6.890625 0.847656 7.253906 0.65625 7.253906 0.558594 L 7.253906 -4.03125 C 7.769531 -2.234375 8.628906 -0.804688 9.746094 0.0742188 C 9.875 -0.355469 10.167969 -0.613281 10.5 -0.667969 L 10.523438 -0.785156 C 9.308594 -1.40625 8.105469 -2.675781 7.449219 -4.160156 Z M 10.101562 -4.160156 "/></g></g></g><g fill="#393536" fill-opacity="1"><g transform="translate(334.255905, 101.010279)"><g><path d="M 1.183594 -8.800781 C 1.707031 -8.449219 2.363281 -7.8125 2.601562 -7.277344 C 3.546875 -6.78125 4.03125 -8.628906 1.269531 -8.886719 Z M 0.34375 -6.40625 C 0.839844 -6.082031 1.441406 -5.480469 1.644531 -4.988281 C 2.570312 -4.503906 3.03125 -6.289062 0.429688 -6.492188 Z M 3.804688 -7.4375 C 1.6875 -2.828125 1.6875 -2.828125 1.472656 -2.429688 C 1.355469 -2.214844 1.3125 -2.203125 1.171875 -2.203125 L 0.699219 -2.203125 L 0.699219 -1.976562 C 0.925781 -1.957031 1.085938 -1.921875 1.234375 -1.816406 C 1.484375 -1.65625 1.546875 -0.773438 1.375 0.34375 C 1.417969 0.699219 1.578125 0.882812 1.792969 0.882812 C 2.214844 0.882812 2.460938 0.582031 2.484375 0.0976562 C 2.527344 -0.804688 2.171875 -1.257812 2.160156 -1.761719 C 2.160156 -2.042969 2.234375 -2.40625 2.34375 -2.75 C 2.515625 -3.320312 3.480469 -5.964844 3.988281 -7.394531 Z M 9.457031 -5.460938 L 8.972656 -4.964844 L 5.308594 -4.964844 C 6.417969 -5.75 8.027344 -6.996094 8.84375 -7.683594 C 9.136719 -7.671875 9.394531 -7.714844 9.488281 -7.84375 L 8.566406 -8.726562 L 8.09375 -8.253906 L 4.191406 -8.253906 L 4.289062 -7.941406 L 7.867188 -7.941406 C 6.984375 -7.179688 5.503906 -6.074219 4.472656 -5.351562 C 4.214844 -5.320312 3.921875 -5.253906 3.75 -5.191406 L 4.492188 -4.332031 L 4.976562 -4.652344 L 5.75 -4.652344 C 5.203125 -3.257812 4.265625 -1.988281 2.921875 -1.085938 L 3.03125 -0.925781 C 4.773438 -1.804688 5.996094 -3.050781 6.652344 -4.652344 L 7.457031 -4.652344 C 6.976562 -2.492188 5.847656 -0.773438 3.707031 0.367188 L 3.804688 0.527344 C 6.4375 -0.582031 7.8125 -2.289062 8.394531 -4.652344 L 9.070312 -4.652344 C 8.910156 -2.160156 8.578125 -0.601562 8.191406 -0.28125 C 8.0625 -0.171875 7.964844 -0.140625 7.769531 -0.140625 C 7.535156 -0.140625 6.867188 -0.203125 6.460938 -0.238281 L 6.449219 -0.0546875 C 6.835938 0.0117188 7.210938 0.128906 7.351562 0.269531 C 7.492188 0.375 7.535156 0.613281 7.535156 0.859375 C 8.027344 0.859375 8.457031 0.742188 8.792969 0.441406 C 9.359375 -0.0742188 9.746094 -1.664062 9.910156 -4.523438 C 10.136719 -4.558594 10.285156 -4.609375 10.359375 -4.695312 Z M 9.457031 -5.460938 "/></g></g></g><g fill="#393536" fill-opacity="1"><g transform="translate(344.830125, 101.010279)"><g><path d="M 6.578125 -6.921875 L 6.578125 -5.824219 L 4.09375 -5.824219 L 4.09375 -6.921875 Z M 4.09375 -5.503906 L 6.578125 -5.503906 L 6.578125 -5.191406 L 6.695312 -5.191406 C 6.953125 -5.191406 7.308594 -5.363281 7.320312 -5.425781 L 7.320312 -6.804688 C 7.511719 -6.847656 7.671875 -6.933594 7.726562 -7.007812 L 6.878906 -7.640625 L 6.480469 -7.234375 L 4.148438 -7.234375 L 3.351562 -7.578125 L 3.351562 -5.125 L 3.472656 -5.125 C 3.761719 -5.125 4.09375 -5.277344 4.09375 -5.339844 Z M 3.6875 -4.34375 L 6.941406 -4.34375 L 6.941406 -1.964844 L 7.0625 -1.964844 C 7.320312 -1.964844 7.707031 -2.140625 7.714844 -2.214844 L 7.714844 -4.257812 C 7.878906 -4.289062 8.019531 -4.363281 8.070312 -4.429688 L 7.242188 -5.050781 L 6.855469 -4.652344 L 3.738281 -4.652344 L 2.933594 -5.019531 L 2.933594 -1.707031 L 3.050781 -1.707031 C 3.351562 -1.707031 3.6875 -1.871094 3.6875 -1.933594 Z M 4.921875 -3.902344 C 4.890625 -2.515625 4.867188 -1.460938 2.472656 -0.6875 L 2.578125 -0.515625 C 5.503906 -1.191406 5.621094 -2.269531 5.707031 -3.535156 C 5.921875 -3.566406 6.007812 -3.664062 6.03125 -3.78125 Z M 5.4375 -1.890625 C 6.425781 -1.535156 7.09375 -1.085938 7.4375 -0.65625 C 8.105469 -0.0546875 9.265625 -1.601562 5.492188 -2.0625 Z M 1.988281 -0.238281 L 1.988281 -8.105469 L 8.671875 -8.105469 L 8.671875 -0.238281 Z M 9.027344 -8.929688 L 8.566406 -8.414062 L 2.074219 -8.414062 L 1.148438 -8.835938 L 1.148438 0.882812 L 1.300781 0.882812 C 1.664062 0.882812 1.988281 0.65625 1.988281 0.546875 L 1.988281 0.0742188 L 8.671875 0.0742188 L 8.671875 0.796875 L 8.800781 0.796875 C 9.101562 0.796875 9.523438 0.570312 9.53125 0.484375 L 9.53125 -7.941406 C 9.746094 -7.996094 9.921875 -8.070312 9.996094 -8.167969 Z M 9.027344 -8.929688 "/></g></g></g><g fill="#393536" fill-opacity="1"><g transform="translate(355.404345, 101.010279)"><g><path d="M 5.589844 -9.457031 L 5.160156 -9.457031 L 5.160156 1.289062 L 5.589844 1.289062 Z M 5.589844 -9.457031 "/></g></g></g><g fill="#000000" fill-opacity="1"><g transform="translate(271.340842, 108.811538)"><g><path d="M 1.375 -2.035156 C 1.070312 -2.175781 0.90625 -2.335938 0.90625 -2.636719 C 0.90625 -2.960938 1.148438 -3.152344 1.527344 -3.152344 C 1.636719 -3.152344 1.722656 -3.140625 1.808594 -3.101562 L 2.03125 -2.378906 L 2.28125 -2.378906 L 2.320312 -3.085938 C 2.082031 -3.242188 1.777344 -3.335938 1.4375 -3.335938 C 0.730469 -3.335938 0.257812 -3 0.257812 -2.414062 C 0.257812 -1.890625 0.566406 -1.601562 1.148438 -1.339844 L 1.355469 -1.246094 C 1.703125 -1.09375 1.832031 -0.9375 1.832031 -0.644531 C 1.832031 -0.304688 1.589844 -0.101562 1.160156 -0.101562 C 0.996094 -0.101562 0.863281 -0.117188 0.734375 -0.164062 L 0.503906 -0.921875 L 0.253906 -0.921875 L 0.222656 -0.175781 C 0.484375 -0.00390625 0.878906 0.0859375 1.234375 0.0859375 C 2.050781 0.0859375 2.492188 -0.308594 2.492188 -0.886719 C 2.492188 -1.378906 2.253906 -1.640625 1.605469 -1.929688 Z M 1.375 -2.035156 "/></g></g></g><g fill="#000000" fill-opacity="1"><g transform="translate(277.275618, 108.811538)"><g><path d="M 0.957031 -1.625 C 0.957031 -2.511719 1.195312 -3.167969 1.730469 -3.167969 C 2.261719 -3.167969 2.503906 -2.511719 2.503906 -1.625 C 2.503906 -0.730469 2.261719 -0.078125 1.730469 -0.078125 C 1.195312 -0.078125 0.957031 -0.730469 0.957031 -1.625 Z M 1.730469 -3.335938 C 0.917969 -3.335938 0.1875 -2.746094 0.1875 -1.625 C 0.1875 -0.492188 0.914062 0.0859375 1.730469 0.0859375 C 2.550781 0.0859375 3.269531 -0.496094 3.269531 -1.625 C 3.269531 -2.753906 2.546875 -3.335938 1.730469 -3.335938 Z M 1.730469 -3.335938 "/></g></g></g><g fill="#000000" fill-opacity="1"><g transform="translate(284.006047, 108.811538)"><g><path d="M 4.230469 -3.101562 L 4.230469 -3.246094 L 3.082031 -3.246094 L 2.222656 -0.9375 L 1.335938 -3.246094 L 0.136719 -3.246094 L 0.136719 -3.101562 L 0.59375 -3.042969 L 0.578125 -0.207031 L 0.101562 -0.148438 L 0.101562 0 L 1.273438 0 L 1.273438 -0.148438 L 0.792969 -0.214844 L 0.792969 -1.507812 C 0.792969 -1.785156 0.78125 -2.347656 0.773438 -2.800781 L 1.84375 0 L 2.074219 0 L 3.113281 -2.820312 L 3.09375 -1.421875 C 3.085938 -1.070312 3.09375 -0.628906 3.082031 -0.1875 L 2.699219 -0.148438 L 2.699219 0 L 4.226562 0 L 4.226562 -0.148438 L 3.839844 -0.1875 C 3.824219 -0.621094 3.824219 -1.074219 3.824219 -1.527344 L 3.824219 -1.71875 C 3.824219 -2.167969 3.824219 -2.617188 3.839844 -3.066406 Z M 4.230469 -3.101562 "/></g></g></g><g fill="#000000" fill-opacity="1"><g transform="translate(291.688654, 108.811538)"><g><path d="M 2.746094 -0.898438 L 2.503906 -0.898438 L 2.304688 -0.167969 L 1.324219 -0.167969 C 1.316406 -0.621094 1.316406 -1.082031 1.316406 -1.566406 L 1.316406 -1.578125 L 1.914062 -1.578125 L 1.972656 -1.117188 L 2.191406 -1.117188 L 2.191406 -2.21875 L 1.972656 -2.21875 L 1.910156 -1.734375 L 1.316406 -1.734375 C 1.316406 -2.195312 1.316406 -2.644531 1.324219 -3.078125 L 2.207031 -3.078125 L 2.410156 -2.382812 L 2.660156 -2.382812 L 2.664062 -3.246094 L 0.179688 -3.246094 L 0.179688 -3.101562 L 0.570312 -3.066406 C 0.582031 -2.617188 0.582031 -2.167969 0.582031 -1.71875 L 0.582031 -1.527344 C 0.582031 -1.074219 0.582031 -0.625 0.570312 -0.1875 L 0.179688 -0.148438 L 0.179688 0 L 2.757812 0 Z M 2.746094 -0.898438 "/></g></g></g><g fill="#000000" fill-opacity="1"><g transform="translate(297.892994, 108.811538)"><g><path d="M 2.53125 -3.078125 L 2.753906 -2.316406 L 3.003906 -2.316406 L 2.988281 -3.246094 L 0.117188 -3.246094 L 0.101562 -2.316406 L 0.355469 -2.316406 L 0.574219 -3.078125 L 1.175781 -3.078125 C 1.183594 -2.628906 1.183594 -2.175781 1.183594 -1.71875 L 1.183594 -1.527344 C 1.183594 -1.074219 1.183594 -0.625 1.175781 -0.191406 L 0.734375 -0.148438 L 0.734375 0 L 2.371094 0 L 2.371094 -0.148438 L 1.925781 -0.191406 C 1.917969 -0.636719 1.917969 -1.085938 1.917969 -1.53125 L 1.917969 -1.71875 C 1.917969 -2.179688 1.917969 -2.628906 1.925781 -3.078125 Z M 2.53125 -3.078125 "/></g></g></g><g fill="#000000" fill-opacity="1"><g transform="translate(304.271245, 108.811538)"><g><path d="M 3.605469 -3.101562 L 3.605469 -3.246094 L 2.101562 -3.246094 L 2.101562 -3.101562 L 2.464844 -3.066406 C 2.476562 -2.625 2.476562 -2.179688 2.476562 -1.734375 L 1.308594 -1.734375 C 1.308594 -2.183594 1.308594 -2.628906 1.320312 -3.066406 L 1.683594 -3.101562 L 1.683594 -3.246094 L 0.179688 -3.246094 L 0.179688 -3.101562 L 0.566406 -3.0625 C 0.570312 -2.617188 0.570312 -2.167969 0.570312 -1.71875 L 0.570312 -1.527344 C 0.570312 -1.074219 0.570312 -0.625 0.566406 -0.1875 L 0.179688 -0.148438 L 0.179688 0 L 1.683594 0 L 1.683594 -0.148438 L 1.320312 -0.183594 C 1.308594 -0.625 1.308594 -1.078125 1.308594 -1.570312 L 2.476562 -1.570312 C 2.476562 -1.070312 2.476562 -0.617188 2.464844 -0.1875 L 2.101562 -0.148438 L 2.101562 0 L 3.605469 0 L 3.605469 -0.148438 L 3.222656 -0.1875 C 3.214844 -0.636719 3.214844 -1.082031 3.214844 -1.527344 L 3.214844 -1.71875 C 3.214844 -2.167969 3.214844 -2.621094 3.222656 -3.066406 Z M 3.605469 -3.101562 "/></g></g></g><g fill="#000000" fill-opacity="1"><g transform="translate(311.327761, 108.811538)"><g><path d="M 1.714844 -3.101562 L 1.714844 -3.246094 L 0.179688 -3.246094 L 0.179688 -3.101562 L 0.570312 -3.066406 C 0.582031 -2.617188 0.582031 -2.167969 0.582031 -1.71875 L 0.582031 -1.527344 C 0.582031 -1.074219 0.582031 -0.625 0.570312 -0.1875 L 0.179688 -0.148438 L 0.179688 0 L 1.714844 0 L 1.714844 -0.148438 L 1.324219 -0.1875 C 1.316406 -0.636719 1.316406 -1.082031 1.316406 -1.53125 L 1.316406 -1.71875 C 1.316406 -2.167969 1.316406 -2.621094 1.324219 -3.066406 Z M 1.714844 -3.101562 "/></g></g></g><g fill="#000000" fill-opacity="1"><g transform="translate(316.497319, 108.811538)"><g><path d="M 3.445312 -3.246094 L 2.242188 -3.246094 L 2.242188 -3.101562 L 2.820312 -3.039062 L 2.84375 -0.96875 L 1.195312 -3.246094 L 0.148438 -3.246094 L 0.148438 -3.101562 L 0.457031 -3.066406 L 0.539062 -2.945312 L 0.511719 -0.207031 L 0.113281 -0.148438 L 0.113281 0 L 1.320312 0 L 1.320312 -0.148438 L 0.738281 -0.214844 L 0.714844 -2.695312 L 2.628906 0.0078125 L 3.011719 0.0078125 L 3.042969 -3.042969 L 3.445312 -3.101562 Z M 3.445312 -3.246094 "/></g></g></g><g fill="#000000" fill-opacity="1"><g transform="translate(323.358184, 108.811538)"><g><path d="M 3.261719 -1.59375 L 1.808594 -1.59375 L 1.808594 -1.449219 L 2.273438 -1.390625 C 2.28125 -1.066406 2.285156 -0.757812 2.285156 -0.433594 L 2.285156 -0.109375 C 2.195312 -0.0859375 2.101562 -0.078125 2 -0.078125 C 1.417969 -0.078125 0.957031 -0.65625 0.957031 -1.625 C 0.957031 -2.667969 1.429688 -3.167969 2.042969 -3.167969 C 2.167969 -3.167969 2.273438 -3.152344 2.378906 -3.109375 L 2.605469 -2.304688 L 2.875 -2.304688 L 2.890625 -3.101562 C 2.621094 -3.253906 2.320312 -3.335938 1.949219 -3.335938 C 0.898438 -3.335938 0.1875 -2.683594 0.1875 -1.628906 C 0.1875 -0.550781 0.886719 0.0859375 1.917969 0.0859375 C 2.332031 0.0859375 2.640625 0 2.976562 -0.199219 L 2.976562 -0.414062 C 2.976562 -0.769531 2.984375 -1.09375 2.992188 -1.414062 L 3.261719 -1.449219 Z M 3.261719 -1.59375 "/></g></g></g><g fill="#000000" fill-opacity="1"><g transform="translate(329.962523, 108.811538)"><g><path d="M 0.738281 0.0703125 C 0.960938 0.0703125 1.140625 -0.105469 1.140625 -0.320312 C 1.140625 -0.535156 0.960938 -0.71875 0.738281 -0.71875 C 0.515625 -0.71875 0.339844 -0.535156 0.339844 -0.320312 C 0.339844 -0.105469 0.515625 0.0703125 0.738281 0.0703125 Z M 0.738281 0.0703125 "/></g></g></g><g fill="#000000" fill-opacity="1"><g transform="translate(334.714686, 108.811538)"><g><path d="M 1.496094 -3.082031 C 1.957031 -3.082031 2.207031 -2.8125 2.207031 -2.285156 C 2.207031 -1.800781 1.964844 -1.460938 1.460938 -1.460938 L 1.316406 -1.460938 L 1.316406 -1.71875 C 1.316406 -2.179688 1.316406 -2.636719 1.324219 -3.082031 Z M 1.484375 -1.300781 C 2.515625 -1.300781 2.886719 -1.738281 2.886719 -2.28125 C 2.886719 -2.894531 2.492188 -3.246094 1.503906 -3.246094 L 0.179688 -3.246094 L 0.179688 -3.101562 L 0.570312 -3.066406 C 0.582031 -2.617188 0.582031 -2.167969 0.582031 -1.71875 L 0.582031 -1.527344 C 0.582031 -1.074219 0.582031 -0.625 0.570312 -0.1875 L 0.179688 -0.148438 L 0.179688 0 L 1.792969 0 L 1.792969 -0.148438 L 1.324219 -0.195312 C 1.316406 -0.585938 1.316406 -0.972656 1.316406 -1.300781 Z M 1.484375 -1.300781 "/></g></g></g><g fill="#000000" fill-opacity="1"><g transform="translate(340.98859, 108.811538)"><g><path d="M 2.683594 -0.972656 L 2.449219 -0.972656 L 2.230469 -0.167969 L 1.324219 -0.167969 C 1.316406 -0.621094 1.316406 -1.074219 1.316406 -1.503906 L 1.316406 -1.785156 C 1.316406 -2.179688 1.316406 -2.621094 1.324219 -3.0625 L 1.753906 -3.101562 L 1.753906 -3.246094 L 0.179688 -3.246094 L 0.179688 -3.101562 L 0.570312 -3.066406 C 0.582031 -2.617188 0.582031 -2.167969 0.582031 -1.71875 L 0.582031 -1.410156 C 0.582031 -1.0625 0.582031 -0.621094 0.570312 -0.1875 L 0.183594 -0.148438 L 0.179688 0 L 2.691406 0 Z M 2.683594 -0.972656 "/></g></g></g><g fill="#000000" fill-opacity="1"><g transform="translate(347.09293, 108.811538)"><g><path d="M 3.488281 -3.246094 L 2.316406 -3.246094 L 2.316406 -3.101562 L 2.8125 -3.035156 L 2.832031 -1.375 C 2.839844 -0.585938 2.546875 -0.269531 2.042969 -0.269531 C 1.542969 -0.269531 1.273438 -0.5625 1.273438 -1.355469 L 1.273438 -1.765625 C 1.273438 -2.195312 1.273438 -2.636719 1.285156 -3.0625 L 1.703125 -3.101562 L 1.703125 -3.246094 L 0.15625 -3.246094 L 0.15625 -3.101562 L 0.53125 -3.066406 C 0.542969 -2.628906 0.542969 -2.191406 0.542969 -1.765625 L 0.542969 -1.292969 C 0.542969 -0.265625 1.066406 0.0859375 1.8125 0.0859375 C 2.582031 0.0859375 3.007812 -0.363281 3.023438 -1.363281 L 3.039062 -3.035156 L 3.488281 -3.101562 Z M 3.488281 -3.246094 "/></g></g></g><g fill="#000000" fill-opacity="1"><g transform="translate(353.971185, 108.811538)"><g><path d="M 1.375 -2.035156 C 1.070312 -2.175781 0.90625 -2.335938 0.90625 -2.636719 C 0.90625 -2.960938 1.148438 -3.152344 1.527344 -3.152344 C 1.636719 -3.152344 1.722656 -3.140625 1.808594 -3.101562 L 2.03125 -2.378906 L 2.28125 -2.378906 L 2.320312 -3.085938 C 2.082031 -3.242188 1.777344 -3.335938 1.4375 -3.335938 C 0.730469 -3.335938 0.257812 -3 0.257812 -2.414062 C 0.257812 -1.890625 0.566406 -1.601562 1.148438 -1.339844 L 1.355469 -1.246094 C 1.703125 -1.09375 1.832031 -0.9375 1.832031 -0.644531 C 1.832031 -0.304688 1.589844 -0.101562 1.160156 -0.101562 C 0.996094 -0.101562 0.863281 -0.117188 0.734375 -0.164062 L 0.503906 -0.921875 L 0.253906 -0.921875 L 0.222656 -0.175781 C 0.484375 -0.00390625 0.878906 0.0859375 1.234375 0.0859375 C 2.050781 0.0859375 2.492188 -0.308594 2.492188 -0.886719 C 2.492188 -1.378906 2.253906 -1.640625 1.605469 -1.929688 Z M 1.375 -2.035156 "/></g></g></g><g fill="#393536" fill-opacity="1"><g transform="translate(270.998919, 108.644766)"><g><path d="M 1.375 -2.035156 C 1.070312 -2.175781 0.90625 -2.335938 0.90625 -2.636719 C 0.90625 -2.960938 1.148438 -3.152344 1.527344 -3.152344 C 1.636719 -3.152344 1.722656 -3.140625 1.808594 -3.101562 L 2.03125 -2.378906 L 2.28125 -2.378906 L 2.320312 -3.085938 C 2.082031 -3.242188 1.777344 -3.335938 1.4375 -3.335938 C 0.730469 -3.335938 0.257812 -3 0.257812 -2.414062 C 0.257812 -1.890625 0.566406 -1.601562 1.148438 -1.339844 L 1.355469 -1.246094 C 1.703125 -1.09375 1.832031 -0.9375 1.832031 -0.644531 C 1.832031 -0.304688 1.589844 -0.101562 1.160156 -0.101562 C 0.996094 -0.101562 0.863281 -0.117188 0.734375 -0.164062 L 0.503906 -0.921875 L 0.253906 -0.921875 L 0.222656 -0.175781 C 0.484375 -0.00390625 0.878906 0.0859375 1.234375 0.0859375 C 2.050781 0.0859375 2.492188 -0.308594 2.492188 -0.886719 C 2.492188 -1.378906 2.253906 -1.640625 1.605469 -1.929688 Z M 1.375 -2.035156 "/></g></g></g><g fill="#393536" fill-opacity="1"><g transform="translate(276.933694, 108.644766)"><g><path d="M 0.957031 -1.625 C 0.957031 -2.511719 1.195312 -3.167969 1.730469 -3.167969 C 2.261719 -3.167969 2.503906 -2.511719 2.503906 -1.625 C 2.503906 -0.730469 2.261719 -0.078125 1.730469 -0.078125 C 1.195312 -0.078125 0.957031 -0.730469 0.957031 -1.625 Z M 1.730469 -3.335938 C 0.917969 -3.335938 0.1875 -2.746094 0.1875 -1.625 C 0.1875 -0.492188 0.914062 0.0859375 1.730469 0.0859375 C 2.550781 0.0859375 3.269531 -0.496094 3.269531 -1.625 C 3.269531 -2.753906 2.546875 -3.335938 1.730469 -3.335938 Z M 1.730469 -3.335938 "/></g></g></g><g fill="#393536" fill-opacity="1"><g transform="translate(283.664124, 108.644766)"><g><path d="M 4.230469 -3.101562 L 4.230469 -3.246094 L 3.082031 -3.246094 L 2.222656 -0.9375 L 1.335938 -3.246094 L 0.136719 -3.246094 L 0.136719 -3.101562 L 0.59375 -3.042969 L 0.578125 -0.207031 L 0.101562 -0.148438 L 0.101562 0 L 1.273438 0 L 1.273438 -0.148438 L 0.792969 -0.214844 L 0.792969 -1.507812 C 0.792969 -1.785156 0.78125 -2.347656 0.773438 -2.800781 L 1.84375 0 L 2.074219 0 L 3.113281 -2.820312 L 3.09375 -1.421875 C 3.085938 -1.070312 3.09375 -0.628906 3.082031 -0.1875 L 2.699219 -0.148438 L 2.699219 0 L 4.226562 0 L 4.226562 -0.148438 L 3.839844 -0.1875 C 3.824219 -0.621094 3.824219 -1.074219 3.824219 -1.527344 L 3.824219 -1.71875 C 3.824219 -2.167969 3.824219 -2.617188 3.839844 -3.066406 Z M 4.230469 -3.101562 "/></g></g></g><g fill="#393536" fill-opacity="1"><g transform="translate(291.34673, 108.644766)"><g><path d="M 2.746094 -0.898438 L 2.503906 -0.898438 L 2.304688 -0.167969 L 1.324219 -0.167969 C 1.316406 -0.621094 1.316406 -1.082031 1.316406 -1.566406 L 1.316406 -1.578125 L 1.914062 -1.578125 L 1.972656 -1.117188 L 2.191406 -1.117188 L 2.191406 -2.21875 L 1.972656 -2.21875 L 1.910156 -1.734375 L 1.316406 -1.734375 C 1.316406 -2.195312 1.316406 -2.644531 1.324219 -3.078125 L 2.207031 -3.078125 L 2.410156 -2.382812 L 2.660156 -2.382812 L 2.664062 -3.246094 L 0.179688 -3.246094 L 0.179688 -3.101562 L 0.570312 -3.066406 C 0.582031 -2.617188 0.582031 -2.167969 0.582031 -1.71875 L 0.582031 -1.527344 C 0.582031 -1.074219 0.582031 -0.625 0.570312 -0.1875 L 0.179688 -0.148438 L 0.179688 0 L 2.757812 0 Z M 2.746094 -0.898438 "/></g></g></g><g fill="#393536" fill-opacity="1"><g transform="translate(297.551071, 108.644766)"><g><path d="M 2.53125 -3.078125 L 2.753906 -2.316406 L 3.003906 -2.316406 L 2.988281 -3.246094 L 0.117188 -3.246094 L 0.101562 -2.316406 L 0.355469 -2.316406 L 0.574219 -3.078125 L 1.175781 -3.078125 C 1.183594 -2.628906 1.183594 -2.175781 1.183594 -1.71875 L 1.183594 -1.527344 C 1.183594 -1.074219 1.183594 -0.625 1.175781 -0.191406 L 0.734375 -0.148438 L 0.734375 0 L 2.371094 0 L 2.371094 -0.148438 L 1.925781 -0.191406 C 1.917969 -0.636719 1.917969 -1.085938 1.917969 -1.53125 L 1.917969 -1.71875 C 1.917969 -2.179688 1.917969 -2.628906 1.925781 -3.078125 Z M 2.53125 -3.078125 "/></g></g></g><g fill="#393536" fill-opacity="1"><g transform="translate(303.929321, 108.644766)"><g><path d="M 3.605469 -3.101562 L 3.605469 -3.246094 L 2.101562 -3.246094 L 2.101562 -3.101562 L 2.464844 -3.066406 C 2.476562 -2.625 2.476562 -2.179688 2.476562 -1.734375 L 1.308594 -1.734375 C 1.308594 -2.183594 1.308594 -2.628906 1.320312 -3.066406 L 1.683594 -3.101562 L 1.683594 -3.246094 L 0.179688 -3.246094 L 0.179688 -3.101562 L 0.566406 -3.0625 C 0.570312 -2.617188 0.570312 -2.167969 0.570312 -1.71875 L 0.570312 -1.527344 C 0.570312 -1.074219 0.570312 -0.625 0.566406 -0.1875 L 0.179688 -0.148438 L 0.179688 0 L 1.683594 0 L 1.683594 -0.148438 L 1.320312 -0.183594 C 1.308594 -0.625 1.308594 -1.078125 1.308594 -1.570312 L 2.476562 -1.570312 C 2.476562 -1.070312 2.476562 -0.617188 2.464844 -0.1875 L 2.101562 -0.148438 L 2.101562 0 L 3.605469 0 L 3.605469 -0.148438 L 3.222656 -0.1875 C 3.214844 -0.636719 3.214844 -1.082031 3.214844 -1.527344 L 3.214844 -1.71875 C 3.214844 -2.167969 3.214844 -2.621094 3.222656 -3.066406 Z M 3.605469 -3.101562 "/></g></g></g><g fill="#393536" fill-opacity="1"><g transform="translate(310.985838, 108.644766)"><g><path d="M 1.714844 -3.101562 L 1.714844 -3.246094 L 0.179688 -3.246094 L 0.179688 -3.101562 L 0.570312 -3.066406 C 0.582031 -2.617188 0.582031 -2.167969 0.582031 -1.71875 L 0.582031 -1.527344 C 0.582031 -1.074219 0.582031 -0.625 0.570312 -0.1875 L 0.179688 -0.148438 L 0.179688 0 L 1.714844 0 L 1.714844 -0.148438 L 1.324219 -0.1875 C 1.316406 -0.636719 1.316406 -1.082031 1.316406 -1.53125 L 1.316406 -1.71875 C 1.316406 -2.167969 1.316406 -2.621094 1.324219 -3.066406 Z M 1.714844 -3.101562 "/></g></g></g><g fill="#393536" fill-opacity="1"><g transform="translate(316.155396, 108.644766)"><g><path d="M 3.445312 -3.246094 L 2.242188 -3.246094 L 2.242188 -3.101562 L 2.820312 -3.039062 L 2.84375 -0.96875 L 1.195312 -3.246094 L 0.148438 -3.246094 L 0.148438 -3.101562 L 0.457031 -3.066406 L 0.539062 -2.945312 L 0.511719 -0.207031 L 0.113281 -0.148438 L 0.113281 0 L 1.320312 0 L 1.320312 -0.148438 L 0.738281 -0.214844 L 0.714844 -2.695312 L 2.628906 0.0078125 L 3.011719 0.0078125 L 3.042969 -3.042969 L 3.445312 -3.101562 Z M 3.445312 -3.246094 "/></g></g></g><g fill="#393536" fill-opacity="1"><g transform="translate(323.016261, 108.644766)"><g><path d="M 3.261719 -1.59375 L 1.808594 -1.59375 L 1.808594 -1.449219 L 2.273438 -1.390625 C 2.28125 -1.066406 2.285156 -0.757812 2.285156 -0.433594 L 2.285156 -0.109375 C 2.195312 -0.0859375 2.101562 -0.078125 2 -0.078125 C 1.417969 -0.078125 0.957031 -0.65625 0.957031 -1.625 C 0.957031 -2.667969 1.429688 -3.167969 2.042969 -3.167969 C 2.167969 -3.167969 2.273438 -3.152344 2.378906 -3.109375 L 2.605469 -2.304688 L 2.875 -2.304688 L 2.890625 -3.101562 C 2.621094 -3.253906 2.320312 -3.335938 1.949219 -3.335938 C 0.898438 -3.335938 0.1875 -2.683594 0.1875 -1.628906 C 0.1875 -0.550781 0.886719 0.0859375 1.917969 0.0859375 C 2.332031 0.0859375 2.640625 0 2.976562 -0.199219 L 2.976562 -0.414062 C 2.976562 -0.769531 2.984375 -1.09375 2.992188 -1.414062 L 3.261719 -1.449219 Z M 3.261719 -1.59375 "/></g></g></g><g fill="#393536" fill-opacity="1"><g transform="translate(329.6206, 108.644766)"><g><path d="M 0.738281 0.0703125 C 0.960938 0.0703125 1.140625 -0.105469 1.140625 -0.320312 C 1.140625 -0.535156 0.960938 -0.71875 0.738281 -0.71875 C 0.515625 -0.71875 0.339844 -0.535156 0.339844 -0.320312 C 0.339844 -0.105469 0.515625 0.0703125 0.738281 0.0703125 Z M 0.738281 0.0703125 "/></g></g></g><g fill="#393536" fill-opacity="1"><g transform="translate(334.372762, 108.644766)"><g><path d="M 1.496094 -3.082031 C 1.957031 -3.082031 2.207031 -2.8125 2.207031 -2.285156 C 2.207031 -1.800781 1.964844 -1.460938 1.460938 -1.460938 L 1.316406 -1.460938 L 1.316406 -1.71875 C 1.316406 -2.179688 1.316406 -2.636719 1.324219 -3.082031 Z M 1.484375 -1.300781 C 2.515625 -1.300781 2.886719 -1.738281 2.886719 -2.28125 C 2.886719 -2.894531 2.492188 -3.246094 1.503906 -3.246094 L 0.179688 -3.246094 L 0.179688 -3.101562 L 0.570312 -3.066406 C 0.582031 -2.617188 0.582031 -2.167969 0.582031 -1.71875 L 0.582031 -1.527344 C 0.582031 -1.074219 0.582031 -0.625 0.570312 -0.1875 L 0.179688 -0.148438 L 0.179688 0 L 1.792969 0 L 1.792969 -0.148438 L 1.324219 -0.195312 C 1.316406 -0.585938 1.316406 -0.972656 1.316406 -1.300781 Z M 1.484375 -1.300781 "/></g></g></g><g fill="#393536" fill-opacity="1"><g transform="translate(340.646667, 108.644766)"><g><path d="M 2.683594 -0.972656 L 2.449219 -0.972656 L 2.230469 -0.167969 L 1.324219 -0.167969 C 1.316406 -0.621094 1.316406 -1.074219 1.316406 -1.503906 L 1.316406 -1.785156 C 1.316406 -2.179688 1.316406 -2.621094 1.324219 -3.0625 L 1.753906 -3.101562 L 1.753906 -3.246094 L 0.179688 -3.246094 L 0.179688 -3.101562 L 0.570312 -3.066406 C 0.582031 -2.617188 0.582031 -2.167969 0.582031 -1.71875 L 0.582031 -1.410156 C 0.582031 -1.0625 0.582031 -0.621094 0.570312 -0.1875 L 0.183594 -0.148438 L 0.179688 0 L 2.691406 0 Z M 2.683594 -0.972656 "/></g></g></g><g fill="#393536" fill-opacity="1"><g transform="translate(346.751006, 108.644766)"><g><path d="M 3.488281 -3.246094 L 2.316406 -3.246094 L 2.316406 -3.101562 L 2.8125 -3.035156 L 2.832031 -1.375 C 2.839844 -0.585938 2.546875 -0.269531 2.042969 -0.269531 C 1.542969 -0.269531 1.273438 -0.5625 1.273438 -1.355469 L 1.273438 -1.765625 C 1.273438 -2.195312 1.273438 -2.636719 1.285156 -3.0625 L 1.703125 -3.101562 L 1.703125 -3.246094 L 0.15625 -3.246094 L 0.15625 -3.101562 L 0.53125 -3.066406 C 0.542969 -2.628906 0.542969 -2.191406 0.542969 -1.765625 L 0.542969 -1.292969 C 0.542969 -0.265625 1.066406 0.0859375 1.8125 0.0859375 C 2.582031 0.0859375 3.007812 -0.363281 3.023438 -1.363281 L 3.039062 -3.035156 L 3.488281 -3.101562 Z M 3.488281 -3.246094 "/></g></g></g><g fill="#393536" fill-opacity="1"><g transform="translate(353.629262, 108.644766)"><g><path d="M 1.375 -2.035156 C 1.070312 -2.175781 0.90625 -2.335938 0.90625 -2.636719 C 0.90625 -2.960938 1.148438 -3.152344 1.527344 -3.152344 C 1.636719 -3.152344 1.722656 -3.140625 1.808594 -3.101562 L 2.03125 -2.378906 L 2.28125 -2.378906 L 2.320312 -3.085938 C 2.082031 -3.242188 1.777344 -3.335938 1.4375 -3.335938 C 0.730469 -3.335938 0.257812 -3 0.257812 -2.414062 C 0.257812 -1.890625 0.566406 -1.601562 1.148438 -1.339844 L 1.355469 -1.246094 C 1.703125 -1.09375 1.832031 -0.9375 1.832031 -0.644531 C 1.832031 -0.304688 1.589844 -0.101562 1.160156 -0.101562 C 0.996094 -0.101562 0.863281 -0.117188 0.734375 -0.164062 L 0.503906 -0.921875 L 0.253906 -0.921875 L 0.222656 -0.175781 C 0.484375 -0.00390625 0.878906 0.0859375 1.234375 0.0859375 C 2.050781 0.0859375 2.492188 -0.308594 2.492188 -0.886719 C 2.492188 -1.378906 2.253906 -1.640625 1.605469 -1.929688 Z M 1.375 -2.035156 "/></g></g></g></svg>