<svg xmlns="http://www.w3.org/2000/svg" xmlns:xlink="http://www.w3.org/1999/xlink" width="500" zoomAndPan="magnify" viewBox="0 0 375 374.999991" height="500" preserveAspectRatio="xMidYMid meet" version="1.0"><defs><g/><clipPath id="id1"><path d="M 122 37.5 L 253 37.5 L 253 99 L 122 99 Z M 122 37.5 " clip-rule="nonzero"/></clipPath><clipPath id="id2"><path d="M 0 78 L 375 78 L 375 319.5 L 0 319.5 Z M 0 78 " clip-rule="nonzero"/></clipPath><clipPath id="id3"><path d="M 0 275 L 375 275 L 375 319.5 L 0 319.5 Z M 0 275 " clip-rule="nonzero"/></clipPath><clipPath id="id4"><path d="M 112 124 L 264 124 L 264 277 L 112 277 Z M 112 124 " clip-rule="nonzero"/></clipPath><clipPath id="id5"><path d="M 96.566406 143.003906 L 245.023438 109.226562 L 278.800781 257.683594 L 130.34375 291.460938 Z M 96.566406 143.003906 " clip-rule="nonzero"/></clipPath><clipPath id="id6"><path d="M 96.566406 143.003906 L 245.023438 109.226562 L 278.800781 257.683594 L 130.34375 291.460938 Z M 96.566406 143.003906 " clip-rule="nonzero"/></clipPath></defs><rect x="-37.5" width="450" fill="#000000" y="-37.499999" height="449.999989" fill-opacity="1"/><rect x="-37.5" width="450" fill="#ffffff" y="-37.499999" height="449.999989" fill-opacity="1"/><rect x="-37.5" width="450" fill="#000000" y="-37.499999" height="449.999989" fill-opacity="1"/><g clip-path="url(#id1)"><path fill="#ffffff" d="M 252.171875 95.175781 L 236.472656 39.652344 C 236.117188 38.40625 234.980469 37.546875 233.6875 37.546875 L 141.195312 37.546875 C 139.902344 37.546875 138.765625 38.40625 138.414062 39.652344 L 122.710938 95.175781 C 122.46875 96.046875 122.644531 96.984375 123.191406 97.707031 C 123.738281 98.429688 124.59375 98.851562 125.496094 98.851562 L 144.863281 98.851562 C 146.289062 96.632812 148.09375 94.667969 150.207031 93.070312 L 129.320312 93.070312 L 143.382812 43.328125 L 231.5 43.328125 L 245.5625 93.070312 L 217.644531 93.070312 C 222.023438 94.707031 226.289062 96.621094 230.378906 98.851562 L 249.386719 98.851562 C 250.292969 98.851562 251.144531 98.429688 251.691406 97.707031 C 252.238281 96.984375 252.414062 96.046875 252.171875 95.175781 " fill-opacity="1" fill-rule="nonzero"/></g><path fill="#ffffff" d="M 153.894531 71.800781 L 220.992188 71.800781 L 215.398438 53.824219 L 159.488281 53.824219 Z M 224.917969 77.582031 L 149.964844 77.582031 C 149.046875 77.582031 148.179688 77.144531 147.636719 76.40625 C 147.089844 75.664062 146.929688 74.707031 147.203125 73.832031 L 154.597656 50.074219 C 154.972656 48.863281 156.09375 48.042969 157.359375 48.042969 L 217.527344 48.042969 C 218.789062 48.042969 219.910156 48.863281 220.285156 50.074219 L 227.679688 73.832031 C 227.953125 74.707031 227.792969 75.664062 227.246094 76.40625 C 226.703125 77.144531 225.835938 77.582031 224.917969 77.582031 " fill-opacity="1" fill-rule="nonzero"/><path fill="#ffffff" d="M 19.886719 81.929688 C 20.003906 73.421875 26.804688 66.535156 35.15625 66.535156 L 61.21875 66.535156 C 69.582031 66.535156 76.382812 73.421875 76.5 81.929688 L 82.285156 81.929688 C 82.167969 70.234375 72.765625 60.753906 61.21875 60.753906 L 35.15625 60.753906 C 23.613281 60.753906 14.21875 70.234375 14.101562 81.929688 L 19.886719 81.929688 " fill-opacity="1" fill-rule="nonzero"/><g clip-path="url(#id2)"><path fill="#ffffff" d="M 372.023438 78.429688 L 244.621094 78.429688 L 244.621094 84.210938 L 369.128906 84.210938 L 369.128906 313.785156 L 5.757812 313.785156 L 5.757812 84.210938 L 128.921875 84.210938 L 128.921875 78.429688 L 2.863281 78.429688 C 1.265625 78.429688 -0.0273438 79.722656 -0.0273438 81.320312 L -0.0273438 316.675781 C -0.0273438 318.277344 1.265625 319.566406 2.863281 319.566406 L 372.023438 319.566406 C 373.617188 319.566406 374.914062 318.277344 374.914062 316.675781 L 374.914062 81.320312 C 374.914062 79.722656 373.617188 78.429688 372.023438 78.429688 " fill-opacity="1" fill-rule="nonzero"/></g><path fill="#ffffff" d="M 5.757812 84.210938 L 131.042969 84.210938 L 131.042969 78.429688 L 2.863281 78.429688 C 1.265625 78.429688 -0.0273438 79.722656 -0.0273438 81.320312 L -0.0273438 119.996094 C -0.0273438 121.589844 1.265625 122.886719 2.863281 122.886719 L 110.03125 122.886719 C 111.855469 120.554688 114.117188 118.585938 116.6875 117.105469 L 5.757812 117.105469 L 5.757812 84.210938 " fill-opacity="1" fill-rule="nonzero"/><path fill="#ffffff" d="M 372.023438 78.429688 L 243.847656 78.429688 L 243.847656 84.210938 L 369.128906 84.210938 L 369.128906 117.105469 L 263.828125 117.105469 C 265.105469 118.945312 266.167969 120.890625 266.992188 122.886719 L 372.023438 122.886719 C 373.617188 122.886719 374.914062 121.589844 374.914062 119.996094 L 374.914062 81.320312 C 374.914062 79.722656 373.617188 78.429688 372.023438 78.429688 " fill-opacity="1" fill-rule="nonzero"/><g clip-path="url(#id3)"><path fill="#ffffff" d="M 372.023438 275.113281 L 266.242188 275.113281 C 264.804688 276.816406 263.265625 278.425781 261.644531 279.949219 C 261.378906 280.261719 261.128906 280.585938 260.863281 280.894531 L 369.128906 280.894531 L 369.128906 313.785156 L 5.757812 313.785156 L 5.757812 280.894531 L 113.667969 280.894531 C 111.902344 279.070312 110.257812 277.144531 108.761719 275.113281 L 2.863281 275.113281 C 1.265625 275.113281 -0.0273438 276.410156 -0.0273438 278.003906 L -0.0273438 316.675781 C -0.0273438 318.277344 1.265625 319.566406 2.863281 319.566406 L 372.023438 319.566406 C 373.617188 319.566406 374.914062 318.277344 374.914062 316.675781 L 374.914062 278.003906 C 374.914062 276.410156 373.617188 275.113281 372.023438 275.113281 " fill-opacity="1" fill-rule="nonzero"/></g><path fill="#ffffff" d="M 187.445312 91.949219 C 129.464844 91.949219 82.300781 139.972656 82.300781 199 C 82.300781 258.03125 129.464844 306.050781 187.445312 306.050781 C 245.417969 306.050781 292.585938 258.03125 292.585938 199 C 292.585938 139.972656 245.417969 91.949219 187.445312 91.949219 Z M 187.445312 311.832031 C 126.273438 311.832031 76.515625 261.214844 76.515625 199 C 76.515625 136.78125 126.273438 86.167969 187.445312 86.167969 C 248.609375 86.167969 298.371094 136.78125 298.371094 199 C 298.371094 261.214844 248.609375 311.832031 187.445312 311.832031 " fill-opacity="1" fill-rule="nonzero"/><path fill="#ffffff" d="M 187.445312 117.363281 C 143.234375 117.363281 107.273438 153.984375 107.273438 199 C 107.273438 244.015625 143.234375 280.640625 187.445312 280.640625 C 231.648438 280.640625 267.613281 244.015625 267.613281 199 C 267.613281 153.984375 231.648438 117.363281 187.445312 117.363281 Z M 187.445312 286.421875 C 140.046875 286.421875 101.488281 247.207031 101.488281 199 C 101.488281 150.796875 140.046875 111.582031 187.445312 111.582031 C 234.839844 111.582031 273.398438 150.796875 273.398438 199 C 273.398438 247.207031 234.839844 286.421875 187.445312 286.421875 " fill-opacity="1" fill-rule="nonzero"/><path fill="#ffffff" d="M 29.460938 133.9375 C 24.175781 133.9375 19.871094 138.335938 19.871094 143.75 L 19.871094 254.246094 C 19.871094 259.660156 24.175781 264.066406 29.460938 264.066406 C 34.753906 264.066406 39.050781 259.660156 39.050781 254.246094 L 39.050781 143.75 C 39.050781 138.335938 34.753906 133.9375 29.460938 133.9375 Z M 29.460938 269.847656 C 20.984375 269.847656 14.085938 262.851562 14.085938 254.246094 L 14.085938 143.75 C 14.085938 135.152344 20.984375 128.15625 29.460938 128.15625 C 37.941406 128.15625 44.835938 135.152344 44.835938 143.75 L 44.835938 254.246094 C 44.835938 262.851562 37.941406 269.847656 29.460938 269.847656 " fill-opacity="1" fill-rule="nonzero"/><g clip-path="url(#id4)"><g clip-path="url(#id5)"><g clip-path="url(#id6)"><path fill="#ffffff" d="M 174.210938 141.128906 C 206.914062 133.6875 239.457031 154.167969 246.898438 186.871094 C 254.339844 219.574219 233.859375 252.121094 201.15625 259.5625 C 168.453125 267.003906 135.910156 246.523438 128.46875 213.820312 C 121.027344 181.113281 141.507812 148.570312 174.210938 141.128906 Z M 201.917969 262.910156 C 186.644531 266.382812 170.671875 264.167969 156.941406 256.667969 C 146.585938 251.011719 138.007812 242.652344 132.136719 232.496094 L 128.390625 234.664062 C 134.660156 245.503906 143.816406 254.425781 154.867188 260.464844 C 169.523438 268.46875 186.574219 270.835938 202.878906 267.128906 Z M 254.617188 214.957031 C 256.773438 205.09375 256.726562 195.066406 254.46875 185.148438 L 250.25 186.109375 C 252.363281 195.402344 252.410156 204.796875 250.390625 214.03125 C 246.449219 232.023438 234.980469 247.472656 218.925781 256.40625 L 221.035156 260.1875 C 238.167969 250.648438 250.410156 234.164062 254.617188 214.957031 Z M 229.675781 146.238281 C 215.15625 134.976562 197.167969 130.0625 179.023438 132.398438 C 176.839844 132.679688 174.640625 133.070312 172.488281 133.558594 L 173.449219 137.78125 C 175.46875 137.320312 177.53125 136.953125 179.574219 136.691406 C 196.570312 134.503906 213.421875 139.109375 227.023438 149.65625 Z M 135.886719 162.476562 L 132.390625 159.921875 C 120.691406 175.941406 116.503906 196.214844 120.898438 215.539062 L 125.121094 214.582031 C 121 196.472656 124.925781 177.484375 135.886719 162.476562 Z M 261.914062 183.457031 C 260.234375 176.078125 257.492188 169.035156 253.773438 162.527344 C 249.066406 154.296875 242.921875 147.09375 235.507812 141.113281 C 217.238281 126.382812 193.652344 120.917969 170.792969 126.117188 L 171.753906 130.335938 C 193.3125 125.433594 215.558594 130.589844 232.789062 144.484375 C 239.785156 150.125 245.578125 156.917969 250.015625 164.675781 C 253.523438 170.8125 256.109375 177.453125 257.691406 184.417969 C 259.398438 191.917969 259.898438 199.566406 259.179688 207.152344 L 263.488281 207.5625 C 264.25 199.515625 263.722656 191.40625 261.914062 183.457031 Z M 127.796875 160.742188 C 134.164062 151.109375 142.839844 143.078125 152.886719 137.523438 L 150.792969 133.734375 C 140.136719 139.628906 130.9375 148.144531 124.1875 158.359375 C 117.589844 168.335938 113.386719 179.859375 112.03125 191.6875 L 116.332031 192.179688 C 117.609375 181.027344 121.574219 170.15625 127.796875 160.742188 Z M 219.382812 269.570312 C 231.152344 264.195312 241.433594 255.804688 249.113281 245.308594 L 245.621094 242.753906 C 238.378906 252.652344 228.683594 260.566406 217.585938 265.632812 C 213.125 267.667969 208.425781 269.257812 203.613281 270.351562 C 191.65625 273.070312 179.164062 272.691406 167.480469 269.253906 C 155.074219 265.605469 143.863281 258.667969 135.054688 249.199219 C 126.488281 239.992188 120.480469 228.605469 117.675781 216.273438 L 113.457031 217.234375 C 116.429688 230.308594 122.800781 242.378906 131.882812 252.144531 C 141.21875 262.183594 153.105469 269.535156 166.257812 273.40625 C 178.648438 277.050781 191.898438 277.457031 204.570312 274.570312 C 209.671875 273.410156 214.652344 271.730469 219.382812 269.570312 Z M 219.382812 269.570312 " fill-opacity="1" fill-rule="nonzero"/></g></g></g><g fill="#000000" fill-opacity="1"><g transform="translate(134.470661, 207.653161)"><g><path d="M 8.40625 -8.75 C 8.925781 -8.550781 9.332031 -8.238281 9.625 -7.8125 C 9.925781 -7.394531 10.09375 -6.878906 10.125 -6.265625 C 10.164062 -5.671875 10.066406 -5.085938 9.828125 -4.515625 C 9.597656 -3.953125 9.242188 -3.410156 8.765625 -2.890625 C 8.335938 -2.421875 7.84375 -2.023438 7.28125 -1.703125 C 6.71875 -1.390625 6.109375 -1.15625 5.453125 -1 C 4.816406 -0.851562 4.207031 -0.804688 3.625 -0.859375 C 3.039062 -0.921875 2.503906 -1.082031 2.015625 -1.34375 C 1.316406 -1.695312 0.804688 -2.234375 0.484375 -2.953125 L 2.921875 -4.71875 C 2.941406 -4.59375 2.992188 -4.445312 3.078125 -4.28125 C 3.171875 -4.113281 3.316406 -3.960938 3.515625 -3.828125 C 3.710938 -3.703125 3.953125 -3.609375 4.234375 -3.546875 C 4.523438 -3.484375 4.878906 -3.503906 5.296875 -3.609375 C 5.972656 -3.753906 6.46875 -4.015625 6.78125 -4.390625 C 7.101562 -4.773438 7.257812 -5.132812 7.25 -5.46875 C 7.226562 -5.664062 7.144531 -5.835938 7 -5.984375 C 6.863281 -6.128906 6.671875 -6.21875 6.421875 -6.25 C 5.921875 -6.320312 5.398438 -6.351562 4.859375 -6.34375 C 4.328125 -6.34375 3.800781 -6.375 3.28125 -6.4375 C 2.769531 -6.5 2.296875 -6.628906 1.859375 -6.828125 C 1.429688 -7.023438 1.066406 -7.359375 0.765625 -7.828125 C 0.628906 -8.046875 0.523438 -8.269531 0.453125 -8.5 C 0.378906 -8.738281 0.335938 -8.992188 0.328125 -9.265625 C 0.285156 -9.847656 0.375 -10.445312 0.59375 -11.0625 C 0.820312 -11.675781 1.164062 -12.226562 1.625 -12.71875 C 2.050781 -13.164062 2.523438 -13.546875 3.046875 -13.859375 C 3.566406 -14.179688 4.128906 -14.414062 4.734375 -14.5625 C 5.335938 -14.695312 5.921875 -14.734375 6.484375 -14.671875 C 7.054688 -14.609375 7.578125 -14.453125 8.046875 -14.203125 C 8.503906 -13.953125 8.867188 -13.640625 9.140625 -13.265625 L 7.203125 -11.375 C 6.929688 -11.664062 6.601562 -11.875 6.21875 -12 C 5.832031 -12.132812 5.40625 -12.148438 4.9375 -12.046875 C 4.300781 -11.898438 3.816406 -11.632812 3.484375 -11.25 C 3.148438 -10.875 3 -10.453125 3.03125 -9.984375 C 3.039062 -9.765625 3.148438 -9.585938 3.359375 -9.453125 C 3.566406 -9.328125 3.832031 -9.234375 4.15625 -9.171875 C 4.488281 -9.109375 4.851562 -9.066406 5.25 -9.046875 C 5.644531 -9.023438 6.039062 -9.007812 6.4375 -9 C 6.832031 -9 7.195312 -8.976562 7.53125 -8.9375 C 7.875 -8.90625 8.164062 -8.84375 8.40625 -8.75 Z M 8.40625 -8.75 "/></g></g></g><g fill="#000000" fill-opacity="1"><g transform="translate(145.444276, 205.156377)"><g><path d="M 5.90625 -14.8125 C 6.75 -15.007812 7.566406 -15.015625 8.359375 -14.828125 C 9.148438 -14.648438 9.84375 -14.316406 10.4375 -13.828125 C 11.039062 -13.335938 11.535156 -12.722656 11.921875 -11.984375 C 12.316406 -11.242188 12.539062 -10.414062 12.59375 -9.5 C 12.644531 -8.582031 12.535156 -7.675781 12.265625 -6.78125 C 11.992188 -5.882812 11.59375 -5.0625 11.0625 -4.3125 C 10.539062 -3.570312 9.910156 -2.929688 9.171875 -2.390625 C 8.441406 -1.859375 7.648438 -1.492188 6.796875 -1.296875 C 5.941406 -1.109375 5.125 -1.109375 4.34375 -1.296875 C 3.5625 -1.492188 2.867188 -1.835938 2.265625 -2.328125 C 1.671875 -2.816406 1.179688 -3.429688 0.796875 -4.171875 C 0.421875 -4.921875 0.203125 -5.753906 0.140625 -6.671875 C 0.0859375 -7.585938 0.191406 -8.488281 0.453125 -9.375 C 0.722656 -10.269531 1.117188 -11.085938 1.640625 -11.828125 C 2.160156 -12.566406 2.785156 -13.203125 3.515625 -13.734375 C 4.242188 -14.265625 5.039062 -14.625 5.90625 -14.8125 Z M 6.609375 -4.078125 C 7.097656 -4.191406 7.550781 -4.398438 7.96875 -4.703125 C 8.382812 -5.015625 8.738281 -5.390625 9.03125 -5.828125 C 9.332031 -6.265625 9.5625 -6.742188 9.71875 -7.265625 C 9.875 -7.785156 9.925781 -8.328125 9.875 -8.890625 C 9.851562 -9.429688 9.734375 -9.925781 9.515625 -10.375 C 9.304688 -10.820312 9.023438 -11.1875 8.671875 -11.46875 C 8.328125 -11.757812 7.929688 -11.960938 7.484375 -12.078125 C 7.046875 -12.191406 6.582031 -12.191406 6.09375 -12.078125 C 5.601562 -11.972656 5.15625 -11.765625 4.75 -11.453125 C 4.34375 -11.148438 3.988281 -10.78125 3.6875 -10.34375 C 3.394531 -9.90625 3.171875 -9.421875 3.015625 -8.890625 C 2.867188 -8.359375 2.8125 -7.820312 2.84375 -7.28125 C 2.875 -6.71875 2.992188 -6.21875 3.203125 -5.78125 C 3.421875 -5.34375 3.703125 -4.976562 4.046875 -4.6875 C 4.390625 -4.40625 4.78125 -4.207031 5.21875 -4.09375 C 5.65625 -3.976562 6.117188 -3.972656 6.609375 -4.078125 Z M 6.609375 -4.078125 "/></g></g></g><g fill="#000000" fill-opacity="1"><g transform="translate(159.072225, 202.055662)"><g><path d="M 11.015625 -15.78125 L 13.5625 -16.359375 L 14.4375 -3.28125 L 11.765625 -2.671875 L 11.1875 -11.296875 L 8.453125 -6.25 L 6.296875 -5.75 L 2.96875 -9.328125 L 3.546875 -0.8125 L 0.84375 -0.1875 L -0.046875 -13.265625 L 2.515625 -13.859375 L 7.203125 -8.796875 Z M 11.015625 -15.78125 "/></g></g></g><g fill="#000000" fill-opacity="1"><g transform="translate(174.356902, 198.577999)"><g><path d="M -0.03125 -13.265625 L 7.859375 -15.0625 L 8.03125 -12.53125 L 2.859375 -11.34375 L 3.015625 -8.984375 L 7.578125 -10.015625 L 7.734375 -7.484375 L 3.1875 -6.4375 L 3.390625 -3.328125 L 8.578125 -4.515625 L 8.75 -1.984375 L 0.859375 -0.1875 Z M -0.03125 -13.265625 "/></g></g></g><g fill="#000000" fill-opacity="1"><g transform="translate(183.95881, 196.393313)"><g><path d="M -0.46875 -13.171875 L 8.671875 -15.25 L 8.84375 -12.703125 L 5.609375 -11.96875 L 6.328125 -1.4375 L 3.625 -0.828125 L 2.921875 -11.359375 L -0.296875 -10.625 Z M -0.46875 -13.171875 "/></g></g></g><g fill="#000000" fill-opacity="1"><g transform="translate(193.91701, 194.127563)"><g><path d="M 8.421875 -15.203125 L 11.140625 -15.8125 L 12.015625 -2.734375 L 9.3125 -2.125 L 8.9375 -7.75 L 3.15625 -6.4375 L 3.515625 -0.796875 L 0.84375 -0.1875 L -0.046875 -13.265625 L 2.640625 -13.875 L 2.96875 -8.96875 L 8.765625 -10.296875 Z M 8.421875 -15.203125 "/></g></g></g><g fill="#000000" fill-opacity="1"><g transform="translate(206.778946, 191.201136)"><g><path d="M 4.546875 -14.3125 L 4.703125 -11.953125 L 3.765625 -11.734375 L 4.328125 -3.359375 L 5.28125 -3.5625 L 5.4375 -1.234375 L 0.84375 -0.1875 L 0.671875 -2.515625 L 1.625 -2.734375 L 1.046875 -11.125 L 0.109375 -10.90625 L -0.046875 -13.265625 Z M 4.546875 -14.3125 "/></g></g></g><g fill="#000000" fill-opacity="1"><g transform="translate(213.031767, 189.778456)"><g><path d="M 8.59375 -15.234375 L 11.28125 -15.84375 L 12.15625 -2.765625 L 9.59375 -2.1875 L 2.953125 -9.34375 L 3.515625 -0.796875 L 0.84375 -0.1875 L -0.046875 -13.265625 L 2.484375 -13.84375 L 9.15625 -6.640625 Z M 8.59375 -15.234375 "/></g></g></g><g fill="#000000" fill-opacity="1"><g transform="translate(226.036213, 186.819604)"><g><path d="M 6.59375 -9.015625 L 11.359375 -10.09375 L 11.671875 -5.296875 C 11.023438 -4.203125 10.28125 -3.3125 9.4375 -2.625 C 8.601562 -1.945312 7.710938 -1.503906 6.765625 -1.296875 C 5.910156 -1.097656 5.09375 -1.097656 4.3125 -1.296875 C 3.539062 -1.492188 2.847656 -1.832031 2.234375 -2.3125 C 1.628906 -2.800781 1.140625 -3.414062 0.765625 -4.15625 C 0.398438 -4.90625 0.179688 -5.742188 0.109375 -6.671875 C 0.0546875 -7.585938 0.160156 -8.488281 0.421875 -9.375 C 0.679688 -10.257812 1.070312 -11.070312 1.59375 -11.8125 C 2.125 -12.5625 2.753906 -13.195312 3.484375 -13.71875 C 4.210938 -14.25 5.003906 -14.613281 5.859375 -14.8125 C 6.671875 -15 7.445312 -15.019531 8.1875 -14.875 C 8.925781 -14.726562 9.660156 -14.367188 10.390625 -13.796875 L 8.9375 -11.46875 C 8.414062 -11.84375 7.929688 -12.0625 7.484375 -12.125 C 7.035156 -12.1875 6.566406 -12.160156 6.078125 -12.046875 C 5.578125 -11.929688 5.117188 -11.722656 4.703125 -11.421875 C 4.285156 -11.117188 3.929688 -10.753906 3.640625 -10.328125 C 3.347656 -9.898438 3.125 -9.414062 2.96875 -8.875 C 2.8125 -8.34375 2.75 -7.804688 2.78125 -7.265625 C 2.820312 -6.710938 2.945312 -6.210938 3.15625 -5.765625 C 3.375 -5.328125 3.65625 -4.960938 4 -4.671875 C 4.34375 -4.390625 4.738281 -4.191406 5.1875 -4.078125 C 5.632812 -3.960938 6.101562 -3.960938 6.59375 -4.078125 C 7.03125 -4.179688 7.460938 -4.363281 7.890625 -4.625 C 8.316406 -4.894531 8.738281 -5.269531 9.15625 -5.75 L 9.0625 -7.171875 L 6.75 -6.640625 Z M 6.59375 -9.015625 "/></g></g></g><g fill="#000000" fill-opacity="1"><g transform="translate(170.117469, 219.54095)"><g><path d="M 5.40625 -14.515625 C 5.90625 -14.628906 6.378906 -14.628906 6.828125 -14.515625 C 7.285156 -14.410156 7.6875 -14.222656 8.03125 -13.953125 C 8.382812 -13.679688 8.664062 -13.328125 8.875 -12.890625 C 9.09375 -12.460938 9.226562 -11.972656 9.28125 -11.421875 C 9.3125 -10.898438 9.25 -10.378906 9.09375 -9.859375 C 8.9375 -9.335938 8.707031 -8.863281 8.40625 -8.4375 C 8.101562 -8.007812 7.738281 -7.640625 7.3125 -7.328125 C 6.882812 -7.023438 6.421875 -6.816406 5.921875 -6.703125 L 3.171875 -6.078125 L 3.515625 -0.796875 L 0.84375 -0.1875 L -0.046875 -13.265625 Z M 5.40625 -9.1875 C 5.582031 -9.226562 5.742188 -9.300781 5.890625 -9.40625 C 6.046875 -9.507812 6.175781 -9.632812 6.28125 -9.78125 C 6.382812 -9.9375 6.460938 -10.101562 6.515625 -10.28125 C 6.578125 -10.46875 6.601562 -10.644531 6.59375 -10.8125 C 6.5625 -11.1875 6.410156 -11.476562 6.140625 -11.6875 C 5.867188 -11.894531 5.5625 -11.960938 5.21875 -11.890625 L 2.828125 -11.34375 L 3 -8.640625 Z M 5.40625 -9.1875 "/></g></g></g><g fill="#000000" fill-opacity="1"><g transform="translate(180.236, 217.238719)"><g><path d="M 3.375 -3.328125 L 8.546875 -4.5 L 8.734375 -1.984375 L 0.84375 -0.1875 L -0.046875 -13.265625 L 2.671875 -13.890625 Z M 3.375 -3.328125 "/></g></g></g><g fill="#000000" fill-opacity="1"><g transform="translate(189.143155, 215.212109)"><g><path d="M 7.625 -7.09375 C 7.613281 -7.25 7.59375 -7.484375 7.5625 -7.796875 C 7.539062 -8.109375 7.519531 -8.460938 7.5 -8.859375 C 7.476562 -9.253906 7.453125 -9.675781 7.421875 -10.125 C 7.398438 -10.582031 7.375 -11.039062 7.34375 -11.5 C 7.257812 -12.53125 7.179688 -13.660156 7.109375 -14.890625 L 9.78125 -15.5 C 9.875 -14.125 9.960938 -12.859375 10.046875 -11.703125 C 10.078125 -11.210938 10.101562 -10.722656 10.125 -10.234375 C 10.15625 -9.753906 10.1875 -9.300781 10.21875 -8.875 C 10.25 -8.457031 10.269531 -8.09375 10.28125 -7.78125 C 10.300781 -7.476562 10.320312 -7.269531 10.34375 -7.15625 C 10.394531 -6.5 10.304688 -5.835938 10.078125 -5.171875 C 9.859375 -4.515625 9.539062 -3.90625 9.125 -3.34375 C 8.707031 -2.789062 8.203125 -2.304688 7.609375 -1.890625 C 7.015625 -1.484375 6.378906 -1.203125 5.703125 -1.046875 C 5.015625 -0.890625 4.363281 -0.878906 3.75 -1.015625 C 3.132812 -1.148438 2.585938 -1.394531 2.109375 -1.75 C 1.628906 -2.101562 1.238281 -2.550781 0.9375 -3.09375 C 0.644531 -3.632812 0.476562 -4.234375 0.4375 -4.890625 C 0.425781 -5.023438 0.40625 -5.25 0.375 -5.5625 C 0.351562 -5.882812 0.328125 -6.253906 0.296875 -6.671875 C 0.273438 -7.085938 0.25 -7.535156 0.21875 -8.015625 C 0.195312 -8.503906 0.164062 -8.992188 0.125 -9.484375 C 0.0507812 -10.628906 -0.03125 -11.882812 -0.125 -13.25 L 2.5625 -13.859375 C 2.65625 -12.578125 2.726562 -11.410156 2.78125 -10.359375 C 2.8125 -9.898438 2.84375 -9.441406 2.875 -8.984375 C 2.90625 -8.535156 2.9375 -8.113281 2.96875 -7.71875 C 3 -7.332031 3.019531 -6.988281 3.03125 -6.6875 C 3.039062 -6.394531 3.054688 -6.1875 3.078125 -6.0625 C 3.097656 -5.6875 3.175781 -5.347656 3.3125 -5.046875 C 3.445312 -4.742188 3.625 -4.488281 3.84375 -4.28125 C 4.070312 -4.082031 4.328125 -3.941406 4.609375 -3.859375 C 4.898438 -3.773438 5.203125 -3.769531 5.515625 -3.84375 C 5.828125 -3.90625 6.117188 -4.039062 6.390625 -4.25 C 6.660156 -4.457031 6.890625 -4.710938 7.078125 -5.015625 C 7.265625 -5.316406 7.40625 -5.644531 7.5 -6 C 7.601562 -6.351562 7.644531 -6.71875 7.625 -7.09375 Z M 7.625 -7.09375 "/></g></g></g><g fill="#000000" fill-opacity="1"><g transform="translate(200.544313, 212.618047)"><g><path d="M 8.40625 -8.75 C 8.925781 -8.550781 9.332031 -8.238281 9.625 -7.8125 C 9.925781 -7.394531 10.09375 -6.878906 10.125 -6.265625 C 10.164062 -5.671875 10.066406 -5.085938 9.828125 -4.515625 C 9.597656 -3.953125 9.242188 -3.410156 8.765625 -2.890625 C 8.335938 -2.421875 7.84375 -2.023438 7.28125 -1.703125 C 6.71875 -1.390625 6.109375 -1.15625 5.453125 -1 C 4.816406 -0.851562 4.207031 -0.804688 3.625 -0.859375 C 3.039062 -0.921875 2.503906 -1.082031 2.015625 -1.34375 C 1.316406 -1.695312 0.804688 -2.234375 0.484375 -2.953125 L 2.921875 -4.71875 C 2.941406 -4.59375 2.992188 -4.445312 3.078125 -4.28125 C 3.171875 -4.113281 3.316406 -3.960938 3.515625 -3.828125 C 3.710938 -3.703125 3.953125 -3.609375 4.234375 -3.546875 C 4.523438 -3.484375 4.878906 -3.503906 5.296875 -3.609375 C 5.972656 -3.753906 6.46875 -4.015625 6.78125 -4.390625 C 7.101562 -4.773438 7.257812 -5.132812 7.25 -5.46875 C 7.226562 -5.664062 7.144531 -5.835938 7 -5.984375 C 6.863281 -6.128906 6.671875 -6.21875 6.421875 -6.25 C 5.921875 -6.320312 5.398438 -6.351562 4.859375 -6.34375 C 4.328125 -6.34375 3.800781 -6.375 3.28125 -6.4375 C 2.769531 -6.5 2.296875 -6.628906 1.859375 -6.828125 C 1.429688 -7.023438 1.066406 -7.359375 0.765625 -7.828125 C 0.628906 -8.046875 0.523438 -8.269531 0.453125 -8.5 C 0.378906 -8.738281 0.335938 -8.992188 0.328125 -9.265625 C 0.285156 -9.847656 0.375 -10.445312 0.59375 -11.0625 C 0.820312 -11.675781 1.164062 -12.226562 1.625 -12.71875 C 2.050781 -13.164062 2.523438 -13.546875 3.046875 -13.859375 C 3.566406 -14.179688 4.128906 -14.414062 4.734375 -14.5625 C 5.335938 -14.695312 5.921875 -14.734375 6.484375 -14.671875 C 7.054688 -14.609375 7.578125 -14.453125 8.046875 -14.203125 C 8.503906 -13.953125 8.867188 -13.640625 9.140625 -13.265625 L 7.203125 -11.375 C 6.929688 -11.664062 6.601562 -11.875 6.21875 -12 C 5.832031 -12.132812 5.40625 -12.148438 4.9375 -12.046875 C 4.300781 -11.898438 3.816406 -11.632812 3.484375 -11.25 C 3.148438 -10.875 3 -10.453125 3.03125 -9.984375 C 3.039062 -9.765625 3.148438 -9.585938 3.359375 -9.453125 C 3.566406 -9.328125 3.832031 -9.234375 4.15625 -9.171875 C 4.488281 -9.109375 4.851562 -9.066406 5.25 -9.046875 C 5.644531 -9.023438 6.039062 -9.007812 6.4375 -9 C 6.832031 -9 7.195312 -8.976562 7.53125 -8.9375 C 7.875 -8.90625 8.164062 -8.84375 8.40625 -8.75 Z M 8.40625 -8.75 "/></g></g></g><g fill="#000000" fill-opacity="1"><g transform="translate(265.221315, 99.726865)"><g><path d="M 5.347656 -9.046875 L 4.9375 -9.046875 L 4.9375 1.234375 L 5.347656 1.234375 Z M 5.347656 -9.046875 "/></g></g></g><g fill="#000000" fill-opacity="1"><g transform="translate(275.33408, 99.726865)"><g><path d="M 5.328125 -1.6875 C 4.800781 -1.234375 4.484375 -1.089844 4.164062 -1.089844 C 3.648438 -1.089844 3.382812 -1.460938 3.382812 -2.199219 C 3.382812 -3.003906 3.671875 -3.660156 4.03125 -4.152344 C 4.390625 -4.648438 4.824219 -4.84375 5.171875 -4.84375 C 5.417969 -4.84375 5.644531 -4.738281 5.851562 -4.460938 Z M 6.753906 -5.160156 L 6.570312 -5.304688 L 5.964844 -4.996094 C 5.726562 -5.222656 5.5 -5.304688 5.222656 -5.304688 C 4.636719 -5.304688 4.042969 -4.964844 3.546875 -4.359375 C 3.035156 -3.753906 2.621094 -2.910156 2.621094 -1.972656 C 2.621094 -0.925781 3.199219 -0.492188 3.824219 -0.492188 C 4.402344 -0.492188 4.914062 -0.863281 5.378906 -1.398438 C 5.46875 -0.882812 5.859375 -0.492188 6.53125 -0.492188 C 7.515625 -0.492188 9.007812 -1.449219 9.007812 -3.671875 C 9.007812 -5.800781 7.648438 -7.300781 5.355469 -7.300781 C 2.539062 -7.300781 0.402344 -5.089844 0.402344 -2.292969 C 0.402344 0.390625 2.222656 1.746094 4.472656 1.746094 C 5.183594 1.746094 5.964844 1.59375 6.632812 1.265625 L 6.519531 0.988281 C 5.972656 1.234375 5.410156 1.378906 4.65625 1.378906 C 2.683594 1.378906 0.957031 0.125 0.957031 -2.386719 C 0.957031 -4.761719 2.734375 -6.921875 5.304688 -6.921875 C 7.105469 -6.921875 8.484375 -5.707031 8.484375 -3.773438 C 8.484375 -1.808594 7.496094 -0.9375 6.703125 -0.9375 C 6.191406 -0.9375 5.972656 -1.253906 6.097656 -1.871094 Z M 6.753906 -5.160156 "/></g></g></g><g fill="#000000" fill-opacity="1"><g transform="translate(284.573272, 99.726865)"><g><path d="M 0.453125 -4.402344 L 0.554688 -4.0625 L 9.574219 -4.0625 C 9.738281 -4.0625 9.859375 -4.101562 9.890625 -4.226562 C 9.398438 -4.6875 8.597656 -5.355469 8.597656 -5.355469 L 7.886719 -4.402344 Z M 0.453125 -4.402344 "/></g></g></g><g fill="#000000" fill-opacity="1"><g transform="translate(294.686036, 99.726865)"><g><path d="M 7.0625 -5.582031 C 7.054688 -2.078125 7.054688 -0.503906 4.402344 0.628906 L 4.515625 0.824219 C 7.691406 -0.175781 7.671875 -1.914062 7.753906 -5.101562 C 7.988281 -5.101562 8.101562 -5.191406 8.144531 -5.328125 Z M 7.558594 -1.605469 C 8.144531 -1.027344 8.882812 -0.0703125 9.089844 0.699219 C 9.941406 1.265625 10.488281 -0.597656 7.660156 -1.6875 Z M 3.105469 -4.738281 L 3.105469 -6.085938 L 3.980469 -6.085938 L 3.980469 -4.738281 Z M 1.53125 -6.085938 L 2.4375 -6.085938 L 2.4375 -4.738281 L 1.53125 -4.738281 Z M 2.4375 -7.722656 L 2.4375 -6.386719 L 1.53125 -6.386719 L 1.53125 -7.722656 Z M 3.980469 -7.722656 L 3.980469 -6.386719 L 3.105469 -6.386719 L 3.105469 -7.722656 Z M 8.484375 -7.929688 L 5.121094 -7.929688 L 5.140625 -7.792969 L 4.277344 -8.453125 L 3.875 -8.019531 L 1.65625 -8.019531 L 0.8125 -8.378906 L 0.8125 -4 L 0.925781 -4 C 1.285156 -4 1.53125 -4.175781 1.53125 -4.238281 L 1.53125 -4.441406 L 2.417969 -4.441406 L 2.417969 -3.414062 L 0.347656 -3.414062 L 0.421875 -3.117188 L 2.015625 -3.117188 C 1.664062 -1.921875 1.078125 -0.761719 0.246094 0.101562 L 0.359375 0.246094 C 1.234375 -0.390625 1.933594 -1.160156 2.417969 -2.066406 L 2.417969 0.824219 L 2.539062 0.824219 C 2.910156 0.824219 3.144531 0.636719 3.15625 0.585938 L 3.15625 -2.621094 C 3.566406 -2.078125 3.988281 -1.367188 4.09375 -0.792969 C 4.875 -0.183594 5.511719 -1.808594 3.15625 -2.910156 L 3.15625 -3.117188 L 5.027344 -3.117188 C 5.160156 -3.117188 5.265625 -3.167969 5.296875 -3.28125 C 4.976562 -3.597656 4.441406 -4.03125 4.441406 -4.03125 L 3.980469 -3.414062 L 3.15625 -3.414062 L 3.15625 -4.441406 L 3.980469 -4.441406 L 3.980469 -4.125 L 4.09375 -4.125 C 4.339844 -4.125 4.699219 -4.289062 4.710938 -4.359375 L 4.710938 -7.578125 C 4.925781 -7.621094 5.078125 -7.710938 5.152344 -7.792969 L 5.191406 -7.628906 L 6.992188 -7.628906 C 6.960938 -7.175781 6.910156 -6.589844 6.859375 -6.210938 L 6.25 -6.210938 L 5.4375 -6.558594 L 5.4375 -1.644531 L 5.5625 -1.644531 C 5.882812 -1.644531 6.199219 -1.820312 6.199219 -1.902344 L 6.199219 -5.902344 L 8.574219 -5.902344 L 8.574219 -1.746094 L 8.699219 -1.746094 C 8.945312 -1.746094 9.316406 -1.921875 9.328125 -1.984375 L 9.328125 -5.808594 C 9.5 -5.839844 9.644531 -5.914062 9.707031 -5.984375 L 8.875 -6.613281 L 8.484375 -6.210938 L 7.167969 -6.210938 C 7.414062 -6.589844 7.703125 -7.144531 7.929688 -7.628906 L 9.707031 -7.628906 C 9.851562 -7.628906 9.953125 -7.679688 9.984375 -7.792969 C 9.613281 -8.132812 9.007812 -8.597656 9.007812 -8.597656 Z M 8.484375 -7.929688 "/></g></g></g><g fill="#000000" fill-opacity="1"><g transform="translate(304.798801, 99.726865)"><g><path d="M 3.0625 -7.320312 L 3.0625 -6.488281 L 3.1875 -6.488281 C 3.539062 -6.488281 3.855469 -6.589844 3.855469 -6.664062 L 3.855469 -7.320312 L 6.34375 -7.320312 L 6.34375 -6.53125 L 6.476562 -6.53125 C 6.867188 -6.53125 7.144531 -6.652344 7.144531 -6.714844 L 7.144531 -7.320312 L 9.59375 -7.320312 C 9.726562 -7.320312 9.828125 -7.371094 9.851562 -7.484375 C 9.523438 -7.804688 8.933594 -8.257812 8.933594 -8.257812 L 8.421875 -7.621094 L 7.144531 -7.621094 L 7.144531 -8.289062 C 7.414062 -8.328125 7.496094 -8.421875 7.515625 -8.566406 L 6.34375 -8.679688 L 6.34375 -7.621094 L 3.855469 -7.621094 L 3.855469 -8.289062 C 4.113281 -8.328125 4.207031 -8.421875 4.226562 -8.566406 L 3.0625 -8.679688 L 3.0625 -7.621094 L 0.410156 -7.621094 L 0.484375 -7.320312 Z M 9.058594 -2.980469 L 8.648438 -2.558594 L 7.546875 -2.558594 C 7.566406 -2.816406 7.589844 -3.074219 7.597656 -3.332031 C 7.804688 -3.363281 7.898438 -3.453125 7.917969 -3.589844 L 7.074219 -3.660156 C 7.402344 -3.691406 7.660156 -3.761719 7.84375 -3.886719 C 8.234375 -4.132812 8.453125 -4.738281 8.566406 -5.613281 C 8.761719 -5.636719 8.882812 -5.675781 8.945312 -5.757812 L 8.125 -6.4375 L 7.691406 -6.003906 L 5.304688 -6.003906 C 5.367188 -6.210938 5.410156 -6.425781 5.4375 -6.640625 C 5.65625 -6.652344 5.777344 -6.726562 5.808594 -6.890625 L 4.597656 -7.042969 C 4.585938 -6.683594 4.535156 -6.335938 4.441406 -6.003906 L 1.46875 -6.003906 L 1.5625 -5.707031 L 4.339844 -5.707031 C 3.9375 -4.71875 2.980469 -3.9375 0.875 -3.445312 L 0.9375 -3.289062 C 1.460938 -3.371094 1.933594 -3.476562 2.34375 -3.597656 C 2.335938 -3.25 2.335938 -2.898438 2.304688 -2.558594 L 0.585938 -2.558594 L 0.679688 -2.261719 L 2.273438 -2.261719 C 2.128906 -1.183594 1.71875 -0.152344 0.347656 0.699219 L 0.472656 0.851562 C 2.363281 0.0195312 2.867188 -1.121094 3.042969 -2.261719 L 4.164062 -2.261719 C 4.09375 -0.957031 3.949219 -0.296875 3.753906 -0.132812 C 3.679688 -0.0703125 3.621094 -0.0507812 3.476562 -0.0507812 C 3.300781 -0.0507812 2.878906 -0.09375 2.621094 -0.101562 L 2.613281 0.0625 C 2.878906 0.113281 3.09375 0.175781 3.199219 0.289062 C 3.3125 0.402344 3.332031 0.566406 3.332031 0.769531 C 3.703125 0.769531 4.019531 0.699219 4.265625 0.503906 C 4.636719 0.214844 4.832031 -0.523438 4.925781 -2.167969 C 5.121094 -2.191406 5.242188 -2.242188 5.316406 -2.324219 L 4.503906 -2.980469 L 4.082031 -2.558594 L 3.074219 -2.558594 C 3.105469 -2.808594 3.125 -3.054688 3.136719 -3.289062 C 3.351562 -3.320312 3.445312 -3.425781 3.464844 -3.558594 L 2.488281 -3.640625 C 4.070312 -4.125 4.832031 -4.832031 5.191406 -5.707031 L 7.753906 -5.707031 C 7.660156 -5.101562 7.527344 -4.636719 7.363281 -4.535156 C 7.28125 -4.484375 7.1875 -4.460938 6.992188 -4.460938 C 6.777344 -4.460938 5.914062 -4.523438 5.4375 -4.566406 L 5.429688 -4.402344 C 5.871094 -4.339844 6.335938 -4.246094 6.507812 -4.125 C 6.671875 -4 6.714844 -3.84375 6.714844 -3.640625 L 6.785156 -3.640625 C 6.785156 -3.269531 6.777344 -2.910156 6.746094 -2.558594 L 5.253906 -2.558594 L 5.347656 -2.261719 L 6.714844 -2.261719 C 6.582031 -1.152344 6.148438 -0.152344 4.679688 0.667969 L 4.8125 0.824219 C 6.816406 0.0195312 7.339844 -1.078125 7.507812 -2.261719 L 8.730469 -2.261719 C 8.667969 -0.988281 8.542969 -0.308594 8.371094 -0.144531 C 8.296875 -0.0820312 8.214844 -0.0625 8.0625 -0.0625 C 7.886719 -0.0625 7.414062 -0.101562 7.136719 -0.125 L 7.125 0.0429688 C 7.414062 0.101562 7.671875 0.183594 7.785156 0.296875 C 7.898438 0.410156 7.929688 0.605469 7.929688 0.824219 C 8.308594 0.824219 8.636719 0.730469 8.863281 0.535156 C 9.253906 0.246094 9.429688 -0.546875 9.5 -2.167969 C 9.707031 -2.191406 9.820312 -2.242188 9.890625 -2.324219 Z M 9.058594 -2.980469 "/></g></g></g><g fill="#000000" fill-opacity="1"><g transform="translate(314.911564, 99.726865)"><g><path d="M 2.859375 -5.953125 L 4.226562 -5.953125 C 4.371094 -5.953125 4.460938 -6.003906 4.492188 -6.117188 C 4.175781 -6.445312 3.628906 -6.898438 3.628906 -6.898438 L 3.15625 -6.261719 L 2.859375 -6.261719 L 2.859375 -8.226562 C 3.125 -8.265625 3.207031 -8.359375 3.238281 -8.515625 L 2.054688 -8.648438 L 2.054688 -6.261719 L 0.460938 -6.261719 L 0.546875 -5.953125 L 1.933594 -5.953125 C 1.644531 -4.410156 1.132812 -2.859375 0.320312 -1.695312 L 0.453125 -1.574219 C 1.121094 -2.230469 1.644531 -2.980469 2.054688 -3.824219 L 2.054688 0.8125 L 2.222656 0.8125 C 2.53125 0.8125 2.859375 0.636719 2.859375 0.535156 L 2.859375 -4.421875 C 3.167969 -3.980469 3.496094 -3.371094 3.578125 -2.898438 C 4.289062 -2.304688 5.019531 -3.722656 2.859375 -4.636719 Z M 8.09375 -4.296875 C 7.816406 -3.382812 7.382812 -2.558594 6.796875 -1.832031 C 6.148438 -2.46875 5.636719 -3.28125 5.316406 -4.296875 Z M 8.585938 -5.101562 L 8.0625 -4.597656 L 7.15625 -4.597656 L 7.15625 -6.457031 L 9.664062 -6.457031 C 9.800781 -6.457031 9.902344 -6.507812 9.921875 -6.621094 C 9.5625 -6.960938 8.957031 -7.453125 8.957031 -7.453125 L 8.421875 -6.753906 L 7.15625 -6.753906 L 7.15625 -8.207031 C 7.414062 -8.246094 7.515625 -8.347656 7.535156 -8.492188 L 6.355469 -8.617188 L 6.355469 -6.753906 L 4.082031 -6.753906 L 4.164062 -6.457031 L 6.355469 -6.457031 L 6.355469 -4.597656 L 4.207031 -4.597656 L 4.296875 -4.296875 L 5.058594 -4.296875 C 5.347656 -3.125 5.800781 -2.148438 6.386719 -1.355469 C 5.5625 -0.503906 4.484375 0.195312 3.144531 0.679688 L 3.230469 0.832031 C 4.71875 0.453125 5.882812 -0.125 6.777344 -0.863281 C 7.476562 -0.09375 8.339844 0.472656 9.347656 0.832031 C 9.410156 0.441406 9.65625 0.144531 10.046875 0 L 10.054688 -0.125 C 9.039062 -0.359375 8.113281 -0.761719 7.320312 -1.367188 C 8.09375 -2.160156 8.636719 -3.105469 9.019531 -4.152344 C 9.265625 -4.175781 9.378906 -4.207031 9.460938 -4.296875 Z M 8.585938 -5.101562 "/></g></g></g><g fill="#000000" fill-opacity="1"><g transform="translate(325.02433, 99.726865)"><g><path d="M 2.796875 -6.867188 L 2.796875 -2.703125 L 1.523438 -2.703125 L 1.523438 -6.867188 Z M 2.796875 -2.417969 L 2.796875 -1.46875 L 2.910156 -1.46875 C 3.199219 -1.46875 3.566406 -1.664062 3.578125 -1.738281 L 3.578125 -6.726562 C 3.785156 -6.765625 3.9375 -6.859375 4.011719 -6.941406 L 3.117188 -7.640625 L 2.695312 -7.175781 L 1.574219 -7.175781 L 0.742188 -7.546875 L 0.742188 -0.90625 L 0.863281 -0.90625 C 1.214844 -0.90625 1.523438 -1.101562 1.523438 -1.191406 L 1.523438 -2.417969 Z M 9.664062 -3.980469 C 9.800781 -3.980469 9.914062 -4.03125 9.941406 -4.144531 C 9.5625 -4.503906 8.933594 -5.007812 8.933594 -5.007812 L 8.390625 -4.277344 L 6.941406 -4.277344 L 6.941406 -6.148438 L 9.316406 -6.148438 C 9.460938 -6.148438 9.5625 -6.199219 9.59375 -6.3125 C 9.214844 -6.664062 8.597656 -7.167969 8.597656 -7.167969 L 8.039062 -6.457031 L 6.941406 -6.457031 L 6.941406 -8.125 C 7.207031 -8.164062 7.28125 -8.265625 7.3125 -8.410156 L 6.097656 -8.535156 L 6.097656 -6.457031 L 3.957031 -6.457031 L 4.042969 -6.148438 L 6.097656 -6.148438 L 6.097656 -4.277344 L 3.742188 -4.277344 L 3.824219 -3.980469 L 5.726562 -3.980469 C 5.109375 -2.355469 3.9375 -0.851562 2.28125 0.125 L 2.386719 0.265625 C 4.03125 -0.453125 5.273438 -1.46875 6.097656 -2.753906 L 6.097656 0.8125 L 6.273438 0.8125 C 6.589844 0.8125 6.941406 0.628906 6.941406 0.535156 L 6.941406 -3.855469 C 7.433594 -2.140625 8.257812 -0.769531 9.328125 0.0703125 C 9.449219 -0.339844 9.726562 -0.585938 10.046875 -0.636719 L 10.066406 -0.75 C 8.90625 -1.347656 7.753906 -2.558594 7.125 -3.980469 Z M 9.664062 -3.980469 "/></g></g></g><g fill="#000000" fill-opacity="1"><g transform="translate(335.137095, 99.726865)"><g><path d="M 1.132812 -8.421875 C 1.636719 -8.082031 2.261719 -7.476562 2.488281 -6.960938 C 3.394531 -6.488281 3.855469 -8.257812 1.214844 -8.503906 Z M 0.328125 -6.128906 C 0.800781 -5.820312 1.378906 -5.242188 1.574219 -4.769531 C 2.457031 -4.308594 2.898438 -6.015625 0.410156 -6.210938 Z M 3.640625 -7.117188 C 1.613281 -2.703125 1.613281 -2.703125 1.410156 -2.324219 C 1.296875 -2.117188 1.253906 -2.109375 1.121094 -2.109375 L 0.667969 -2.109375 L 0.667969 -1.890625 C 0.882812 -1.871094 1.039062 -1.839844 1.183594 -1.738281 C 1.417969 -1.582031 1.480469 -0.742188 1.316406 0.328125 C 1.355469 0.667969 1.511719 0.84375 1.71875 0.84375 C 2.117188 0.84375 2.355469 0.554688 2.375 0.09375 C 2.417969 -0.769531 2.078125 -1.203125 2.066406 -1.6875 C 2.066406 -1.953125 2.140625 -2.304688 2.242188 -2.632812 C 2.40625 -3.175781 3.332031 -5.707031 3.816406 -7.074219 Z M 9.046875 -5.222656 L 8.585938 -4.75 L 5.078125 -4.75 C 6.136719 -5.5 7.679688 -6.695312 8.460938 -7.351562 C 8.738281 -7.339844 8.988281 -7.382812 9.078125 -7.507812 L 8.195312 -8.347656 L 7.742188 -7.898438 L 4.011719 -7.898438 L 4.101562 -7.597656 L 7.527344 -7.597656 C 6.683594 -6.867188 5.265625 -5.808594 4.277344 -5.121094 C 4.03125 -5.089844 3.753906 -5.027344 3.589844 -4.964844 L 4.296875 -4.144531 L 4.761719 -4.453125 L 5.5 -4.453125 C 4.976562 -3.117188 4.082031 -1.902344 2.796875 -1.039062 L 2.898438 -0.882812 C 4.566406 -1.726562 5.738281 -2.921875 6.363281 -4.453125 L 7.136719 -4.453125 C 6.671875 -2.386719 5.59375 -0.742188 3.546875 0.347656 L 3.640625 0.503906 C 6.160156 -0.554688 7.476562 -2.191406 8.03125 -4.453125 L 8.679688 -4.453125 C 8.523438 -2.066406 8.207031 -0.574219 7.835938 -0.265625 C 7.710938 -0.164062 7.621094 -0.132812 7.433594 -0.132812 C 7.207031 -0.132812 6.570312 -0.195312 6.179688 -0.226562 L 6.167969 -0.0507812 C 6.539062 0.0117188 6.898438 0.125 7.035156 0.257812 C 7.167969 0.359375 7.207031 0.585938 7.207031 0.824219 C 7.679688 0.824219 8.09375 0.710938 8.410156 0.421875 C 8.957031 -0.0703125 9.328125 -1.59375 9.480469 -4.328125 C 9.695312 -4.359375 9.839844 -4.410156 9.914062 -4.492188 Z M 9.046875 -5.222656 "/></g></g></g><g fill="#000000" fill-opacity="1"><g transform="translate(345.249861, 99.726865)"><g><path d="M 6.292969 -6.621094 L 6.292969 -5.574219 L 3.917969 -5.574219 L 3.917969 -6.621094 Z M 3.917969 -5.265625 L 6.292969 -5.265625 L 6.292969 -4.964844 L 6.40625 -4.964844 C 6.652344 -4.964844 6.992188 -5.132812 7.003906 -5.191406 L 7.003906 -6.507812 C 7.1875 -6.550781 7.339844 -6.632812 7.394531 -6.703125 L 6.582031 -7.3125 L 6.199219 -6.921875 L 3.96875 -6.921875 L 3.207031 -7.25 L 3.207031 -4.90625 L 3.320312 -4.90625 C 3.597656 -4.90625 3.917969 -5.046875 3.917969 -5.109375 Z M 3.527344 -4.152344 L 6.640625 -4.152344 L 6.640625 -1.882812 L 6.753906 -1.882812 C 7.003906 -1.882812 7.371094 -2.046875 7.382812 -2.117188 L 7.382812 -4.070312 C 7.535156 -4.101562 7.671875 -4.175781 7.722656 -4.238281 L 6.929688 -4.832031 L 6.558594 -4.453125 L 3.578125 -4.453125 L 2.808594 -4.800781 L 2.808594 -1.636719 L 2.921875 -1.636719 C 3.207031 -1.636719 3.527344 -1.789062 3.527344 -1.851562 Z M 4.710938 -3.734375 C 4.679688 -2.40625 4.65625 -1.398438 2.363281 -0.65625 L 2.46875 -0.492188 C 5.265625 -1.140625 5.378906 -2.167969 5.460938 -3.382812 C 5.664062 -3.414062 5.746094 -3.507812 5.769531 -3.621094 Z M 5.203125 -1.808594 C 6.148438 -1.46875 6.785156 -1.039062 7.117188 -0.628906 C 7.753906 -0.0507812 8.863281 -1.53125 5.253906 -1.972656 Z M 1.902344 -0.226562 L 1.902344 -7.753906 L 8.296875 -7.753906 L 8.296875 -0.226562 Z M 8.636719 -8.542969 L 8.195312 -8.050781 L 1.984375 -8.050781 L 1.101562 -8.453125 L 1.101562 0.84375 L 1.246094 0.84375 C 1.59375 0.84375 1.902344 0.628906 1.902344 0.523438 L 1.902344 0.0703125 L 8.296875 0.0703125 L 8.296875 0.761719 L 8.421875 0.761719 C 8.710938 0.761719 9.109375 0.546875 9.121094 0.460938 L 9.121094 -7.597656 C 9.328125 -7.648438 9.492188 -7.722656 9.5625 -7.816406 Z M 8.636719 -8.542969 "/></g></g></g><g fill="#000000" fill-opacity="1"><g transform="translate(355.362627, 99.726865)"><g><path d="M 5.347656 -9.046875 L 4.9375 -9.046875 L 4.9375 1.234375 L 5.347656 1.234375 Z M 5.347656 -9.046875 "/></g></g></g><g fill="#ffffff" fill-opacity="1"><g transform="translate(264.917374, 99.489397)"><g><path d="M 5.347656 -9.046875 L 4.9375 -9.046875 L 4.9375 1.234375 L 5.347656 1.234375 Z M 5.347656 -9.046875 "/></g></g></g><g fill="#ffffff" fill-opacity="1"><g transform="translate(275.030139, 99.489397)"><g><path d="M 5.328125 -1.6875 C 4.800781 -1.234375 4.484375 -1.089844 4.164062 -1.089844 C 3.648438 -1.089844 3.382812 -1.460938 3.382812 -2.199219 C 3.382812 -3.003906 3.671875 -3.660156 4.03125 -4.152344 C 4.390625 -4.648438 4.824219 -4.84375 5.171875 -4.84375 C 5.417969 -4.84375 5.644531 -4.738281 5.851562 -4.460938 Z M 6.753906 -5.160156 L 6.570312 -5.304688 L 5.964844 -4.996094 C 5.726562 -5.222656 5.5 -5.304688 5.222656 -5.304688 C 4.636719 -5.304688 4.042969 -4.964844 3.546875 -4.359375 C 3.035156 -3.753906 2.621094 -2.910156 2.621094 -1.972656 C 2.621094 -0.925781 3.199219 -0.492188 3.824219 -0.492188 C 4.402344 -0.492188 4.914062 -0.863281 5.378906 -1.398438 C 5.46875 -0.882812 5.859375 -0.492188 6.53125 -0.492188 C 7.515625 -0.492188 9.007812 -1.449219 9.007812 -3.671875 C 9.007812 -5.800781 7.648438 -7.300781 5.355469 -7.300781 C 2.539062 -7.300781 0.402344 -5.089844 0.402344 -2.292969 C 0.402344 0.390625 2.222656 1.746094 4.472656 1.746094 C 5.183594 1.746094 5.964844 1.59375 6.632812 1.265625 L 6.519531 0.988281 C 5.972656 1.234375 5.410156 1.378906 4.65625 1.378906 C 2.683594 1.378906 0.957031 0.125 0.957031 -2.386719 C 0.957031 -4.761719 2.734375 -6.921875 5.304688 -6.921875 C 7.105469 -6.921875 8.484375 -5.707031 8.484375 -3.773438 C 8.484375 -1.808594 7.496094 -0.9375 6.703125 -0.9375 C 6.191406 -0.9375 5.972656 -1.253906 6.097656 -1.871094 Z M 6.753906 -5.160156 "/></g></g></g><g fill="#ffffff" fill-opacity="1"><g transform="translate(284.269331, 99.489397)"><g><path d="M 0.453125 -4.402344 L 0.554688 -4.0625 L 9.574219 -4.0625 C 9.738281 -4.0625 9.859375 -4.101562 9.890625 -4.226562 C 9.398438 -4.6875 8.597656 -5.355469 8.597656 -5.355469 L 7.886719 -4.402344 Z M 0.453125 -4.402344 "/></g></g></g><g fill="#ffffff" fill-opacity="1"><g transform="translate(294.382095, 99.489397)"><g><path d="M 7.0625 -5.582031 C 7.054688 -2.078125 7.054688 -0.503906 4.402344 0.628906 L 4.515625 0.824219 C 7.691406 -0.175781 7.671875 -1.914062 7.753906 -5.101562 C 7.988281 -5.101562 8.101562 -5.191406 8.144531 -5.328125 Z M 7.558594 -1.605469 C 8.144531 -1.027344 8.882812 -0.0703125 9.089844 0.699219 C 9.941406 1.265625 10.488281 -0.597656 7.660156 -1.6875 Z M 3.105469 -4.738281 L 3.105469 -6.085938 L 3.980469 -6.085938 L 3.980469 -4.738281 Z M 1.53125 -6.085938 L 2.4375 -6.085938 L 2.4375 -4.738281 L 1.53125 -4.738281 Z M 2.4375 -7.722656 L 2.4375 -6.386719 L 1.53125 -6.386719 L 1.53125 -7.722656 Z M 3.980469 -7.722656 L 3.980469 -6.386719 L 3.105469 -6.386719 L 3.105469 -7.722656 Z M 8.484375 -7.929688 L 5.121094 -7.929688 L 5.140625 -7.792969 L 4.277344 -8.453125 L 3.875 -8.019531 L 1.65625 -8.019531 L 0.8125 -8.378906 L 0.8125 -4 L 0.925781 -4 C 1.285156 -4 1.53125 -4.175781 1.53125 -4.238281 L 1.53125 -4.441406 L 2.417969 -4.441406 L 2.417969 -3.414062 L 0.347656 -3.414062 L 0.421875 -3.117188 L 2.015625 -3.117188 C 1.664062 -1.921875 1.078125 -0.761719 0.246094 0.101562 L 0.359375 0.246094 C 1.234375 -0.390625 1.933594 -1.160156 2.417969 -2.066406 L 2.417969 0.824219 L 2.539062 0.824219 C 2.910156 0.824219 3.144531 0.636719 3.15625 0.585938 L 3.15625 -2.621094 C 3.566406 -2.078125 3.988281 -1.367188 4.09375 -0.792969 C 4.875 -0.183594 5.511719 -1.808594 3.15625 -2.910156 L 3.15625 -3.117188 L 5.027344 -3.117188 C 5.160156 -3.117188 5.265625 -3.167969 5.296875 -3.28125 C 4.976562 -3.597656 4.441406 -4.03125 4.441406 -4.03125 L 3.980469 -3.414062 L 3.15625 -3.414062 L 3.15625 -4.441406 L 3.980469 -4.441406 L 3.980469 -4.125 L 4.09375 -4.125 C 4.339844 -4.125 4.699219 -4.289062 4.710938 -4.359375 L 4.710938 -7.578125 C 4.925781 -7.621094 5.078125 -7.710938 5.152344 -7.792969 L 5.191406 -7.628906 L 6.992188 -7.628906 C 6.960938 -7.175781 6.910156 -6.589844 6.859375 -6.210938 L 6.25 -6.210938 L 5.4375 -6.558594 L 5.4375 -1.644531 L 5.5625 -1.644531 C 5.882812 -1.644531 6.199219 -1.820312 6.199219 -1.902344 L 6.199219 -5.902344 L 8.574219 -5.902344 L 8.574219 -1.746094 L 8.699219 -1.746094 C 8.945312 -1.746094 9.316406 -1.921875 9.328125 -1.984375 L 9.328125 -5.808594 C 9.5 -5.839844 9.644531 -5.914062 9.707031 -5.984375 L 8.875 -6.613281 L 8.484375 -6.210938 L 7.167969 -6.210938 C 7.414062 -6.589844 7.703125 -7.144531 7.929688 -7.628906 L 9.707031 -7.628906 C 9.851562 -7.628906 9.953125 -7.679688 9.984375 -7.792969 C 9.613281 -8.132812 9.007812 -8.597656 9.007812 -8.597656 Z M 8.484375 -7.929688 "/></g></g></g><g fill="#ffffff" fill-opacity="1"><g transform="translate(304.494861, 99.489397)"><g><path d="M 3.0625 -7.320312 L 3.0625 -6.488281 L 3.1875 -6.488281 C 3.539062 -6.488281 3.855469 -6.589844 3.855469 -6.664062 L 3.855469 -7.320312 L 6.34375 -7.320312 L 6.34375 -6.53125 L 6.476562 -6.53125 C 6.867188 -6.53125 7.144531 -6.652344 7.144531 -6.714844 L 7.144531 -7.320312 L 9.59375 -7.320312 C 9.726562 -7.320312 9.828125 -7.371094 9.851562 -7.484375 C 9.523438 -7.804688 8.933594 -8.257812 8.933594 -8.257812 L 8.421875 -7.621094 L 7.144531 -7.621094 L 7.144531 -8.289062 C 7.414062 -8.328125 7.496094 -8.421875 7.515625 -8.566406 L 6.34375 -8.679688 L 6.34375 -7.621094 L 3.855469 -7.621094 L 3.855469 -8.289062 C 4.113281 -8.328125 4.207031 -8.421875 4.226562 -8.566406 L 3.0625 -8.679688 L 3.0625 -7.621094 L 0.410156 -7.621094 L 0.484375 -7.320312 Z M 9.058594 -2.980469 L 8.648438 -2.558594 L 7.546875 -2.558594 C 7.566406 -2.816406 7.589844 -3.074219 7.597656 -3.332031 C 7.804688 -3.363281 7.898438 -3.453125 7.917969 -3.589844 L 7.074219 -3.660156 C 7.402344 -3.691406 7.660156 -3.761719 7.84375 -3.886719 C 8.234375 -4.132812 8.453125 -4.738281 8.566406 -5.613281 C 8.761719 -5.636719 8.882812 -5.675781 8.945312 -5.757812 L 8.125 -6.4375 L 7.691406 -6.003906 L 5.304688 -6.003906 C 5.367188 -6.210938 5.410156 -6.425781 5.4375 -6.640625 C 5.65625 -6.652344 5.777344 -6.726562 5.808594 -6.890625 L 4.597656 -7.042969 C 4.585938 -6.683594 4.535156 -6.335938 4.441406 -6.003906 L 1.46875 -6.003906 L 1.5625 -5.707031 L 4.339844 -5.707031 C 3.9375 -4.71875 2.980469 -3.9375 0.875 -3.445312 L 0.9375 -3.289062 C 1.460938 -3.371094 1.933594 -3.476562 2.34375 -3.597656 C 2.335938 -3.25 2.335938 -2.898438 2.304688 -2.558594 L 0.585938 -2.558594 L 0.679688 -2.261719 L 2.273438 -2.261719 C 2.128906 -1.183594 1.71875 -0.152344 0.347656 0.699219 L 0.472656 0.851562 C 2.363281 0.0195312 2.867188 -1.121094 3.042969 -2.261719 L 4.164062 -2.261719 C 4.09375 -0.957031 3.949219 -0.296875 3.753906 -0.132812 C 3.679688 -0.0703125 3.621094 -0.0507812 3.476562 -0.0507812 C 3.300781 -0.0507812 2.878906 -0.09375 2.621094 -0.101562 L 2.613281 0.0625 C 2.878906 0.113281 3.09375 0.175781 3.199219 0.289062 C 3.3125 0.402344 3.332031 0.566406 3.332031 0.769531 C 3.703125 0.769531 4.019531 0.699219 4.265625 0.503906 C 4.636719 0.214844 4.832031 -0.523438 4.925781 -2.167969 C 5.121094 -2.191406 5.242188 -2.242188 5.316406 -2.324219 L 4.503906 -2.980469 L 4.082031 -2.558594 L 3.074219 -2.558594 C 3.105469 -2.808594 3.125 -3.054688 3.136719 -3.289062 C 3.351562 -3.320312 3.445312 -3.425781 3.464844 -3.558594 L 2.488281 -3.640625 C 4.070312 -4.125 4.832031 -4.832031 5.191406 -5.707031 L 7.753906 -5.707031 C 7.660156 -5.101562 7.527344 -4.636719 7.363281 -4.535156 C 7.28125 -4.484375 7.1875 -4.460938 6.992188 -4.460938 C 6.777344 -4.460938 5.914062 -4.523438 5.4375 -4.566406 L 5.429688 -4.402344 C 5.871094 -4.339844 6.335938 -4.246094 6.507812 -4.125 C 6.671875 -4 6.714844 -3.84375 6.714844 -3.640625 L 6.785156 -3.640625 C 6.785156 -3.269531 6.777344 -2.910156 6.746094 -2.558594 L 5.253906 -2.558594 L 5.347656 -2.261719 L 6.714844 -2.261719 C 6.582031 -1.152344 6.148438 -0.152344 4.679688 0.667969 L 4.8125 0.824219 C 6.816406 0.0195312 7.339844 -1.078125 7.507812 -2.261719 L 8.730469 -2.261719 C 8.667969 -0.988281 8.542969 -0.308594 8.371094 -0.144531 C 8.296875 -0.0820312 8.214844 -0.0625 8.0625 -0.0625 C 7.886719 -0.0625 7.414062 -0.101562 7.136719 -0.125 L 7.125 0.0429688 C 7.414062 0.101562 7.671875 0.183594 7.785156 0.296875 C 7.898438 0.410156 7.929688 0.605469 7.929688 0.824219 C 8.308594 0.824219 8.636719 0.730469 8.863281 0.535156 C 9.253906 0.246094 9.429688 -0.546875 9.5 -2.167969 C 9.707031 -2.191406 9.820312 -2.242188 9.890625 -2.324219 Z M 9.058594 -2.980469 "/></g></g></g><g fill="#ffffff" fill-opacity="1"><g transform="translate(314.607623, 99.489397)"><g><path d="M 2.859375 -5.953125 L 4.226562 -5.953125 C 4.371094 -5.953125 4.460938 -6.003906 4.492188 -6.117188 C 4.175781 -6.445312 3.628906 -6.898438 3.628906 -6.898438 L 3.15625 -6.261719 L 2.859375 -6.261719 L 2.859375 -8.226562 C 3.125 -8.265625 3.207031 -8.359375 3.238281 -8.515625 L 2.054688 -8.648438 L 2.054688 -6.261719 L 0.460938 -6.261719 L 0.546875 -5.953125 L 1.933594 -5.953125 C 1.644531 -4.410156 1.132812 -2.859375 0.320312 -1.695312 L 0.453125 -1.574219 C 1.121094 -2.230469 1.644531 -2.980469 2.054688 -3.824219 L 2.054688 0.8125 L 2.222656 0.8125 C 2.53125 0.8125 2.859375 0.636719 2.859375 0.535156 L 2.859375 -4.421875 C 3.167969 -3.980469 3.496094 -3.371094 3.578125 -2.898438 C 4.289062 -2.304688 5.019531 -3.722656 2.859375 -4.636719 Z M 8.09375 -4.296875 C 7.816406 -3.382812 7.382812 -2.558594 6.796875 -1.832031 C 6.148438 -2.46875 5.636719 -3.28125 5.316406 -4.296875 Z M 8.585938 -5.101562 L 8.0625 -4.597656 L 7.15625 -4.597656 L 7.15625 -6.457031 L 9.664062 -6.457031 C 9.800781 -6.457031 9.902344 -6.507812 9.921875 -6.621094 C 9.5625 -6.960938 8.957031 -7.453125 8.957031 -7.453125 L 8.421875 -6.753906 L 7.15625 -6.753906 L 7.15625 -8.207031 C 7.414062 -8.246094 7.515625 -8.347656 7.535156 -8.492188 L 6.355469 -8.617188 L 6.355469 -6.753906 L 4.082031 -6.753906 L 4.164062 -6.457031 L 6.355469 -6.457031 L 6.355469 -4.597656 L 4.207031 -4.597656 L 4.296875 -4.296875 L 5.058594 -4.296875 C 5.347656 -3.125 5.800781 -2.148438 6.386719 -1.355469 C 5.5625 -0.503906 4.484375 0.195312 3.144531 0.679688 L 3.230469 0.832031 C 4.71875 0.453125 5.882812 -0.125 6.777344 -0.863281 C 7.476562 -0.09375 8.339844 0.472656 9.347656 0.832031 C 9.410156 0.441406 9.65625 0.144531 10.046875 0 L 10.054688 -0.125 C 9.039062 -0.359375 8.113281 -0.761719 7.320312 -1.367188 C 8.09375 -2.160156 8.636719 -3.105469 9.019531 -4.152344 C 9.265625 -4.175781 9.378906 -4.207031 9.460938 -4.296875 Z M 8.585938 -5.101562 "/></g></g></g><g fill="#ffffff" fill-opacity="1"><g transform="translate(324.720389, 99.489397)"><g><path d="M 2.796875 -6.867188 L 2.796875 -2.703125 L 1.523438 -2.703125 L 1.523438 -6.867188 Z M 2.796875 -2.417969 L 2.796875 -1.46875 L 2.910156 -1.46875 C 3.199219 -1.46875 3.566406 -1.664062 3.578125 -1.738281 L 3.578125 -6.726562 C 3.785156 -6.765625 3.9375 -6.859375 4.011719 -6.941406 L 3.117188 -7.640625 L 2.695312 -7.175781 L 1.574219 -7.175781 L 0.742188 -7.546875 L 0.742188 -0.90625 L 0.863281 -0.90625 C 1.214844 -0.90625 1.523438 -1.101562 1.523438 -1.191406 L 1.523438 -2.417969 Z M 9.664062 -3.980469 C 9.800781 -3.980469 9.914062 -4.03125 9.941406 -4.144531 C 9.5625 -4.503906 8.933594 -5.007812 8.933594 -5.007812 L 8.390625 -4.277344 L 6.941406 -4.277344 L 6.941406 -6.148438 L 9.316406 -6.148438 C 9.460938 -6.148438 9.5625 -6.199219 9.59375 -6.3125 C 9.214844 -6.664062 8.597656 -7.167969 8.597656 -7.167969 L 8.039062 -6.457031 L 6.941406 -6.457031 L 6.941406 -8.125 C 7.207031 -8.164062 7.28125 -8.265625 7.3125 -8.410156 L 6.097656 -8.535156 L 6.097656 -6.457031 L 3.957031 -6.457031 L 4.042969 -6.148438 L 6.097656 -6.148438 L 6.097656 -4.277344 L 3.742188 -4.277344 L 3.824219 -3.980469 L 5.726562 -3.980469 C 5.109375 -2.355469 3.9375 -0.851562 2.28125 0.125 L 2.386719 0.265625 C 4.03125 -0.453125 5.273438 -1.46875 6.097656 -2.753906 L 6.097656 0.8125 L 6.273438 0.8125 C 6.589844 0.8125 6.941406 0.628906 6.941406 0.535156 L 6.941406 -3.855469 C 7.433594 -2.140625 8.257812 -0.769531 9.328125 0.0703125 C 9.449219 -0.339844 9.726562 -0.585938 10.046875 -0.636719 L 10.066406 -0.75 C 8.90625 -1.347656 7.753906 -2.558594 7.125 -3.980469 Z M 9.664062 -3.980469 "/></g></g></g><g fill="#ffffff" fill-opacity="1"><g transform="translate(334.833155, 99.489397)"><g><path d="M 1.132812 -8.421875 C 1.636719 -8.082031 2.261719 -7.476562 2.488281 -6.960938 C 3.394531 -6.488281 3.855469 -8.257812 1.214844 -8.503906 Z M 0.328125 -6.128906 C 0.800781 -5.820312 1.378906 -5.242188 1.574219 -4.769531 C 2.457031 -4.308594 2.898438 -6.015625 0.410156 -6.210938 Z M 3.640625 -7.117188 C 1.613281 -2.703125 1.613281 -2.703125 1.410156 -2.324219 C 1.296875 -2.117188 1.253906 -2.109375 1.121094 -2.109375 L 0.667969 -2.109375 L 0.667969 -1.890625 C 0.882812 -1.871094 1.039062 -1.839844 1.183594 -1.738281 C 1.417969 -1.582031 1.480469 -0.742188 1.316406 0.328125 C 1.355469 0.667969 1.511719 0.84375 1.71875 0.84375 C 2.117188 0.84375 2.355469 0.554688 2.375 0.09375 C 2.417969 -0.769531 2.078125 -1.203125 2.066406 -1.6875 C 2.066406 -1.953125 2.140625 -2.304688 2.242188 -2.632812 C 2.40625 -3.175781 3.332031 -5.707031 3.816406 -7.074219 Z M 9.046875 -5.222656 L 8.585938 -4.75 L 5.078125 -4.75 C 6.136719 -5.5 7.679688 -6.695312 8.460938 -7.351562 C 8.738281 -7.339844 8.988281 -7.382812 9.078125 -7.507812 L 8.195312 -8.347656 L 7.742188 -7.898438 L 4.011719 -7.898438 L 4.101562 -7.597656 L 7.527344 -7.597656 C 6.683594 -6.867188 5.265625 -5.808594 4.277344 -5.121094 C 4.03125 -5.089844 3.753906 -5.027344 3.589844 -4.964844 L 4.296875 -4.144531 L 4.761719 -4.453125 L 5.5 -4.453125 C 4.976562 -3.117188 4.082031 -1.902344 2.796875 -1.039062 L 2.898438 -0.882812 C 4.566406 -1.726562 5.738281 -2.921875 6.363281 -4.453125 L 7.136719 -4.453125 C 6.671875 -2.386719 5.59375 -0.742188 3.546875 0.347656 L 3.640625 0.503906 C 6.160156 -0.554688 7.476562 -2.191406 8.03125 -4.453125 L 8.679688 -4.453125 C 8.523438 -2.066406 8.207031 -0.574219 7.835938 -0.265625 C 7.710938 -0.164062 7.621094 -0.132812 7.433594 -0.132812 C 7.207031 -0.132812 6.570312 -0.195312 6.179688 -0.226562 L 6.167969 -0.0507812 C 6.539062 0.0117188 6.898438 0.125 7.035156 0.257812 C 7.167969 0.359375 7.207031 0.585938 7.207031 0.824219 C 7.679688 0.824219 8.09375 0.710938 8.410156 0.421875 C 8.957031 -0.0703125 9.328125 -1.59375 9.480469 -4.328125 C 9.695312 -4.359375 9.839844 -4.410156 9.914062 -4.492188 Z M 9.046875 -5.222656 "/></g></g></g><g fill="#ffffff" fill-opacity="1"><g transform="translate(344.94592, 99.489397)"><g><path d="M 6.292969 -6.621094 L 6.292969 -5.574219 L 3.917969 -5.574219 L 3.917969 -6.621094 Z M 3.917969 -5.265625 L 6.292969 -5.265625 L 6.292969 -4.964844 L 6.40625 -4.964844 C 6.652344 -4.964844 6.992188 -5.132812 7.003906 -5.191406 L 7.003906 -6.507812 C 7.1875 -6.550781 7.339844 -6.632812 7.394531 -6.703125 L 6.582031 -7.3125 L 6.199219 -6.921875 L 3.96875 -6.921875 L 3.207031 -7.25 L 3.207031 -4.90625 L 3.320312 -4.90625 C 3.597656 -4.90625 3.917969 -5.046875 3.917969 -5.109375 Z M 3.527344 -4.152344 L 6.640625 -4.152344 L 6.640625 -1.882812 L 6.753906 -1.882812 C 7.003906 -1.882812 7.371094 -2.046875 7.382812 -2.117188 L 7.382812 -4.070312 C 7.535156 -4.101562 7.671875 -4.175781 7.722656 -4.238281 L 6.929688 -4.832031 L 6.558594 -4.453125 L 3.578125 -4.453125 L 2.808594 -4.800781 L 2.808594 -1.636719 L 2.921875 -1.636719 C 3.207031 -1.636719 3.527344 -1.789062 3.527344 -1.851562 Z M 4.710938 -3.734375 C 4.679688 -2.40625 4.65625 -1.398438 2.363281 -0.65625 L 2.46875 -0.492188 C 5.265625 -1.140625 5.378906 -2.167969 5.460938 -3.382812 C 5.664062 -3.414062 5.746094 -3.507812 5.769531 -3.621094 Z M 5.203125 -1.808594 C 6.148438 -1.46875 6.785156 -1.039062 7.117188 -0.628906 C 7.753906 -0.0507812 8.863281 -1.53125 5.253906 -1.972656 Z M 1.902344 -0.226562 L 1.902344 -7.753906 L 8.296875 -7.753906 L 8.296875 -0.226562 Z M 8.636719 -8.542969 L 8.195312 -8.050781 L 1.984375 -8.050781 L 1.101562 -8.453125 L 1.101562 0.84375 L 1.246094 0.84375 C 1.59375 0.84375 1.902344 0.628906 1.902344 0.523438 L 1.902344 0.0703125 L 8.296875 0.0703125 L 8.296875 0.761719 L 8.421875 0.761719 C 8.710938 0.761719 9.109375 0.546875 9.121094 0.460938 L 9.121094 -7.597656 C 9.328125 -7.648438 9.492188 -7.722656 9.5625 -7.816406 Z M 8.636719 -8.542969 "/></g></g></g><g fill="#ffffff" fill-opacity="1"><g transform="translate(355.058686, 99.489397)"><g><path d="M 5.347656 -9.046875 L 4.9375 -9.046875 L 4.9375 1.234375 L 5.347656 1.234375 Z M 5.347656 -9.046875 "/></g></g></g><g fill="#000000" fill-opacity="1"><g transform="translate(263.024755, 108.699026)"><g><path d="M 1.691406 -2.507812 C 1.316406 -2.679688 1.113281 -2.875 1.113281 -3.246094 C 1.113281 -3.648438 1.414062 -3.882812 1.878906 -3.882812 C 2.015625 -3.882812 2.121094 -3.867188 2.226562 -3.820312 L 2.5 -2.929688 L 2.8125 -2.929688 L 2.859375 -3.800781 C 2.566406 -3.996094 2.191406 -4.109375 1.773438 -4.109375 C 0.898438 -4.109375 0.316406 -3.695312 0.316406 -2.972656 C 0.316406 -2.328125 0.695312 -1.972656 1.414062 -1.648438 L 1.671875 -1.535156 C 2.097656 -1.351562 2.253906 -1.15625 2.253906 -0.792969 C 2.253906 -0.375 1.960938 -0.125 1.429688 -0.125 C 1.226562 -0.125 1.066406 -0.144531 0.90625 -0.203125 L 0.621094 -1.136719 L 0.3125 -1.136719 L 0.273438 -0.214844 C 0.59375 -0.00390625 1.082031 0.105469 1.519531 0.105469 C 2.527344 0.105469 3.070312 -0.378906 3.070312 -1.09375 C 3.070312 -1.699219 2.773438 -2.019531 1.976562 -2.378906 Z M 1.691406 -2.507812 "/></g></g></g><g fill="#000000" fill-opacity="1"><g transform="translate(270.335253, 108.699026)"><g><path d="M 1.179688 -2.003906 C 1.179688 -3.09375 1.472656 -3.902344 2.132812 -3.902344 C 2.785156 -3.902344 3.085938 -3.09375 3.085938 -2.003906 C 3.085938 -0.898438 2.785156 -0.0976562 2.132812 -0.0976562 C 1.472656 -0.0976562 1.179688 -0.898438 1.179688 -2.003906 Z M 2.132812 -4.109375 C 1.128906 -4.109375 0.230469 -3.386719 0.230469 -2.003906 C 0.230469 -0.605469 1.125 0.105469 2.132812 0.105469 C 3.144531 0.105469 4.027344 -0.609375 4.027344 -2.003906 C 4.027344 -3.390625 3.136719 -4.109375 2.132812 -4.109375 Z M 2.132812 -4.109375 "/></g></g></g><g fill="#000000" fill-opacity="1"><g transform="translate(278.625842, 108.699026)"><g><path d="M 5.210938 -3.820312 L 5.210938 -4 L 3.796875 -4 L 2.738281 -1.15625 L 1.644531 -4 L 0.167969 -4 L 0.167969 -3.820312 L 0.734375 -3.75 L 0.710938 -0.257812 L 0.125 -0.183594 L 0.125 0 L 1.570312 0 L 1.570312 -0.183594 L 0.976562 -0.261719 L 0.976562 -1.859375 C 0.976562 -2.203125 0.964844 -2.890625 0.953125 -3.449219 L 2.269531 0 L 2.554688 0 L 3.835938 -3.476562 L 3.8125 -1.75 C 3.800781 -1.316406 3.8125 -0.777344 3.796875 -0.230469 L 3.324219 -0.183594 L 3.324219 0 L 5.207031 0 L 5.207031 -0.183594 L 4.730469 -0.230469 C 4.714844 -0.765625 4.714844 -1.324219 4.714844 -1.878906 L 4.714844 -2.117188 C 4.714844 -2.671875 4.714844 -3.222656 4.730469 -3.777344 Z M 5.210938 -3.820312 "/></g></g></g><g fill="#000000" fill-opacity="1"><g transform="translate(288.08933, 108.699026)"><g><path d="M 3.386719 -1.109375 L 3.085938 -1.109375 L 2.839844 -0.207031 L 1.632812 -0.207031 C 1.621094 -0.765625 1.621094 -1.332031 1.621094 -1.929688 L 1.621094 -1.945312 L 2.355469 -1.945312 L 2.429688 -1.375 L 2.699219 -1.375 L 2.699219 -2.730469 L 2.429688 -2.730469 L 2.351562 -2.136719 L 1.621094 -2.136719 C 1.621094 -2.703125 1.621094 -3.257812 1.632812 -3.792969 L 2.71875 -3.792969 L 2.96875 -2.933594 L 3.277344 -2.933594 L 3.28125 -4 L 0.21875 -4 L 0.21875 -3.820312 L 0.703125 -3.777344 C 0.71875 -3.222656 0.71875 -2.671875 0.71875 -2.117188 L 0.71875 -1.878906 C 0.71875 -1.324219 0.71875 -0.769531 0.703125 -0.230469 L 0.21875 -0.183594 L 0.21875 0 L 3.394531 0 Z M 3.386719 -1.109375 "/></g></g></g><g fill="#000000" fill-opacity="1"><g transform="translate(295.73188, 108.699026)"><g><path d="M 3.117188 -3.792969 L 3.390625 -2.855469 L 3.699219 -2.855469 L 3.679688 -4 L 0.144531 -4 L 0.125 -2.855469 L 0.4375 -2.855469 L 0.707031 -3.792969 L 1.445312 -3.792969 C 1.457031 -3.238281 1.457031 -2.679688 1.457031 -2.117188 L 1.457031 -1.878906 C 1.457031 -1.324219 1.457031 -0.769531 1.445312 -0.234375 L 0.90625 -0.183594 L 0.90625 0 L 2.917969 0 L 2.917969 -0.183594 L 2.371094 -0.234375 C 2.363281 -0.78125 2.363281 -1.339844 2.363281 -1.886719 L 2.363281 -2.117188 C 2.363281 -2.683594 2.363281 -3.238281 2.371094 -3.792969 Z M 3.117188 -3.792969 "/></g></g></g><g fill="#000000" fill-opacity="1"><g transform="translate(303.588653, 108.699026)"><g><path d="M 4.441406 -3.820312 L 4.441406 -4 L 2.585938 -4 L 2.585938 -3.820312 L 3.035156 -3.777344 C 3.050781 -3.234375 3.050781 -2.683594 3.050781 -2.136719 L 1.613281 -2.136719 C 1.613281 -2.6875 1.613281 -3.238281 1.628906 -3.777344 L 2.074219 -3.820312 L 2.074219 -4 L 0.21875 -4 L 0.21875 -3.820312 L 0.695312 -3.769531 C 0.703125 -3.222656 0.703125 -2.671875 0.703125 -2.117188 L 0.703125 -1.878906 C 0.703125 -1.324219 0.703125 -0.769531 0.695312 -0.230469 L 0.21875 -0.183594 L 0.21875 0 L 2.074219 0 L 2.074219 -0.183594 L 1.628906 -0.226562 C 1.613281 -0.769531 1.613281 -1.328125 1.613281 -1.933594 L 3.050781 -1.933594 C 3.050781 -1.316406 3.050781 -0.761719 3.035156 -0.230469 L 2.585938 -0.183594 L 2.585938 0 L 4.441406 0 L 4.441406 -0.183594 L 3.96875 -0.230469 C 3.957031 -0.78125 3.957031 -1.332031 3.957031 -1.878906 L 3.957031 -2.117188 C 3.957031 -2.671875 3.957031 -3.230469 3.96875 -3.777344 Z M 4.441406 -3.820312 "/></g></g></g><g fill="#000000" fill-opacity="1"><g transform="translate(312.280919, 108.699026)"><g><path d="M 2.109375 -3.820312 L 2.109375 -4 L 0.21875 -4 L 0.21875 -3.820312 L 0.703125 -3.777344 C 0.71875 -3.222656 0.71875 -2.671875 0.71875 -2.117188 L 0.71875 -1.878906 C 0.71875 -1.324219 0.71875 -0.769531 0.703125 -0.230469 L 0.21875 -0.183594 L 0.21875 0 L 2.109375 0 L 2.109375 -0.183594 L 1.632812 -0.230469 C 1.621094 -0.78125 1.621094 -1.332031 1.621094 -1.886719 L 1.621094 -2.117188 C 1.621094 -2.671875 1.621094 -3.230469 1.632812 -3.777344 Z M 2.109375 -3.820312 "/></g></g></g><g fill="#000000" fill-opacity="1"><g transform="translate(318.648815, 108.699026)"><g><path d="M 4.242188 -4 L 2.761719 -4 L 2.761719 -3.820312 L 3.476562 -3.742188 L 3.503906 -1.195312 L 1.472656 -4 L 0.183594 -4 L 0.183594 -3.820312 L 0.5625 -3.777344 L 0.664062 -3.625 L 0.632812 -0.257812 L 0.140625 -0.183594 L 0.140625 0 L 1.628906 0 L 1.628906 -0.183594 L 0.910156 -0.261719 L 0.878906 -3.320312 L 3.238281 0.0117188 L 3.710938 0.0117188 L 3.75 -3.75 L 4.242188 -3.820312 Z M 4.242188 -4 "/></g></g></g><g fill="#000000" fill-opacity="1"><g transform="translate(327.100076, 108.699026)"><g><path d="M 4.015625 -1.964844 L 2.226562 -1.964844 L 2.226562 -1.785156 L 2.800781 -1.714844 C 2.8125 -1.3125 2.816406 -0.933594 2.816406 -0.535156 L 2.816406 -0.132812 C 2.703125 -0.105469 2.585938 -0.0976562 2.464844 -0.0976562 C 1.746094 -0.0976562 1.179688 -0.808594 1.179688 -2.003906 C 1.179688 -3.289062 1.761719 -3.902344 2.515625 -3.902344 C 2.671875 -3.902344 2.800781 -3.882812 2.929688 -3.828125 L 3.207031 -2.839844 L 3.539062 -2.839844 L 3.5625 -3.820312 C 3.230469 -4.007812 2.859375 -4.109375 2.398438 -4.109375 C 1.109375 -4.109375 0.230469 -3.304688 0.230469 -2.007812 C 0.230469 -0.679688 1.09375 0.105469 2.363281 0.105469 C 2.871094 0.105469 3.25 0 3.667969 -0.246094 L 3.667969 -0.507812 C 3.667969 -0.949219 3.675781 -1.351562 3.683594 -1.742188 L 4.015625 -1.785156 Z M 4.015625 -1.964844 "/></g></g></g><g fill="#000000" fill-opacity="1"><g transform="translate(335.235347, 108.699026)"><g><path d="M 0.910156 0.0859375 C 1.183594 0.0859375 1.402344 -0.128906 1.402344 -0.394531 C 1.402344 -0.660156 1.183594 -0.882812 0.910156 -0.882812 C 0.636719 -0.882812 0.417969 -0.660156 0.417969 -0.394531 C 0.417969 -0.128906 0.636719 0.0859375 0.910156 0.0859375 Z M 0.910156 0.0859375 "/></g></g></g><g fill="#000000" fill-opacity="1"><g transform="translate(341.089093, 108.699026)"><g><path d="M 1.84375 -3.796875 C 2.410156 -3.796875 2.71875 -3.464844 2.71875 -2.816406 C 2.71875 -2.21875 2.421875 -1.800781 1.800781 -1.800781 L 1.621094 -1.800781 L 1.621094 -2.117188 C 1.621094 -2.683594 1.621094 -3.246094 1.632812 -3.796875 Z M 1.828125 -1.601562 C 3.101562 -1.601562 3.554688 -2.140625 3.554688 -2.8125 C 3.554688 -3.566406 3.070312 -4 1.851562 -4 L 0.21875 -4 L 0.21875 -3.820312 L 0.703125 -3.777344 C 0.71875 -3.222656 0.71875 -2.671875 0.71875 -2.117188 L 0.71875 -1.878906 C 0.71875 -1.324219 0.71875 -0.769531 0.703125 -0.230469 L 0.21875 -0.183594 L 0.21875 0 L 2.207031 0 L 2.207031 -0.183594 L 1.632812 -0.242188 C 1.621094 -0.722656 1.621094 -1.199219 1.621094 -1.601562 Z M 1.828125 -1.601562 "/></g></g></g><g fill="#000000" fill-opacity="1"><g transform="translate(348.817332, 108.699026)"><g><path d="M 3.304688 -1.199219 L 3.015625 -1.199219 L 2.746094 -0.207031 L 1.632812 -0.207031 C 1.621094 -0.765625 1.621094 -1.324219 1.621094 -1.851562 L 1.621094 -2.203125 C 1.621094 -2.683594 1.621094 -3.230469 1.632812 -3.769531 L 2.160156 -3.820312 L 2.160156 -4 L 0.21875 -4 L 0.21875 -3.820312 L 0.703125 -3.777344 C 0.71875 -3.222656 0.71875 -2.671875 0.71875 -2.117188 L 0.71875 -1.734375 C 0.71875 -1.308594 0.71875 -0.765625 0.703125 -0.230469 L 0.226562 -0.183594 L 0.21875 0 L 3.316406 0 Z M 3.304688 -1.199219 "/></g></g></g><g fill="#000000" fill-opacity="1"><g transform="translate(356.3367, 108.699026)"><g><path d="M 4.296875 -4 L 2.855469 -4 L 2.855469 -3.820312 L 3.464844 -3.738281 L 3.488281 -1.691406 C 3.496094 -0.722656 3.136719 -0.332031 2.515625 -0.332031 C 1.902344 -0.332031 1.570312 -0.691406 1.570312 -1.671875 L 1.570312 -2.175781 C 1.570312 -2.703125 1.570312 -3.246094 1.585938 -3.769531 L 2.097656 -3.820312 L 2.097656 -4 L 0.191406 -4 L 0.191406 -3.820312 L 0.652344 -3.777344 C 0.667969 -3.238281 0.667969 -2.699219 0.667969 -2.175781 L 0.667969 -1.589844 C 0.667969 -0.328125 1.3125 0.105469 2.234375 0.105469 C 3.179688 0.105469 3.707031 -0.449219 3.722656 -1.683594 L 3.742188 -3.738281 L 4.296875 -3.820312 Z M 4.296875 -4 "/></g></g></g><g fill="#000000" fill-opacity="1"><g transform="translate(364.809382, 108.699026)"><g><path d="M 1.691406 -2.507812 C 1.316406 -2.679688 1.113281 -2.875 1.113281 -3.246094 C 1.113281 -3.648438 1.414062 -3.882812 1.878906 -3.882812 C 2.015625 -3.882812 2.121094 -3.867188 2.226562 -3.820312 L 2.5 -2.929688 L 2.8125 -2.929688 L 2.859375 -3.800781 C 2.566406 -3.996094 2.191406 -4.109375 1.773438 -4.109375 C 0.898438 -4.109375 0.316406 -3.695312 0.316406 -2.972656 C 0.316406 -2.328125 0.695312 -1.972656 1.414062 -1.648438 L 1.671875 -1.535156 C 2.097656 -1.351562 2.253906 -1.15625 2.253906 -0.792969 C 2.253906 -0.375 1.960938 -0.125 1.429688 -0.125 C 1.226562 -0.125 1.066406 -0.144531 0.90625 -0.203125 L 0.621094 -1.136719 L 0.3125 -1.136719 L 0.273438 -0.214844 C 0.59375 -0.00390625 1.082031 0.105469 1.519531 0.105469 C 2.527344 0.105469 3.070312 -0.378906 3.070312 -1.09375 C 3.070312 -1.699219 2.773438 -2.019531 1.976562 -2.378906 Z M 1.691406 -2.507812 "/></g></g></g><g fill="#ffffff" fill-opacity="1"><g transform="translate(262.603553, 108.493598)"><g><path d="M 1.691406 -2.507812 C 1.316406 -2.679688 1.113281 -2.875 1.113281 -3.246094 C 1.113281 -3.648438 1.414062 -3.882812 1.878906 -3.882812 C 2.015625 -3.882812 2.121094 -3.867188 2.226562 -3.820312 L 2.5 -2.929688 L 2.8125 -2.929688 L 2.859375 -3.800781 C 2.566406 -3.996094 2.191406 -4.109375 1.773438 -4.109375 C 0.898438 -4.109375 0.316406 -3.695312 0.316406 -2.972656 C 0.316406 -2.328125 0.695312 -1.972656 1.414062 -1.648438 L 1.671875 -1.535156 C 2.097656 -1.351562 2.253906 -1.15625 2.253906 -0.792969 C 2.253906 -0.375 1.960938 -0.125 1.429688 -0.125 C 1.226562 -0.125 1.066406 -0.144531 0.90625 -0.203125 L 0.621094 -1.136719 L 0.3125 -1.136719 L 0.273438 -0.214844 C 0.59375 -0.00390625 1.082031 0.105469 1.519531 0.105469 C 2.527344 0.105469 3.070312 -0.378906 3.070312 -1.09375 C 3.070312 -1.699219 2.773438 -2.019531 1.976562 -2.378906 Z M 1.691406 -2.507812 "/></g></g></g><g fill="#ffffff" fill-opacity="1"><g transform="translate(269.91405, 108.493598)"><g><path d="M 1.179688 -2.003906 C 1.179688 -3.09375 1.472656 -3.902344 2.132812 -3.902344 C 2.785156 -3.902344 3.085938 -3.09375 3.085938 -2.003906 C 3.085938 -0.898438 2.785156 -0.0976562 2.132812 -0.0976562 C 1.472656 -0.0976562 1.179688 -0.898438 1.179688 -2.003906 Z M 2.132812 -4.109375 C 1.128906 -4.109375 0.230469 -3.386719 0.230469 -2.003906 C 0.230469 -0.605469 1.125 0.105469 2.132812 0.105469 C 3.144531 0.105469 4.027344 -0.609375 4.027344 -2.003906 C 4.027344 -3.390625 3.136719 -4.109375 2.132812 -4.109375 Z M 2.132812 -4.109375 "/></g></g></g><g fill="#ffffff" fill-opacity="1"><g transform="translate(278.20464, 108.493598)"><g><path d="M 5.210938 -3.820312 L 5.210938 -4 L 3.796875 -4 L 2.738281 -1.15625 L 1.644531 -4 L 0.167969 -4 L 0.167969 -3.820312 L 0.734375 -3.75 L 0.710938 -0.257812 L 0.125 -0.183594 L 0.125 0 L 1.570312 0 L 1.570312 -0.183594 L 0.976562 -0.261719 L 0.976562 -1.859375 C 0.976562 -2.203125 0.964844 -2.890625 0.953125 -3.449219 L 2.269531 0 L 2.554688 0 L 3.835938 -3.476562 L 3.8125 -1.75 C 3.800781 -1.316406 3.8125 -0.777344 3.796875 -0.230469 L 3.324219 -0.183594 L 3.324219 0 L 5.207031 0 L 5.207031 -0.183594 L 4.730469 -0.230469 C 4.714844 -0.765625 4.714844 -1.324219 4.714844 -1.878906 L 4.714844 -2.117188 C 4.714844 -2.671875 4.714844 -3.222656 4.730469 -3.777344 Z M 5.210938 -3.820312 "/></g></g></g><g fill="#ffffff" fill-opacity="1"><g transform="translate(287.668128, 108.493598)"><g><path d="M 3.386719 -1.109375 L 3.085938 -1.109375 L 2.839844 -0.207031 L 1.632812 -0.207031 C 1.621094 -0.765625 1.621094 -1.332031 1.621094 -1.929688 L 1.621094 -1.945312 L 2.355469 -1.945312 L 2.429688 -1.375 L 2.699219 -1.375 L 2.699219 -2.730469 L 2.429688 -2.730469 L 2.351562 -2.136719 L 1.621094 -2.136719 C 1.621094 -2.703125 1.621094 -3.257812 1.632812 -3.792969 L 2.71875 -3.792969 L 2.96875 -2.933594 L 3.277344 -2.933594 L 3.28125 -4 L 0.21875 -4 L 0.21875 -3.820312 L 0.703125 -3.777344 C 0.71875 -3.222656 0.71875 -2.671875 0.71875 -2.117188 L 0.71875 -1.878906 C 0.71875 -1.324219 0.71875 -0.769531 0.703125 -0.230469 L 0.21875 -0.183594 L 0.21875 0 L 3.394531 0 Z M 3.386719 -1.109375 "/></g></g></g><g fill="#ffffff" fill-opacity="1"><g transform="translate(295.310678, 108.493598)"><g><path d="M 3.117188 -3.792969 L 3.390625 -2.855469 L 3.699219 -2.855469 L 3.679688 -4 L 0.144531 -4 L 0.125 -2.855469 L 0.4375 -2.855469 L 0.707031 -3.792969 L 1.445312 -3.792969 C 1.457031 -3.238281 1.457031 -2.679688 1.457031 -2.117188 L 1.457031 -1.878906 C 1.457031 -1.324219 1.457031 -0.769531 1.445312 -0.234375 L 0.90625 -0.183594 L 0.90625 0 L 2.917969 0 L 2.917969 -0.183594 L 2.371094 -0.234375 C 2.363281 -0.78125 2.363281 -1.339844 2.363281 -1.886719 L 2.363281 -2.117188 C 2.363281 -2.683594 2.363281 -3.238281 2.371094 -3.792969 Z M 3.117188 -3.792969 "/></g></g></g><g fill="#ffffff" fill-opacity="1"><g transform="translate(303.16745, 108.493598)"><g><path d="M 4.441406 -3.820312 L 4.441406 -4 L 2.585938 -4 L 2.585938 -3.820312 L 3.035156 -3.777344 C 3.050781 -3.234375 3.050781 -2.683594 3.050781 -2.136719 L 1.613281 -2.136719 C 1.613281 -2.6875 1.613281 -3.238281 1.628906 -3.777344 L 2.074219 -3.820312 L 2.074219 -4 L 0.21875 -4 L 0.21875 -3.820312 L 0.695312 -3.769531 C 0.703125 -3.222656 0.703125 -2.671875 0.703125 -2.117188 L 0.703125 -1.878906 C 0.703125 -1.324219 0.703125 -0.769531 0.695312 -0.230469 L 0.21875 -0.183594 L 0.21875 0 L 2.074219 0 L 2.074219 -0.183594 L 1.628906 -0.226562 C 1.613281 -0.769531 1.613281 -1.328125 1.613281 -1.933594 L 3.050781 -1.933594 C 3.050781 -1.316406 3.050781 -0.761719 3.035156 -0.230469 L 2.585938 -0.183594 L 2.585938 0 L 4.441406 0 L 4.441406 -0.183594 L 3.96875 -0.230469 C 3.957031 -0.78125 3.957031 -1.332031 3.957031 -1.878906 L 3.957031 -2.117188 C 3.957031 -2.671875 3.957031 -3.230469 3.96875 -3.777344 Z M 4.441406 -3.820312 "/></g></g></g><g fill="#ffffff" fill-opacity="1"><g transform="translate(311.859716, 108.493598)"><g><path d="M 2.109375 -3.820312 L 2.109375 -4 L 0.21875 -4 L 0.21875 -3.820312 L 0.703125 -3.777344 C 0.71875 -3.222656 0.71875 -2.671875 0.71875 -2.117188 L 0.71875 -1.878906 C 0.71875 -1.324219 0.71875 -0.769531 0.703125 -0.230469 L 0.21875 -0.183594 L 0.21875 0 L 2.109375 0 L 2.109375 -0.183594 L 1.632812 -0.230469 C 1.621094 -0.78125 1.621094 -1.332031 1.621094 -1.886719 L 1.621094 -2.117188 C 1.621094 -2.671875 1.621094 -3.230469 1.632812 -3.777344 Z M 2.109375 -3.820312 "/></g></g></g><g fill="#ffffff" fill-opacity="1"><g transform="translate(318.227613, 108.493598)"><g><path d="M 4.242188 -4 L 2.761719 -4 L 2.761719 -3.820312 L 3.476562 -3.742188 L 3.503906 -1.195312 L 1.472656 -4 L 0.183594 -4 L 0.183594 -3.820312 L 0.5625 -3.777344 L 0.664062 -3.625 L 0.632812 -0.257812 L 0.140625 -0.183594 L 0.140625 0 L 1.628906 0 L 1.628906 -0.183594 L 0.910156 -0.261719 L 0.878906 -3.320312 L 3.238281 0.0117188 L 3.710938 0.0117188 L 3.75 -3.75 L 4.242188 -3.820312 Z M 4.242188 -4 "/></g></g></g><g fill="#ffffff" fill-opacity="1"><g transform="translate(326.678874, 108.493598)"><g><path d="M 4.015625 -1.964844 L 2.226562 -1.964844 L 2.226562 -1.785156 L 2.800781 -1.714844 C 2.8125 -1.3125 2.816406 -0.933594 2.816406 -0.535156 L 2.816406 -0.132812 C 2.703125 -0.105469 2.585938 -0.0976562 2.464844 -0.0976562 C 1.746094 -0.0976562 1.179688 -0.808594 1.179688 -2.003906 C 1.179688 -3.289062 1.761719 -3.902344 2.515625 -3.902344 C 2.671875 -3.902344 2.800781 -3.882812 2.929688 -3.828125 L 3.207031 -2.839844 L 3.539062 -2.839844 L 3.5625 -3.820312 C 3.230469 -4.007812 2.859375 -4.109375 2.398438 -4.109375 C 1.109375 -4.109375 0.230469 -3.304688 0.230469 -2.007812 C 0.230469 -0.679688 1.09375 0.105469 2.363281 0.105469 C 2.871094 0.105469 3.25 0 3.667969 -0.246094 L 3.667969 -0.507812 C 3.667969 -0.949219 3.675781 -1.351562 3.683594 -1.742188 L 4.015625 -1.785156 Z M 4.015625 -1.964844 "/></g></g></g><g fill="#ffffff" fill-opacity="1"><g transform="translate(334.814144, 108.493598)"><g><path d="M 0.910156 0.0859375 C 1.183594 0.0859375 1.402344 -0.128906 1.402344 -0.394531 C 1.402344 -0.660156 1.183594 -0.882812 0.910156 -0.882812 C 0.636719 -0.882812 0.417969 -0.660156 0.417969 -0.394531 C 0.417969 -0.128906 0.636719 0.0859375 0.910156 0.0859375 Z M 0.910156 0.0859375 "/></g></g></g><g fill="#ffffff" fill-opacity="1"><g transform="translate(340.667891, 108.493598)"><g><path d="M 1.84375 -3.796875 C 2.410156 -3.796875 2.71875 -3.464844 2.71875 -2.816406 C 2.71875 -2.21875 2.421875 -1.800781 1.800781 -1.800781 L 1.621094 -1.800781 L 1.621094 -2.117188 C 1.621094 -2.683594 1.621094 -3.246094 1.632812 -3.796875 Z M 1.828125 -1.601562 C 3.101562 -1.601562 3.554688 -2.140625 3.554688 -2.8125 C 3.554688 -3.566406 3.070312 -4 1.851562 -4 L 0.21875 -4 L 0.21875 -3.820312 L 0.703125 -3.777344 C 0.71875 -3.222656 0.71875 -2.671875 0.71875 -2.117188 L 0.71875 -1.878906 C 0.71875 -1.324219 0.71875 -0.769531 0.703125 -0.230469 L 0.21875 -0.183594 L 0.21875 0 L 2.207031 0 L 2.207031 -0.183594 L 1.632812 -0.242188 C 1.621094 -0.722656 1.621094 -1.199219 1.621094 -1.601562 Z M 1.828125 -1.601562 "/></g></g></g><g fill="#ffffff" fill-opacity="1"><g transform="translate(348.39613, 108.493598)"><g><path d="M 3.304688 -1.199219 L 3.015625 -1.199219 L 2.746094 -0.207031 L 1.632812 -0.207031 C 1.621094 -0.765625 1.621094 -1.324219 1.621094 -1.851562 L 1.621094 -2.203125 C 1.621094 -2.683594 1.621094 -3.230469 1.632812 -3.769531 L 2.160156 -3.820312 L 2.160156 -4 L 0.21875 -4 L 0.21875 -3.820312 L 0.703125 -3.777344 C 0.71875 -3.222656 0.71875 -2.671875 0.71875 -2.117188 L 0.71875 -1.734375 C 0.71875 -1.308594 0.71875 -0.765625 0.703125 -0.230469 L 0.226562 -0.183594 L 0.21875 0 L 3.316406 0 Z M 3.304688 -1.199219 "/></g></g></g><g fill="#ffffff" fill-opacity="1"><g transform="translate(355.915497, 108.493598)"><g><path d="M 4.296875 -4 L 2.855469 -4 L 2.855469 -3.820312 L 3.464844 -3.738281 L 3.488281 -1.691406 C 3.496094 -0.722656 3.136719 -0.332031 2.515625 -0.332031 C 1.902344 -0.332031 1.570312 -0.691406 1.570312 -1.671875 L 1.570312 -2.175781 C 1.570312 -2.703125 1.570312 -3.246094 1.585938 -3.769531 L 2.097656 -3.820312 L 2.097656 -4 L 0.191406 -4 L 0.191406 -3.820312 L 0.652344 -3.777344 C 0.667969 -3.238281 0.667969 -2.699219 0.667969 -2.175781 L 0.667969 -1.589844 C 0.667969 -0.328125 1.3125 0.105469 2.234375 0.105469 C 3.179688 0.105469 3.707031 -0.449219 3.722656 -1.683594 L 3.742188 -3.738281 L 4.296875 -3.820312 Z M 4.296875 -4 "/></g></g></g><g fill="#ffffff" fill-opacity="1"><g transform="translate(364.38818, 108.493598)"><g><path d="M 1.691406 -2.507812 C 1.316406 -2.679688 1.113281 -2.875 1.113281 -3.246094 C 1.113281 -3.648438 1.414062 -3.882812 1.878906 -3.882812 C 2.015625 -3.882812 2.121094 -3.867188 2.226562 -3.820312 L 2.5 -2.929688 L 2.8125 -2.929688 L 2.859375 -3.800781 C 2.566406 -3.996094 2.191406 -4.109375 1.773438 -4.109375 C 0.898438 -4.109375 0.316406 -3.695312 0.316406 -2.972656 C 0.316406 -2.328125 0.695312 -1.972656 1.414062 -1.648438 L 1.671875 -1.535156 C 2.097656 -1.351562 2.253906 -1.15625 2.253906 -0.792969 C 2.253906 -0.375 1.960938 -0.125 1.429688 -0.125 C 1.226562 -0.125 1.066406 -0.144531 0.90625 -0.203125 L 0.621094 -1.136719 L 0.3125 -1.136719 L 0.273438 -0.214844 C 0.59375 -0.00390625 1.082031 0.105469 1.519531 0.105469 C 2.527344 0.105469 3.070312 -0.378906 3.070312 -1.09375 C 3.070312 -1.699219 2.773438 -2.019531 1.976562 -2.378906 Z M 1.691406 -2.507812 "/></g></g></g></svg>